<mxfile host="app.diagrams.net" modified="2024-04-12T04:18:18.835Z" agent="Mozilla/5.0 (X11; Linux x86_64) AppleWebKit/537.36 (KHTML, like Gecko) Chrome/123.0.0.0 Safari/537.36" etag="CuphSc47ckHtkV6taPSL" version="24.2.3" type="github">
  <diagram id="C5RBs43oDa-KdzZeNtuy" name="Page-1">
    <mxGraphModel dx="2261" dy="752" grid="1" gridSize="10" guides="1" tooltips="1" connect="1" arrows="1" fold="1" page="1" pageScale="1" pageWidth="827" pageHeight="1169" math="0" shadow="1">
      <root>
        <mxCell id="WIyWlLk6GJQsqaUBKTNV-0" />
        <mxCell id="WIyWlLk6GJQsqaUBKTNV-1" parent="WIyWlLk6GJQsqaUBKTNV-0" />
        <mxCell id="aZhv_oGnKCUiRgPCYMfo-13" value="" style="shape=image;verticalLabelPosition=bottom;labelBackgroundColor=default;verticalAlign=top;aspect=fixed;imageAspect=0;image=data:image/png,iVBORw0KGgoAAAANSUhEUgAABowAAAOaCAYAAACiEnBmAAAABHNCSVQICAgIfAhkiAAAABl0RVh0U29mdHdhcmUAZ25vbWUtc2NyZWVuc2hvdO8Dvz4AAAAtdEVYdENyZWF0aW9uIFRpbWUAVGh1IDExIEFwciAyMDI0IDEwOjQ5OjQ2IFBNIENEVCpumrIAACAASURBVHic7N15nE31H8fx172zz2BsYzdmUBiEkqRJkaWU0CIiESJZCg3xQ4gYIpGU7JWlkLK2IDshsu/7zozZt7v8/pjcZsy9s2hmLs37+Xj0eOTM+X6/n7N/v+dzzzkGq9VqRURERERERERERERERPIso7MDEBEREREREREREREREedyzWiG60mnORD9a27EkmV1CryMl4uvs8PIcbsjfyTKfNXZYdw1DLhQv1CnLJfbED4TK5YciOheY+CJQp2dHYTkgJumi+yNWunsMJyijEd1Kng/4uwwRETypCjTNXZHLXN2GHnenfaRs+J47FYuJBzI0TZym8YWklN8XUtSM/+zWSpzKu4PzsbvzaGIJPvc2Zh6Q/hsrJhyIB6xx9XgwWMFX3N2GCL/WQejf+Na0ilnhyFZVDVfI4q6BaQ7T4YJo8MxGzHfpRe0gzFreahAK2eHkeOuJp7A3cXL2WHcNUzWGC4nHKWEx/2ZLnMufh8J1lhcDBnu8v95VqyciN1BBe86zg5FstnB6HV37fk6p52J/1MJIxERJzkYk3evP3eTJGsMVxJPUNy9Qo61cSZ+DwaDIcfqdwaNLSSnXEk8luUyp+J2g0FfDbjbWbFwMu4Pyns9nOkyYUnniLWE427UvZ3cEmuKINESp3UukkPOJxzE1ejm7DAkiw7HbCS4YEC68+iVdCIiIiIiIiIiIiIiInmcEkYiIiIiIiIiIiIiIiJ5nBJGIiIiIiIiIiIiIiIieVy2JIyO/HmGvs0npJq24cfdjH17TnZULyn8NGsDrSr2p3O9Ebzx6Ai6PTma/duOZ7r85TPXaf/gEL6duJo3648i7GokX434gY0//emwzPThS/l10Y400/dvP0HY1cg00w/uPEWfZh/Tq+k4ugR/yGfvL8Jivjs/CLt38zF6PDWGV2sMpsPDw5g56kcsZguJCUm89tDQO653Qzrr807c2kZWq5U+z4xnaPtpGW43kZcqDaBT3eF0rPMBHR4exrxxK1Mdi472/7iYBF6qNCDdOjvXG0GHh4cx4Z1vsJgtxETG0eOpMVmOcfOKvUzs++0dlxcRkbvTjzM30KH2UDrUHkqX4A9Zu/gPp8WSHf2yy2dv0LNxKAA9G4dy7WJ4rrZ/t/pp1gamDVmcatrYt+ewbslOh2VuXfvv1B+/HWB876/vqOz1Szc5uDNnP86cEJ/E5AELaVN9EO1qDaH30+PYtzXz47U7ZW/MlrJ/lXIc6Ggc52jcZ090RBwd63zwr+O+JavHVUqOlielKQMXcWDHyWxvOzeOb0fn07PHLvNU4bfYv/2Ebd4/fjtgO75Gdp5Bm2qD6FjnA9t/m5bvyZaYUh5L2TlWvbU+c3Osm/I4ycy+lB0cjcMgebz17YTVtnkTE5Jsx1pmt2l69WdGevv1D9PX0+HhYbSrNYROdYezYu4m299Gdp5B2wcG07neCDrVHU7IC59y43JEptsVkXtXyntFneoOp88z4zl77HKmy6/5divThy9NNe3sscu81fCjNPNl1I/8t9fmlH2cPs0+5ua1qH9V39XzYQxp9zltqg2iQ+2hjOw8g8iwmHTLZLQMnw36Lt3+9r91136l02qxYjD+tz6oml2atn2U7iNfBODY3rN88PqXfLPnQ9vf01t3R/acpc5TVXn13adZv3QXAF2GtryjOH5ZsI3mbzxB4WIFUk3/uPc8hszsSkDlklgtVkZ2/oq9m49Rq36lO2onp1y/dJNRXWcwbPabVK1TnvjYBD7qPpsFn/7MSz2euqM6rRYrYdci+XXhduo3r5UtcVotVts2unk9mqibsUxa1T9L5XUs5V1TfxuIl48H0RFxhL49h28+XsVrIc+mu/+3erNBpuq0mC0M7zSdXxftoEnbukz9beAdx+lTwOtflRcRkbvH5hV7WTFnIxOX96NICV+ung+jf6tJFC9bhKp1yudqLDeuRKTbL8vpflJG7UvusVqs/LXlGOFXowiqHZhj7Uwd9B0Ws4Wvd43A1d2V/dtPMKLjdD5Z2Y9SgX451q49KftXKceBE9/9xu447l5ktVgdjktTOrzrtG0MnZ1tL5z0c44e3+mdT/MX8sb/vhJ8MXQJn67uj8GQ9lz2zsdtqdu0erbGdPux9G/GqimlPF/e6T2KO5HyOMnMvvRvpTcOe/Xdp8nn68XPC7bxzGv1KOSXNo6MtmlG9afn1jXR0X69bslOflm4nU9W9KNwsQJcv3STwW0+w9PLnadergNAn3FtbPF9P/VXZny4jJApHbKyikTkHnXrXhEkny8mhyxk3NI+uRpDdve9J63s96/KW61WhrSfxrMdghnxdXewwsLJvzCq6wzGLu7tsFxO9y8ykisJo0VTfmHzyr8wJZqo/FAAvca+QlR4DBPe/ZaEuETi4xJ584NW+N9XgnebT6BMheLUevx+nuv4eG6Ed0+7r4Y/UTdjMSWaeLtJKLUbVCE2Kp4+49sybchiTh+6SHxcIk1ffZR6Tz/ANx+vIjoilpIBRW11fDboO4JqBxL8bE1GdvmKqPBYgh4OZMvKv5i2/n0ADv5xkl8WbuPi6eu89eFL+BTwYuPyPZw6dJH3p3VKVV9sdAKJ8UkAGIwGhs7qCiQfJJNDFnJi/3ksZgu9x7Xhvhr+fD1+Fdt/3gcGAzUfv5/O/2vBtp/38/P8rRT0y8+5Y1eo/FAAnf/XIlvX3Y8zN9DstcdsNy48vT0Y8NnruLgabbF/+t4CDu8+jU8BL8Z81wuL2cJH3WcRfi2KhLhE2r7TlMeb1+Lzwd8TF5PAmSOXKFzclwN/nGRe6ApeC3nW1t7ng7+n7P0leO71YAB6Pz2O3uPaAvDlsCW4uBpxcXWh/6ev4e7hmupYOHP0MkG1A9m6Zh/XLoQztscc8hX0Jqh2IA1eqJ1mWz/Trl6qmO600y7/Hfl8vej/6Wt0eHgY7fs3S3f/t1ismarT6GKk+qMVOXfiCtERcfRsPJbZOz6gy2MjeaLlQ5w9epmrF8J5//PXKVGuKGsX/8HKeZsxGo2UqVCMXqGv2OpKWb7HU2N4osWDnDt2hZMHLzBkRhdKBtgvb29gLCIizrVoyi90H/kSRUr4AlCsTGEmrexHwSL5sVqtTBm4iNOHL2JKNPNsh2CatK3LF0OXYDKZMSWaOPLnGdr3b0a9Zx7I0jUh4kYM43rNJToiDi9vdwZ/1ZkpAxY57Jel7CfZq+/K2RuMenMWhYrlp3RgsVTLuGLOJvZuPkZUeAwjv3mLkgFF7fZpHbV/83p0mljNJgvje88jMT6JpEQTb334EvfX9KfHU2MIfrYmp49c4sq5MBq/8ghHdp/m9KGLfPRdL/L5euXOhr0D6V3742MT6NlkHLUbVOHkgQuUq1QCnwJenDlyGTd3FwZ9+Ybd9QQQGR7NsA5fcO7YFR57tgad/9eCS6evM/btObi4GjElmun3aXv87ytBtydHU7tBFSKuR7Nv2wmMRgMl/Ivw2LM1sn15YyLj2LRiD9/uHYWre/JQu9ojFWje6XGWz9lEm95N6NNsPA8/FcTV8+HJNxG+6oyru6vd/ryj48Le+BrSjtkeqHcfPRuPZdKq/rZxoBWrw3GcvTrqPfMAx/edTzNecXVzsZXJ6j565M8zTB30HaYkM1VqB/L2Ry8DmT+utqz6i18WbiciLJqGL9S2LU/IZ68zN3QFNy7fJCYynhfebECTtnW5eS2K/IW8cXVzYfU3W1k+eyMmk5kXujWgSZu6d9x2pZrlOL7/PMNf/5Jhc97M9v0J0j+fnjtxhTIVi5HP15v1S3fR4IXaWa7f3raIvhmb5l5N5QcDHB5LezYfdThWfbLVQ5m+B5DyfBl5M9ZWPivXjFvMJgtj356TZl/oXG8EE37qi2+RfPw0awNhVyN5sftT9Gw8lncntkt1bBzadSpHxh4Z3YewWqHtO02Z/dFy3p3warbXb++8PO1/i23XxCdbPeRwv/7us1/pPa6NLaFWtGRB3v6oNV8MXWJLGKVUM7gSG35M/pW8o/PWLfb2xe2/HODrcStx93TFO78XQ2Z2wdXVxe62tXee8iqksaKIs9R6vBJfDFsCYDcHUPnBALb/sp+ZHy6jdPlieHi7ZzlZv+3n/WnOEen1vR31s28fa+Qv5GMr92b9UYz5vhffTfnV7nXH3rmnYNF8tvJ/bjiCl48Hz79RP3mCAV7p3Zgmbes6XIaVczfZzsODvnzD7n3oWxyNrS6dvs6orjPxyudBnUZVWbdkZ5Z+pJ0r3zBaMm0dnyzvy2e/DiCgckkS4hKZ/8kanmz1EKMXvk3IlA58+t4CXN1dOH3oIl2GtFCyKJN2/36YEv5FcHV3xc3NlYDKpegzvi3bf9lPYnwSY77vxcfL3mXx1N8wGAy0facpjz1bk5ffbpSmro3L/8SngBcTl/floSercO74FdsvLmOj4xm7uDfvT+vID9PXU+Ox+7i/hj+9x7VNM8h468MXGfDSpwx8aTKLP19rewR525p9xEbHM2lVf7qNfJFfFm3HarFiNBqYuLwvk9e8x5aVe7lxJQIXFwNnj12h15hXGPNdL1Z/vQWrNXM3sTPr3NHL3F+zXKpp3vk98fByB5Jf29CqWwOm/jYQo9HA4d2nCb8WSe2GQUxc3pfRC3vy1YhlALi6u2AxW5i0qj8v92xE1YfLpzoxATzR8kG2rNwLQPi1SKLCY6lYvQyfvjefAVNf56NFPanfvBYLP/3Z4bHQfeSLlAwoyoCpr9um2dvWkWExqWISAShQ2IdCfvm5cj4sw/0/MxITktj+834q1wpINd3oYqRsxWIMnv4GzdrX47u/98kl09YRurg3oUt6Ex+XyPZfDtit12g0UjKgKP0nv0bDF2uzbsnOLJUXERHnOnvsMpVqpb7GFPIrgMFoYOvqfYRdieTjZe8SurQPc8etIOpmLEYXA2aTmT7j2/LuhFf5Yfp6IGvXhAWfrCH4uZpMWtmPOo2rseOX/Q77ZSn7SY7qmz/pZ55/oz4j5nWnVGDq/m5x/yJMXN6Xhi89zLolOx32aR21by/W+RNX83DDIEKX9Obtj1rz6XsLbOsgMKgUg77ohJe3OwmxifSb1J77avqz+/dD2bz1sk9G126ji5Fzx6/Q9p2mfLSoJyvnbSH4uVoMm92VE/vPE3Ej2u56Ajhz+DKDp7/B5+veZ+W8zVitVq5fuslr7zXj42Xv8kL3hiye+huAbYzUf/JrPN3uUZ7r+HiOJIsAzp+4StmKxfHwdEs1vXLtQM4cvmhb5ld6NeGDOW/ind+TLWv2OezPOzou7I2vIe2Y7RbfIvls48A+49o6HMc5qsPeeCWlrO6jk/rPJ+Sz1/ns1wHERsdz9mjyK2sye1y5/T1WCl3cm+c6Pm5bnviYBGIi4/h42btMXN6XxITkHzH+ufEINYPvJ+JGNN999gufrOjLhB/fZe33f9he03UnbXcb8QL5fb1zLFkE6Z9PASxmC2/873nmhq4gKcGU5frtbQt792og42PJ3lg1K/cA7J0vs3rNuOXUwQt294X0pLzH4VPAK8fGHhmNwywWC03b1uXonjOcPnwpW+t3dF5OeU1s9WYDh/v1ueNXqFi9bKpplR8K4MwR+3FuWrGHSg8GAI7PW7fY2xcjw6J5/4tOTPipL8VKF2Lzij0Ot21G5ykRyV1rF/9B5b+Pf0fXlWlDFjPi67cYOqsrifFZv4bZO0c46nun18++faxhj6PrTkbnnrNHL1PptnOywWCwJcfsLUPK87Cj+9C3OLpOLpi0huadHmfc0j7ERMZhNGYtBZSjTxjd+vXFI42r0vf5iTzZ8iGebPUQHl7uHNp1mr2bj7Hsq/UAxEUnAMmdH3sdV/nHLwu3sfv3w1itVgr5FWDw9Ddsf7v1K5JDu06za/1h27elzGYLV87dSLfe04cvUe2RCgA8+ERlPL3/uXFc6/Hk18n5lS5EdERsuvXUf/5B6jSqyp5Nx9jxy37erP8hI795iyN7ztriq/ZIBVtbXvk8GPHGV7h5uHHzepTtPY731/THYDTgYjTg6eNBQlwint4emV5PGTGbLem+x7doyYKUrVgcAL/ShYm6GUvFB8py6uAFPnj9S1xcXYgMj7bNX/WR9F+xUqV2IOdPXCE+NoHNK//iiZYPYjZZOP7XOUZ1nQFAUqKZ0uWTX1WR2WMhvW2dUUyS9xgMBrBaM9z/09Or6TiMfw9SH29ei8eerUF0RFyqeSo/lPyqlwrVy/Lrdzs4eeACl85ep3/LTwCIiYqnUq1yFC1R0G4blf5OQhUsWoAT+887LC8iIncfs8mC2cE15uieM9QMvh8AD083ylUqybm/329+6wcIBf3yp+pvZvaacGTPGZq9/hgAL3RLfr1qet+rudVPclTf6UMXefGthgA8UO8+1ny7zVb2Vt+4WOnCnNh/HoPR4LBPa4+9WH+avZFnXkueVrF6GS6evmb7wVT5qmUAKFAkH4FBpYDkJEBMZNztVee61d9uZduafbZ/37gSQZ2nqmbq2l+0hC++RZJ/hZnP14vyty2bvfX0x28HCKoTiLtHclLGO58nCXGJFC1ZkJmjfmTl3M3cvBFFgYL//Do0t16F6Kh/lfyap+SBerHShWxPi1SsVpazRy5jMpkd9uftHRf2xteQtTGbI7fXkd54JaXM7qNmk4Xrl27a6kj5qqqsHFf31/JP9ZQTQNn7S3DjcgSjus7ksWYP8PSrjwLJv+599vVgTh28SECV0ri6u+Lq7sqY73tlW9s5Jb3z6S1+pQrxePNaLPliLeWrlk71t0/6zcczxXfGBk7raLuB52hbOLpXA1k/lrJ6D+B2d3LNAMf7Qmbl5NgjM+Mwg9FA12Gt+GLoYobP65bqb+lt04zqT2+5MnPvwJxkxnrb2yisVlK92nXywEXJ30yyWLmvRll6ftQacHzeAsf74o3LEXwxbDFubq6cPnwR//tL2N22mT1PiUjOunWv6MaVCCrVLMd7U14D7F9XTElmom/GUrxsYQAeqFeRq+fD0tR5+tClVN9MjImMo16z5B8rFC1ZMM05okQ5+/dRj+w547CffftYw5HbrzuZOfeYTRYslvTvPd++DCn5Fs3v8D40OL5Onj58idY9GwPw6NMPsHNt1n5kli0JI+/8nkSGp75Ah1+Lsj16/u7Edpw+fIlta/bRq2kon/0yAIMh+d2r99Xwt5VJTEjCzeOu/azSXaPxK3Udvn/51vozGKB5p2Be6pH6SaLzJ646rNdqtaZ6xDrl/7u4uqSaLz1RN2PJX9Cbuk2qUbdJNcpVLsnPC7ZTsGg+LObUZU8euMCqr7cw5ZcQ3D3c6N7gn4+Z3Z79zOYHjAioUor9204Q/FzNVLFfPHWNwKBSqZb5VgAr5mwiMT6JD+a8SWx0PO1q/s/2Zzf31L8khOQs+sp5m3Fzd2Xm1qE80qQ6O9ceYtPyPXQb8QIGA7h7ujHhp76pymXlWHC0rdf/sMtuTJJ33bweTWRYDMXKFE53/095gbp9HwaYvOY923tpHbk1kLg1WDEYoMpDgXz47Vup5tu8Yq/d8kaXf84/yecm++VFROTuE1ilFPu3HefRp/95PdCpQxcpcOv1DinfEGO1Jl8kSH7i5J/J/3T8MntNWLdkZ5q+Znpu9ZMc1bf2+z/g7+puf13rrVf73IopvT6tPVar1W6st7/tyGBbNyn65anWU7rN5IqnX3001dhk7NtzgMxd+1Nu89v/bbU6Xk8uLqn76VYrTBu6mCdbPkSDF2qzdfVf/Dz/nwRfbo0x/e8rwbnjV4iNjsc7n6dt+pHdp2038lPuSxaLBYMh/f68vePC3vgasjZmA9iz8Sgfv/M1AMNmv2m3Dkfjldt/LJTePpqyPzl94/8cHqdZOa7sjXM8PN2Y+usA9m8/we/LdrNi7mbGLe3Dsb/Oct8DZdm7+ZjDG+n/tu2ckuH59G9t32lK9yc/okNIs1TTM/rejaPz0O33am7J8rFk5xjO6vkyq9cMcLwvpLzHYTY5voGXk2OP9MZhKZNSDz5Rme+n/sbu34+kKp/RNk2vfkfLNX34Urv79e3niHKVS3Jo1ykeqHefbZ4ju09TPuifRGWvMa3txmfvvJXytU/29sWPus3is18HUKxMYab9LzlJZm/bjv2+l93zVII5/Y/Ki0j2unWvaPmcTezbesz2HTZ71xVTkjlV2duT0bcEVCnJ52vft/17zbdbbT8Is3eOSE9m+tnp9Z9uv+446iOlFBhUil8WbU8zfee6Q9RuUCXDZUjvPvQ/C5Li//++TlpTXC/v5HWq2fJKujLli5EQl8ju3w8Dya8fWD57I482fYDoiDi++XgVAZVL0qZPE/zvL8nF09ep/FAgW1cn/xLt8pnrfDthdXaEIn+r8lAg237ej9VqxZRkZsrARRn+iqVsheIc2X0agL2bjxEXm5Du/AajgaTE1I92X790ky6PjeTahXAg+YA/fegiJQOKUqlWOXatT85onth/ntHdZnHzehRFSxbE3cON4/vOc+HkVUyJWX8M8U40e+0xflm0jT9+S360PDY6nnE957Jv6zGHZSJuRFGqfPI77Ncu3mn3hGY0Gkj8+3UAbd9pyrxdI2w32p9o8SAbftxN+LVIAquUwuhipHT5YuzdnNzm5pV7U/1CMzPuZFtL3hMbHc/HfebR6s0nMboYM73/374PZ9ZfW5LrOfLnaQKqlCIwqDTH/zpH1M3kHxfM/2QNF09dy3R9/7a8iIjknhe6N2TakCVcOJl8nr50+jojOk7n+qWbVH4wgL2bjgLJ37A5c/Qy5W77JV1GHF0TKtcKYNe65L7m8jmbWPrlulT9spjIOC6fTfvEvaP6yt5XgsO7TgOwa93BdGNy1Kd11L69WCs/GMCev9fNkT/P2J50v1dlx7Xb3npy5Ob1aEoFJv+qc8OPf5J0240ISO6nJ+XgWCOfrxePPVODT99bYHs92KFdp1j59Rae7ZD8HdPrl25y6fR1AA7vPkNA5VJZ6s87Gl9nxa1xXM3H72ferhHM2zWCitXL2J03O8YrKfuTLq5G/EoX5Phf5wAY32seh/8eg94us2PFW8tzdM9Zfl+2mwfq3cfbo1/m3LErXLsQTtGSBTG6GClftTTH/jpLfGwCCfFJ9Gn2scOxZ2bbNpvN2f7q9JTSO5+m5OXjwcs9G7Foyi+ZrtvRtsjMvZrMHktZuQeQ8nx5y51eM+ztCwA+vt5EhCX/OvvIn2fSlLu1L+Xk2CMr9yG6jXiBWaN/TJNcv9P6M7tct/br288RL3RryGfvL7LtfzeuRDBtyGJe7PFUujFldN6yty8e2HGSpEQTRUsWJCYyjp3rDmJKMtndttlxnhKR7PPsa49x7tgVW57A3nXF1c0Fr/yetr7xznVZewLGlGS2e46wdy0BcqSfnZlzT43H7sditvDNx6uwmC1YLVa++XgVP0xf73AZ4J/zcEb3oR1dJ8tULM6RP08DyZ8yyaps+amVwWhg+NxuTOz7LRP7fovBaODFbg2pVT/5se6bN6Lp1SQUV3dXSpcvxv01/CkVUJRxvebRr8VEEuNNdBveKjtCkb/VaVSV3b8fps8z47GYrTRu80iGnYz6LWrx63c76Nt8AlVqB1KsdKF033FYM/h+Puo+m8FfvmH7JUzRkgXpNfYVhrSfhtViwWKxUr1uRV7s1gAXNxf+WHuQHk+NAaDP+LaUDyrNNxNW0a/FRAKrlOalHk8x5f3vaN/v6exbGQ6U8C/CyG97MO1/3/Nxn2/w9Hbnmdce46UejRy+4/ipl+swqssMdq49SIMXalPxgbLMHPVjqnnKVCjOueNXmNR/Pn3Gt031t6p1yjOq60yeaVfPNq3vJ+34NGQhrm5GjEYj73/RKUvLcSfbWvKOHk+NwWAwYDFbaNKmLm3fbQqkv//HxaSfLM6MU4cuEvLCp8TFJDBkRmcKFPbhzeGtGPjSZNw8XClbsTgl/Itw6uDFTNXnqLyIiNx9nmjxIPExCQxu8xlJiSbyF/Kh+4cvUqlWOaxWK3+sPUj/lp+QlGCi8/9a4FPAK0v1O7omtHmnKWN7zGbt4j/wzu/J0JldMBiNtn5Z7QZB/Lpoe5rvMjisr09jRnWdya/f7aDSg+XSfZ1E9boV7fZpR83vYbd9e7GazVbG957HlpV7SUoy03tcmzta/3eLf3vtB+yuJ0fJhVZvPsn43vMo5FeAl3o8xcS+37Jl1V+p5qlSO5BRXWfiW8SHZ9o/9m8Wz6E+49sy48NlvF5nGEYXI0VKFGTY7K4UL1uY6Ig4SgUU5ZuPV3Hx9DV8i+TnkSbVcHVzyXR/Pp+vl93x9YYfd2c6RnvjuPT82/HK7d75+FU+6Tcfk8lMlYcCHMbg6Li6fax4a3n6TniVXxZu58eZGzAlmWn7blP+3HCEmsHJ9yV8i+Sjfb9mvPPsBCxmCy90a4iru/1bIpltO6h2ID2eGsPkNSE58pq69M6nZ/9+NdstzdrXY+kXa7NUv71tUTrQL8N7NSmPpfTUbVo90/cAUp4vb22XR5pUu6NrRqlAP2Z/9FOqfQGgVdcnGPvWHCo+UBZPb/c0N95SHhs5NfZIbxx2u3KVSlLloUD2bDxip6Y7qz8zy+Vov278yiMkJZp4r+UkkpJMuHu40aZPE+qn+AC7PY7OWyndvi8GPRzI06/Wo88z4ylUvADt+j3DrNE/UjO4UprjHLL/PCUid85gNNB7XBs+6jab6ZsG07ZPE7vXlTeHtWJwm88oXrYIxcoUdviUkT2ubi4OzxH27sm26dM0R/rZGZ17XFyNjPm+F5PfW0Cb6oNw93SjZnAlBk9/w+Ey1Humhu08HDLldca8NcvhfWhH18lXejVmdLdZ/Dx/G1XrlE/1JHVmGKwZ/Bxm0815JFrvzsc4fV2K81CB/36iafX1ibi7ZG0gfSduXIng8K7TPNasBjevR9P7mXHM/WN4jrebVSZrAg/4PEMJN+r5vgAAIABJREFUj/szXeZc/D4Ox/6Oi0GvPLRiJcDjISp413F2KJLNttz8hnhrlLPD4M36oxjzfS/bR/xyhRUaFu6ee+2JiIjN9ohFxFjSvnNccleSNYGa+Z6juHuFHGvjt7DP7+i1Fnez3BxbREfE0bPxWGbv+CCLUcq9KMkST9Mi72SpzNqwL8BwF7xrUtJlxUKg58OU93o402XCks6xI/J73I05f29HkiWYY3iqcA+tc5Ec8vONybga9SmMu9Hxv85hMpmp/GAAW1b9xcblfzLgs9cBcDf4EFzwtXTL6+652OQr4MXqb7Ywf+IarFYrPUa97OyQREREREREREREREQkEzy83fnkrTm4uLng4mKg36T0E0S3U8JIbDy83Bn5jT4oLyL/zpcbBjs7BBEREZG7Tj5fLz1dJCIiIiI5qmzF4kz5JeSOy+tDJyIiIiIiIiIiIiIiInlchk8YPVSgBXujVmZLYxGmK7jgSj7Xf/+xQAPkie8XAQR61yY86YKzw+Bq4gkKuZXBzeDh1DiMuGbpHeMAZT2rcynhMBbMORRV5lyMP0QpzypOjcGAUd8v+o+qXaAVu6N+zHjGHBBjDiPJkkBBt5JOab+id12ntCsiIvBQgZbsjFzi7DD+lfCkC3gYffB2KejsUO6YEdcc/X4RwAP5mnIibkeOtgGQaIkjwnQFP/eAHG/rXh5b3E1uJJ7Fx6Uwni75nB3KXaOoh3+Wy9TI34xjsZtzIBrnCUs8h7dLQTxd8js7lGxjxJil7xcBFHYrSxFXf8wk5VBUOcNqtXA58SglPSo7O5QsK+hSUt8vEslBVXye5ELCAWeHke0sVhNXE09muX94r6iRv1mG8xisVmuufVHxZNwfeBi8Ke1ZNbealGy0O3IZlXzq4+NSyNmh3LM2hc/lsULtMejhPvmPuZhwiDhzBBWUuBERkXvQ0ZhN+LqVoLh7RWeHIkCk6Sqn4nZmakArd4cD0b9S0qMyhd3KODsUucscjF5LcY+KFHHLegJNnM9sTWJ7xCLqFWzn7FBERHJFoiWWP6OW84hva2eH4jS6ay0iIiIiIiIiIiIiIpLHKWEkIiIiIiIiIiIiIiKSxylhJCIiIiIiIiIiIiIikscpYSQiIiIiIiIiIiIiIpLHKWEkIiIiIiIiIiIiIiKSxylhJCIiIiIiIiIiIiIikscpYSQiIiIiIiIiIiIiIpLH3RMJI4vFwoQJE3jttdfo2LEjHTp04K+//gJg79693LhxI9N1ZXX+jFitVjp37ky/fv1Yv349o0ePJjo6mg4dOjgsk5iYSMuWLe3+be3atdkWm4iIiIiIiIiIiIiISGbcEwmjdevWcfXqVebOncvs2bN57733+OqrrwBYsWJFphNAFoslS/PfXtaemzdvEhUVxccff2ybli9fPubOnZvlNq5fv86KFSuyXE5EREREREREREREROTfcHV2AJkRExNDUlISVqsVg8FA9erV+fTTT9m9ezdr167l+PHjjBw5klOnTvHVV1/h7u5Ovnz5+Oijj9i+fTsrVqzg5s2bNG3aNNX8pUuXBiAiIoIuXbrw6KOPcvnyZaxWK6NHj2br1q22sn369MHV1ZVJkybh4uKCq6srQ4YMYcKECVy+fJlhw4bRoEEDAKKioujYsSOLFy9m8+bNTJkyBT8/PypXrozJZKJ79+4YjUbGjh3LgQMHyJcvH5MnT2bcuHHs27eP6dOn07VrV9vy79ixgy+++AKj0YinpyejR4/GZDIxYsQIoqKi8PLyYtSoUXh6ejJ06FDCwsKIj4+nY8eONGzYkEmTJmEymUhKSuLgwYN06dKF+vXrO2VbioiIiIiIiIiIiIjI3eeeSBg1adKE1atX07JlS4KDgwkODubRRx/lwQcfpEqVKvTq1YvSpUuzZ88eRo4cSdmyZRk7dizr168nf/78nDhxggULFuDq6sq6dets899iNBo5c+YMU6dOxc/Pjw8++ICNGzfi6emZquwbb7zB2LFj8fPzY/ny5cydO5d33nmHEydOMHz4cNavX58m9okTJ/Lpp59SsmRJunXrRvXq1QG4cOECbdq0oVy5cvTs2ZMDBw7Qvn17TCZTqmQRwIIFC+jfvz9VqlRh06ZN3Lhxg6VLl9KgQQOef/55FixYwObNm6lVqxZ169alZcuWhIeH07lzZxo2bIjRaMRsNjNw4EAOHz7M5MmTlTASERERERERERERERGbeyJh5OnpydSpUzl9+jTbt29n2rRpLF26lHHjxqWaz8/Pj0mTJuHm5saJEycIDAwkf/78BAUF4eqa/qIWL14cPz8/AO6//35OnTpFlSpVbGXNZjNHjhxh8ODBAJhMJsqUKZNunSaTidjYWEqVKgVAcHAwERERABQrVoxy5crZ2o6MjMTX19duPY0aNWLIkCE0bdqUxo0bExAQwKFDh2jVqhUAbdq0ASAhIYHjx48TEhKCq6urrS2AoKAgAAoXLkxUVFS6cYuIiIiIiIiIiIiISN5yTySM4uLicHFxISAggICAAF5++WWaNWtGWFhYqvmGDBnCnDlzKFGiBBMnTrRNd3Nzy7CNlN8oslgsGAyGVGUNBgMeHh58+eWXqcql9z0kq9Wa6t9G4z+fjHJxcUl33pSaNWtGnTp12Lx5MyEhIQwYMACr1Zrmu0pLly4lMTGR0NBQYmNjad68ud2202tLRERERERERERERETyHmPGszjfJ598wldffWVLdFy4cAGDwYCvry8Gg4HExETbN3qKFStGdHQ027ZtIykpKU1dt+a/3bVr17hw4QIABw8epHz58qn+bjQaKVu2LLt37wbg999/Z+PGjenG7ebmhpubG1evXgVgy5Yt6c5vNBrtxvzVV1/h5eVFixYtaNGiBQcPHiQoKIht27YBsGTJEhYuXEh4eLjtqafVq1crMSQiIiIiIiIiIiIiIplyTzxh1Lt3b8aOHcsrr7yCm5sbHh4efPjhh7i4uFC7dm2GDh3Khx9+SPPmzencuTNFihShc+fOfP7553Tq1ClVXSnnv/WaNoDSpUszY8YMzp8/T6FChQgODmbHjh2pyg4ePJjQ0FBcXV0xGo2MHDkyw9jffvttevbsSZkyZQgMDEzzZFFK/v7+nD59mjFjxjBw4EDb9FKlSvHWW2/h5eWFq6srI0eOxGAwMGzYMNasWYOPjw9jxowhLCyMQYMGsW3bNpo0aUKlSpWYOnVqZleziIiIiIiIiIiIiIjkUQZrLj6GcjLuDzwM3pT2rJpbTWZKVFQUHTt2ZPHixdle94YNG6hcuTLFihVjwoQJ3HfffaleFXcv2R25jEo+9fFxKeTsUO5Zm8Ln8lih9hjujYf7RDLtYsIh4swRVPCu6+xQREREsuxozCZ83UpQ3L2is0MRINJ0lVNxO6mRv5mzQ5FMOhD9KyU9KlPYLf3v/EreczB6LcU9KlLEzd/ZocgdMFuT2B6xiHoF2zk7FBGRXJFoieXPqOU84tva2aE4zT3xhNG9zGQy8c477+Dj40PhwoXp2bOns0MSERERERERERERERFJRQkjIH/+/DnydBFAw4YNadiwYY7ULSIiIiIiIiIiIiIikh30XiwREREREREREREREZE8TgkjERERERERERERERGRPE4JIxERERERERERERERkTxOCSMREREREREREREREZE8TgkjERERERERERERERGRPE4JIxERERERERERERERkTxOCSNJ38yZHJu0g8irzg5ERERERERERERERERyimtuN7hj85/4mC/kdrNyhyodOED+CWM5/PlLuH5UHp53dkQiIiIiIiIiIiIiIpLdcj1hVKN2VUp5VMntZuUOeZ46xb4uIynV93kul/jZ2eGIiIiIiIiIiIiIiEgOyPWEkYeHO56enrndrNypbt2o3i35f69GWp0bi4iIiIiIiIiIiIiI5Ah9w0hERERERERERERERCSPU8JIREREREREREREREQkj1PCSEREREREREREREREJI9TwkhERERERERERERERCSPU8JIREREREREREREREQkj1PCSEREREREREREREREJI9TwsiJEhMTGTduHM8++ywvvPACXbt25fDhwwBMnjyZlStX3nHdUVFRvPjii1kut379ekaPHu2w/O/rNt5RPGvXrr2jciIiIiIiIiIiIiIikvOUMHKiyZMnExUVxdKlS1myZAndunWjb9++xMbGOjs0h+bPW5TlMtevX2fFihU5EI2IiIiIiIiIiIiIiGQHV2cHkFfFx8ezYsUKfvrpJ9zd3QGoXbs2c+fOxdvbG4B9+/axcuVKzp8/T9++falfvz5r1qzhhx9+wGg04u/vT0hICAChoaEcPXoUi8XCgAEDKF26tK2tgwcPEhoaytSpU211A8yYMYNNmzZhMBioXbs2PXr0SDfmtUv/4PjR44SEhBAaGmo3lmvXrjF06FAMBgOxsbG8//77zJo1i3379jF9+nS6du1qqy88PJwRI0YQFRWFl5cXo0aNwtPTk6FDhxIWFkZ8fDwdO3akYcOG7Nixgy+++AKj0YinpyejR4/GarUyatQo4uPjiY+Pp3fv3lStWpV58+bx+++/k5SURNWqVW3rSERERERERERERERE7FPCyEkuXLhAyZIl8fHxSTW9aNGitv+PiYlhypQp/PXXX3zxxRfUqFGD+fPnM3PmTIxGI8OHD2fz5s1YLBZiYmKYMWMGe/fuZeXKlbbEzLVr1/joo48YP358qmSRxWLBYDDw5Zdf4ubmRuvWrWndunW6MTds9TBrvtlOaGgoERERdmM5e/YswcHBtG/fnpMnT3LlyhXat2+PyWRKlSwCmD17Ng0aNOD5559nwYIFbN68mVq1alG3bl1atmxJeHg4nTt3pmHDhixYsID+/ftTpUoVNm3axI0bN/jxxx9p3LgxjRo14uLFiwwcOJC5c+cyf/58li9fjtFoZPHixcTHx+Pp6flvN5mIiIiIiIiIiIiIyH+WEkZOYjabsVgs6c7z8MMPA1CiRAmioqI4duwYFy9epHv37kByQikoKIiwsDBq1KgBQI0aNahRowZRUVEkJSXRr18/unXrRvHixVPVbTQa8fHxYeDAgXh4eBAeHk5ERESm43cUyyOPPELfvn25fPkyDRo04NFHH2Xfvn126zh06BCtWrUCoE2bNgAkJCRw/HjyU0yurq62mBo1asSQIUNo2rQpjRs3JiAggP3797Nr1y4WLUp+Td6tV/kFBwfTvXt3GjVqRJMmTZQsEhERERERERERERHJgBJGTlKmTBkuXbpEeHg4hQoVsk3/888/qVq1KgAuLi626VarFYPBQLVq1ZgwYUKquqZNm4bZbE7TxvXr13nyySdZtGgRwcHBqf527Ngxli1bxuzZs3F3d6d9+/ZZit9RLAALFixg+/btzJo1iz179lCnTh27dVit1jRJs6VLl5KYmEhoaCixsbE0b94cgGbNmlGnTh02b95MSEgIAwYMAOD999+ncuXKqeoYNGgQJ0+eZOPGjXTq1Ik5c+ZQoECBLC2fiIiIiIiIiIiIiEheYnR2AHmVt7c3zZo1Y+TIkbYnY7Zu3cqIESMwmUx2y1SsWJHDhw8TGRkJJL/S7fz58wQFBbF9+3YAjh49ypAhQwAoWbIkffv2xcfHh2XLlqWqKzw8HD8/P9zd3Tl69Cjnzp0jKSkpw7jNZjNWq9VhLKtXr+bMmTM8+eST9OzZk3379mE0Gu3WHRQUxLZt2wBYsmQJCxcuJDw8nDJlygCwevVqrFYrAF999RVeXl60aNGCFi1acPDgQapVq8aGDRsAuHjxIjNnziQqKoqZM2dSvnx5Xn/9dQIDAzl//nyGyyUiIiIiIiIiIiIikpfpCSMn6tu3L1OnTuWll17Czc2NMmXKMGnSpFTfGkrJ19eXPn360KtXL9zd3SlXrhylSpWidOnSbNu2jQ4dOgAwcODAVOUGDBhAp06dqFOnDiVLlgSgZs2azJw5k+7du1OhQgXatWvH+PHjM3zSqGq1KnTo0IFZs2bZjSUmJoaxY8fi5uaGyWSiZ8+e+Pv7c/r0acaMGZMqto4dOzJs2DDWrFmDj48PY8aMISwsjEGDBrFt2zaaNGlCpUqVmDp1KgEBAbz11lt4eXnh6urKyJEjcXV1Zfjw4XTv3p3ExER69+5N/vz5CQ8Pp1OnTri5uVG2bNk0TyCJiIiIiIiIiIiIiEhqBuutRzhywcm4P/AweFPas2puNSnZaHfkMir51MfHpVDGM4tdm8Ln8lih9hj0cJ/8x1xMOEScOYIK3nWdHYqIiEiWHY3ZhK9bCYq7V3R2KAJEmq5yKm4nNfI3c3YokkkHon+lpEdlCruVcXYocpc5GL2W4h4VKeLm7+xQ5A6YrUlsj1hEvYLtnB2KiEiuSLTE8mfUch7xbe3sUJxGd61FRERERERERERERETyOCWMRERERERERERERERE8jgljERERERERERERERERPI4JYxERERERERERERERETyOCWMRERERERERERERERE8jgljERERERERERERERERPI4JYxERERERERERERERETyOCWMRERERERERERERERE8jhXZwcg9yar1UpSUhJmsxkANzc3XF21O4mIiIiIiIiIiIiI3It0h1+y5I/tu7DEG4mLi8NqteLi4gJAUlIS+fLlo0iRIvj5+VGqVCknRyoiIiIiIiIiIiIiIpmlhJFkSUBgOYr5lsbb2zvN32JiYrh69SrHjh3jzJkzBAUF4evr64QoRUREREREREREREQkK/QNI8kSv2JF7SaLAHx8fAgMDOSJJ56gWLFi7N+/P5ejExERERERERERERGRO6GEkeSIChUqEBYWZvvGkYiIiIiIiIiIiIiI3L2UMJIsiw7PeJ7Dhw/j5+dn+8aRiIiIiIiIiIiIiIjcvfQNI8m0q8vdMP7+I6Zd53hgSwju7u62v5lMJiIjI7l27Rpnz56lUKFCVK9e3YnRioiIiIiIiIiIiIhIZilhJJlmSXDBfdtO8p86yO+/P0JiYiJmsxmDwYCbmxs+Pj4UKVKEmjVr4ufn5+xwRUREREREREREREQkk5Qwkkwr8WI85TqM4K/2v9O4cWOsVqstYaRXz4mIiIiIiIiIiIiI3LuUMJIse3R+SwAMBgOurtqFRERERERERERERETudUZnByAiIiIiIiIiIiIiIiLOpYSRiIiIiIiIiIiIiIhIHqeEkYiIiIiIiIiIiIiISB6nhJGIiIiIiIiIiIiIiEgep4SRiIiIiIiIiIiIiIhIHqeEkYiIiIiIiIiIiIiISB6nhJGIiIiIiIiIiIiIiEgep4SRiIiIiIiIiIiIiIhIHnfXJoy2bt1K7dq1OX78uG3a+vXrGT16NFFRUbz44otpyqxdu/aO2rrTcv81zZs3JzEx0dlhiIiIiIiIiIiIiIhILrtrE0arVq2ifPnyrF69OtNl5syZk+V2rl+/zooVK7JcTkRERERERERERERE5L/C1dkB2BMXF8emTZv45JNPGDRoEG+//TYGgyHdMgsXLuTo0aOEhIQQGhrKmjVr+OGHHzAajfj7+xMSEsK1a9cYOnQoBoOB2NhY3n//fWbNmsW+ffuYPn06Xbt2tdUXHh7OiBEjiIqKwsvLi1GjRuHp6cnQoUMJCwsjPj6ejh070rBhQ+bNm8fvv/9OUlISVatWJSQkhMjISEaNGkV8fDzx8fH07t2bqlWr2p03pVdeeYXGjRtz6tQprly5wogRIyhVqhQzZsxg06ZNGAwGateuTY8ePbh69Wqa5SlcuHCaaZUrV7a7PpKSkhg0aBAJCQn4+/tjsVhyZHuKiIiIiIiIiIiIiMjd7a5MGK1bt45atWrxwAMP4Ovry549e6hVq1a6ZV555RVmzJhBaGgoERERzJ8/n5kzZ2I0Ghk+fDibN2/m7NmzBAcH0759e06ePMmVK1do3749JpMpVbIIYPbs2TRo0IDnn3+eBQsWsHnzZmrVqkXdunVp2bIl4eHhdO7cmYYNGzJ//nyWL1+O0Whk8eLFxMfHM3v2bBo3bkyjRo24ePEiAwcOZO7cuXbn9fT0tLXr4uKCv78/Xbp04aeffuLrr7+mf//+GAwGvvzyS9zc3GjdujWtW7fm119/TbM8u3fvTjPN0fqIjY2lQIECDB06lJMnT7Jo0aIc2Z4iIiIiIiIiIiIiInJ3uysTRitXrqRly5YAPPPMM6xatSrDhFFKx44d4+LFi3Tv3h2AmJgYgoKCeOSRR+jbty+XL1+mQYMGPProo+zbt89uHYcOHaJVq1YAtGnTBoCEhASOHz9OSEgIrq6uREREABAcHEz37t1p1KgRTZo0wdPTk/3797Nr1y5bEiY2NtbhvLerVq0aAJUqVWLVqlUYjUZ8fHwYOHAgHh4ehIeHExERYXd5ihUrlmbazp077a6Pa9euUbVqVQDKly9PwYIFM72ORURERERERERERETkv+OuSxjduHGD3bt3c+3aNWbOnElSUhJhYWG89957ma7DYDBQrVo1JkyYkOZvCxYsYPv27cyaNYs9e/ZQp04du3VYrdY0r2hbunQpiYmJhIaGEhsbS/PmzQEYNGgQJ0+eZOPGjXTq1Mn2LaVbr4NLyd68BQoUSNM2gNlsBpITYMuWLWP27Nm4u7vTvn17ACpUqJBmeTp37pxmWs2aNe2uj6lTp9raAvRKOhERERERERERERGRPMro7ABut3r1ap577jkWLlzIt99+y3fffUeVKlXYunVrhmXNZjNWq5WKFSty+PBhIiMjgeTXy50/f57Vq1dz5swZnnzySXr27Mm+ffswGo0kJSWlqSsoKIht27YBsGTJEhYuXEh4eDhlypSxxWm1WomKimLmzJmUL1+e119/ncDAQM6fP0+1atXYsGEDABcvXmTmzJkO573d7t27ATh48CAVKlQgPDwcPz8/3N3dOXr0KOfOnSMpKcnu8tib5mh9BAQEcODAAQAOHz5se2JKRERERERERERERETylrvuCaOVK1cyePDgVNNatGjBypUrefrpp9MtW716dTp06MCsWbPo06cPvXr1wt3dnXLlylGqVCliYmIYO3Ysbm5umEwmevbsib+/P6dPn2bMmDEMHDjQVlfHjh0ZNmwYa9aswcfHhzFjxhAWFsagQYPYtm0bTZo0oVKlSsybN4+4uDg6deqEm5sbZcuWpXLlypQpU4bhw4fTvXt3EhMT6d27N/nz5yc8PDzNvLc7ceIEb7/9NnFxcYwePZrChQszc+ZMunfvToUKFWjXrh3jx4/nvffeS7M83t7eaab5+vraXR9+fn78/PPPvPnmmwQEBODv76+njERERERERERERERE8iCDNeU7yXLYybg/8DB4U9qzam41ec959dVXmTx5MkWKFHF2KGnsjlxGJZ/6+LgUcnYo96xN4XN5rFB7DHffw30i/8rFhEPEmSOo4F3X2aGIiIhk2dGYTfi6laC4e0VnhyJApOkqp+J2UiN/M2eHIpl0IPpXSnpUprBbGWeHIneZg9FrKe5RkSJu/s4ORe6A2ZrE9ohF1CvYztmhiIjkikRLLH9GLecR39bODsVpdNdaREREREREREREREQkj7vrXkmX13377bfODkFERERERERERERERPIYPWEkIiIiIiIiIiIiIiKSxylhJCIiIiIiIiIiIiIikscpYSQiIiIiIiIiIiIiIpLHKWEkIiIiIiIiIiIiIiKSxylhJCIiIiIiIiIiIiIikscpYSQiIiIiIiIiIiIiIpLHOSVhFBsBB2aegaQkZzQvIiIiIiIiIiIiIiIiKbjmdoPnZ4cTNud/eGxbx5b7xmA16iGne8Vl93NUetDZUYiIiIiIiIiIiIiISHbL9YQRNUpAxXIkHi1L0SJFsLq45HoIcmeuRiu5JyIiIiIiIiIiIiLyX5TrCaMytRIoPa8r0DW3m5Z/KSbysLNDEBERERERERERERGRHKBHRkRERERERERERERERPI4JYxERERERERERERERETyOCWMRERERERERERERERE8jgljERERERERERERERERPI4JYxERERERERERERERETyOCWMRERERERERERERERE8jgljERERERERERERERERPI4JYxywKBBg3juuedo3bq17b8NGzbkSFsdO3bk6tWrd1R27dq12RrLlClTWLt2LVarlc6dO9OvXz82bdrEhAkTsrUdERERERERERERERHJXq7ODuC/asCAATz++OMAXLhwgU6dOrF8+XLc3d2dHBlYLBaMRiNz5syhYcOG2VZnz549AQgPDycqKooZM2YAEBwcnKW4REREREREREREREQkdylhlAtKly6Nr68v165d4/Dhw+zatYuQkBAAmjRpws8//8ykSZMwmUwkJSVx8OBBunTpQv369VPV8+OPP7JkyRJMJhNt27bl2WefBWDJkiXs3r2biIgIJkyYgJ+fH0OHDiUsLIz4+Hg6duxIw4YNmTBhAnFxcZw8eZImTZpw9OhRQkJCCA0NtbWxYcMG1qxZw6hRowCYOnUqBQsW5LnnnuOL4d/jlrSGpAQzvXv3pmrVqrRr1466desSExODm5sb1atXZ+PGjVy+fJlhw4bRoEEDtmzZwqBBg1izZg0//PADRqMRf39/QkJC2LhxIytWrODmzZv06dOHoKCgXNoqIiIiIiIiIiIiIvJ/9u48zsby/+P4+5w558xk7JqhGbuxT/gyZf3aKYpSkpgsDZIsUZYU0ZStsqYihAh9IwpRUhgiZGfCzCDGbvb9LL8//JzvTDPDTF/mYF7Px6NHx31f1+f6XNd97vnjfB7XfQM3sJ0jDxw9elSJiYkqWbJktm2MRqNsNptGjRql0aNHa8WKFRnOR0dHa8mSJfr88881Z84cbdiwQXa7XZLk4+OjuXPn6vHHH9fGjRt17do1NWjQQHPnztWMGTP08ccfS5LMZrNsNpvmz59F7lmrAAAgAElEQVSv559/XoUKFcpQLJKkBg0a6MCBA7JarZKkLVu2qHXr1lq4cKECmtfQ5Gnv65133tHkyZOdMStVqqRRo0Y5Y7z22msqXbq0xo8f7zwWExOjZcuWafbs2Zo9e7aSk5O1fft2mUwmhYWFafbs2RSLAAAAAAAAAABwEXYY3SEffPCBPv30U8XHx8vDw0OTJ0+WyXTz5b5RMClevLji4uIynDt58qT8/PxkNptlNps1a9Ys57mAgABJUsmSJXXixAkVK1ZMJ0+e1IgRI2QymRQTE+NsW7t27ZvmYLFYVKdOHf3xxx8qVaqUChcuLG9vbx0+fFhRv1/Qru9PyCiTEhMTnX1q1ap1y/U4ceKEIiMj1b9/f0lSQkKCatSoIV9fX9WoUeOWawMAAAAAAAAAAO4cfqW/Q4YPH65///vfCg8P18iRI1WlShVJksFgyNDOZrM5P6d/f4/D4cjQzuFwZGibXvpii8Ph0LfffqvU1FRNmTJFiYmJ6tChg/O82WzO1H/hwoVavXq1LBaLvv76a7Vu3Vpbt26Vl5eX2rRp42zXfWh7tanzvDzdimXon5P3MhkMBvn7+2vq1KkZju/YsSPLnAAAAAAAAAAAQN7hkXR3WMWKFdWoUSPNnz9fklSwYEFFR0dLks6dO6fY2NgcxalcubJCQ0OVlJSklJQU9enTR2lpaVm2jYqKUunSpSVJGzZsyFR8usFms8nhcKhXr15avXq1vv76a0lSo0aNtG/fPm3fvl2tWrWSJPn7++vAjhOSpMjISC1YsCCHK3Cdn5+fQkNDnfNduHChzp49m6sYAAAAAAAAAADgzqBglAdefvllrV+/XhEREapTp46uXbumt956S6tWrVKZMmWc7yK6maJFiyooKEh9+/ZV79691bFjx2x35rRr104bNmzQgAEDZDQaVbVqVX3yySeZ2j388MPq0aOH831FN1gsFpUvX14mk0klSpSQJPXq1Ut/nbyg1wYM19tvv626devmag2KFCmiIUOGaNCgQerbt6/Onj0rHx+fXMUAAAAAAAAAAAB3hsGR3faTOyA8abfcDQXk61Ezr4bEbfRH7BpV9Wya6ZF0yLmQqMVqXCxQBmq1uM9EphxTki1GlQo0cHUqAADk2vGEEBUxl1JJi5+rU4GkWOslRSTtUe1C7V2dCnLoSPwmPeReTcXNpV2dCu4yR+M3q6S7n0qYy7o6FfwDNkeadsV8rUZFu7s6FQDIE6n2RO2LW6v6Rbq4OhWX4VdrAAAAAAAAAACAfI6CEQAAAAAAAAAAQD5HwQgAAAAAAAAAACCfo2AEAAAAAAAAAACQz1EwAgAAAAAAAAAAyOcoGAEAAAAAAAAAAORzFIwAAAAAAAAAAADyOQpGwJ0WGenqDAAAAAAAAAAAuClTXg94+eJVublfyOthcRtci4vRxQKXVMAtxdWp3FMiem1QMferSn3+SaU1N0nFXJ0RAAAAAAAAAAAZ5XnB6PxfF5Vq8cjrYXEbXEq8JovHOXkYY1ydyj3F3XZZhULWKNzoK0dTg6vTAQAAAAAAAAAgkzwvGNUKqCFfj5p5PSxuA1PseVX1/Jc83dgikxvHqoTLPCdEjcob9VvcYlenAwAAAAAAAABAJnleMALym+qfdnV1CgAAAAAAAAAA3JTR1QkAAAAAAAAAAADAtSgYAQAAAAAAAAAA5HMUjAAAAAAAAAAAAPI5CkYAAAAAAAAAAAD5HAUjAAAAAAAAAACAfI6CEQAAAAAAAAAAQD5HwQj3rdmzZ2vhwoUZjkVGRqpjx45yOBy37P/xxx9r8+bNcjgcCgoK0uuvv56jcTdv3pzrXC9duqRDhw7luh8AAAAAAAAAALcDBSPct9q3b6+NGzdmOPbjjz/q8ccfl8FguGlfu92ugQMHqmXLloqOjlZcXJw++uijW4555coVrVu3Lte57tu3j4IRAAAAAAAAAMBlTK5OALhTKlSoIDc3N4WHh6tixYqSrheMJkyYoNjYWL3//vtKTk5WcnKyBg8erPLly6tfv34qV66cAgICFBERoYcffljbtm3ThQsX9M477+j06dN65513VKFCBaWmpqpz585atWqVTKbrt9IHH3ygQ4cO6fPPP9fzzz+faQz5SEu+XKItW7YqLS1NNWvWVP/+/TVnzhwZjUb5+PioefPmzjl89913WrVqlaxWq1544QU98cQTCgkJ0bx582SxWFSwYEFNnDhRJpNJ48aN0+XLlxUfH6+uXbvqySef1MaNG7V69WoZjUaVLVtWI0aM0OXLlzV27FgZDAYlJibqzTffVLVq1VxxiQAAAAAAAAAAdwkKRrivtW/fXhs2bNCAAQN0+vRpmUwmlS9fXjNnzlSbNm3UunVrRUZGatSoUZo3b57CwsI0ZcoU+fr6OncUvfbaawoLC9P48eO1cuVK/fDDDxowYIB27typJk2aOItFkhQYGCir1aq+fftmOUa/Ga21bNlyrV27VkajUStXrpTFYlHHjh1lsVgyFIuio6O1ZMkSLV26VKmpqRo1apTatWunmJgYBQcHq0yZMpo8ebJ+/fVXlS9fXvHx8frss8+UmJioDRs2KCYmRsuWLdOCBQtkNBo1fvx4bd++XWfOnFGTJk0UGBio8PBwXbx4Ma8vCwAAAAAAAADgLkPBCPe1xx9/XH369NGAAQO0ceNGtWvXTpJ0+PBh7d27V19//bUkKTExUZJUvHhx+fr6Zhuvbdu2eumllzRgwAD98ssv6ty5c7ZtsxujcZPG6t+/v1q3bq22bdvKw8Mjy/4nT56Un5+fzGazzGazZs2aJUny8vLSjBkzZDabFRYWpgoVKqh8+fK6fPmy3nrrLTVr1kwdOnTQgQMHFBkZqf79+0uSEhISVKNGDdWvX1/Dhg3ThQsX1KJFCzVs2DA3SwoAAAAAAAAAuA9RMMJ97UYB6MiRI/r555/16aefOs/9/VFsqampslgsN41XqFAhVa5cWQcPHtTp06dVs2bNm7b/+xghUYs1evSbigg/pW3btql3795atGhRln0dDodsNlum42PGjNGiRYtUqlQpTZs2TZLk7u6uxYsXa//+/dq0aZNWr16toKAg+fv7a+rUqZliLF++XLt27dIXX3yh/fv3Kygo6KbzAAAAAAAAAADc34yuTgC409q3b6/FixerZMmSKl68uCTJ399fW7dulSRFRkZqwYIFOY735JNPaurUqWrcuHGmc0ajUWlpadmOkRSfogULvlDFihXVs2dPVahQQWfPns3Q74bKlSsrNDRUSUlJSklJUZ8+fZSUlKS0tDR5e3srPj5eO3fuVFpamo4dO6ZNmzapbt26euONN3Tq1Cn5+fkpNDRUsbGxkqSFCxfq7Nmz2rBhg06fPq3mzZtr4MCBOnToUO4XFQAAAAAAAABwX2GHEe57LVq00MSJEzV69GjnsV69emn8+PHq37+/UlNTNXjw4BzHa9CggcaOHet8vF16ZcuW1alTpzRp0iQNGDAg0xjxBQ8qKuqSevfuLbPZrDJlyqhatWpKTk7W22+/raJFi+qpp56SJBUtWlRBQUHq27ev7Ha7unbtqgceeEAdOnRQUFCQSpQooaCgIH366acKCAjQunXr9M0338hqtap3794qUqSIhgwZokGDBslisahcuXLy8fFRQkKCJk+eLLPZLKvVqoEDB/7viwwAAAAAAAAAuKcZHA6HI68GC0/aLXdDAfl63PwxXrg7/RG7RlU9m8rTrZirU3GpgwcPav78+ZoxY0au+4ZELVbjYoEysLkP95nIlGNKssWoUoEGrk4FAIBcO54QoiLmUipp8XN1KpAUa72kiKQ9ql2ovatTQQ4did+kh9yrqbi5tKtTwV3maPxmlXT3UwlzWVengn/A5kjTrpiv1ahod1enAgB5ItWeqH1xa1W/SBdXp+Iy7DACcuHzzz/X9u3bNWHCBFenAgAAAAAAAADAbUPBCMiFvn37qm/fvq5OAwAAAAAAAACA24rnYgEAAAAAAAAAAORzFIwAAAAAAAAAAADyOQpGAAAAAAAAAAAA+RwFIwAAAAAAAAAAgHyOghEAAAAAAAAAAEA+R8EIAAAAAAAAAAAgnzO5OgEgv7l2LUoJ8QlKSkpSSkqKbDabjEaj3N3dVbhwYfn4+Lg6RQAAAAAAAABAPkPBCMhjm3/+WYULF5Gnp6fc3d1lMplktVoVFxenEydOaPPmzapQoYKqVKkiLy8vV6cLAAAAAAAAAMgHKBgBeazzc51luMnTIB0Ohw4ePKj169erefPmKleuXB5mBwAAAAAAAADIjygYAXcZg8Gg2rVrq1ixYjp48CAFIwAAAAAAAADAHZf9NgcALmU2m2Wz2VydBgAAAAAAAAAgH6BgBOQhe6pRUZHSobmnbtruxIkT2rRpk2rWrJk3iQEAAAAAAAAA8jUeSQfkIVuPC7pyoIuMdrP2PTJC7u7uMplMstvtSkpK0rVr13T27Fn5+vqqRYsWKl26tKtTBgAAAAAAAADkAxSMgDyUOr28Ut8vruRDZ+QmKTY2VjabTUajUe7u7ipfvrzq16+vggULujpVAAAAAAAAAEA+QsEIyEOepRJVc0kvGXgaJAAAAAAAAADgLsKv1gAAAAAAAAAAAPkcBSMAAAAAAAAAAIB8joIRAAAAAAAAAABAPkfBCAAAAAAAAAAAIJ+jYAQAAAAAAAAAAJDPUTACAAAAAAAAAADI5ygYAQAAAAAAAAAA5HMUjAAAAAAAAAAAAPI5CkYAAAAAAAAAAAD5nMnVCdwvDh48qPHjx0uSIiMjVbJkSbm5uempp55Sjx49chTjwIEDKl26tEqUKHEnU73rjRs3Tm3btlWjRo1cnQoAAAAAAAAAAPkCBaPbpFatWlq5cqUk6dlnn9Wnn34qb2/vXMVYt26dOnfunO8LRgAAAAAAAAAAIG9RMLrDjh8/rhkzZsjNzU0mk0ljxoxR4cKFNW7cOF2+fFnx8fHq2rWrfHx8tHnzZp08eVLBwcHy9fV1xvjuu++0atUqWa1WvfDCC3riiSc0f/58hYSEyGAwKCAgQAMGDNClS5c0duxYGQwGJSYm6s0331S1atW0ceNGrV69WkajUWXLltWIESO0e/duzZkzR0ajUR4eHpowYYIKFSrkHHPKlCmSpPj4eJ05c0b9+vWTh7/02/ZdWrJguSwWiwoWLKiJEyfKZDJlms+TTz6pL7/8Ulu2bFFaWppq1qypESNGZLkexYoV09y5c7Vz5075+PgoOjo6z68TAAAAAAAAAAD5GQWjO2zSpEmaPHmyvLy8tHbtWi1evFiPP/644uPj9dlnnykxMVEbNmxQ3bp1Vb16dQ0aNChDsSg6OlpLlizR0qVLlZqaqlGjRumxxx6TwWDQ3LlzZTab1aVLF3Xp0kWbNm1SkyZNFBgYqPDwcF28eFExMTFatmyZFixYIKPRqPHjx2v79u1atWqV3njjDVWvXl0hISG6evVqhoKRm5ubUlNT9e677yoyMlJDhw7VyM+7KTYmVsHBwSpTpowmT56sX3/9VeXLl880H0latmyZ1q5dK6PRqJUrVyo5OTnL9ejWrZt++uknrVixQlarVc8++2yeXycAAAAAAAAAAPIzCkZ3kM1m059//qm33npLkmS1WlW6dGmVL19ely9f1ltvvaVmzZqpQ4cO2cY4efKk/Pz8ZDabZTabNWvWLEmSp6enRo0aJXd3d0VFRSkmJkb169fXsGHDdOHCBbVo0UINGzbUnj17FBkZqf79+0uSEhISVKNGDbVu3VpjxozRY489pjZt2qh8+fKZxvb395ck+fj46OrVq3I4pAe9HtSMGTNkNpsVFhamChUqZDufJk2aqH///mrdurXatm0rs9mc5XpERESocuXKMhqNslgsqlmz5m27BgAAAAAAAAAA4NYoGN1BBoNB7u7umjt3bqZzixcv1v79+7Vp0yatXr1an3zySZYxHA6HbDZbhmMnTpzQmjVrtHDhQlksFgUGBkqSKlWqpOXLl2vXrl364osvtH//ftWpU0f+/v6aOnVqptiPPvqotm/frhEjRmjkyJGqV69eprFvsNvtkqT33pmkxYsWq1SpUpo2bZokyd3dPcv5jB49WuHh4dq2bZt69+6tL774Isv1+P3337McCwAAAAAAAAAA5A2jqxO4nxmNRpUpU0Z//PGHJGnLli3atm2bjh07pk2bNqlu3bp64403dOrUKUnXC0ypqakZYlSuXFmhoaFKSkpSSkqK+vTpoytXrsjLy0sWi0XHjx/XX3/9pbS0NG3YsEGnT59W8+bNNXDgQB06dEh+fn4KDQ1VbGysJGnhwoU6e/as5s2bpwceeEBPPfWUnnrqKR09ejRT/jfyjoiIUKlSpWS32ZWWmipvb2/Fx8dr586dSktLy3I+cXFxWrBggSpWrKiePXuqQoUKioyMzHI9ypUrpz///FM2m02JiYk6ePDgnbokAAAAAAAAAAAgC+wwusPeeustTZkyRSaTSUajUcHBwbJYLPrss8/0zTffyGq1qnfv3pKkgIAAjR07Vu+9955q1KghSSpatKiCgoLUt29f2e12de3aVfXq1dOiRYvUv39/VapUSd27d9eHH36o4cOHa/LkyTKbzbJarRo4cKCKFCmiIUOGaNCgQbJYLCpXrpx8fHzk4+OjV155RQ888IBMJpOCg4OzzH/IkCG6fPmyhgwZIjfTBbXr8LiCgoJUokQJBQUF6dNPP1VAQIDWrVuXYT6FChVSVFSUevfuLbPZrDJlyqhatWpZrkeJEiXUqlUr9ezZUw899JD8/f0z7DgCAAAAAAAAAAB3lsGRh7/MhyftlruhgHw9eEfN3e6jjz7Sww8/rLZt2zqP/RG7RlU9m8rTrZgLM7u3hUQtVuNigTKwuQ/3mciUY0qyxahSgQauTgUAgFw7nhCiIuZSKmnxc3UqkBRrvaSIpD2qXai9q1NBDh2J36SH3KupuLm0q1PBXeZo/GaVdPdTCXNZV6eCf8DmSNOumK/VqGh3V6cCAHki1Z6ofXFrVb9IF1en4jL8ag0AAAAAAAAAAJDP8Ug6ZOn11193dQoAAAAAAAAAACCPsMMIAAAAAAAAAAAgn6NgBAAAAAAAAAAAkM9RMAIAAAAAAAAAAMjnKBgBAAAAAAAAAADkcxSMAAAAAAAAAAAA8jkKRgAAAAAAAAAAAPmcKa8HTIo26nzYFZ2a8qMarOwiubnldQr4hxwOh/M//DMsHQAAAAAAAADgbpTnBaPk1zYqdeUPKms9q3XrPOUwssnpXnE66aAi3JPlbvR0dSr3LLfqCVJxV2cBAAAAAAAAAEBGeV4w8vz4MXm83lsRE37Uk08+yQ6je8gfsXZV9WwqT7dirk7lnhUStdjVKQAAAAAAAAAAkEmeF4wsBe166JEieujb5/J6aAAAAAAAAAAAAGSB58EBAAAAAAAAAADkcxSMAAAAAAAAAAAA8jkKRgAAAAAAAAAAAPkcBSMAAAAAAAAAAIB8joIRAAAAAAAAAABAPkfBCAAAAAAAAAAAIJ+jYIS7xqFDh9SnTx+99NJL6tq1qz788EPZ7XZJ0ubNm3MVK7ft/xc7duxQcHBwjtsfOHBAV69evSO53GreISEhmjp16h0ZGwAAAAAAAABw76JghLtGcHCwRo8erQULFuirr77SlStXtHfvXl25ckXr1q3LUQy73Z6r9q6wbt36O1YwWrRo0U3PN2nSRMOGDfvH8W8U8AAAAAAAAAAA9xeTqxMAbkhMTFRKSookyWg0atKkSZKkkSNH6tChQ/r888/Vs2dPjR07VteuXVNycrJ69eqlli1bqnv37mrQoIESEhIUFRXlbN+3b19n/KioKAUHByslJUVpaWkaOnSoqlevrh49eqh169Y6deqUTp48qYkTJ8rX11cbN27U6tWrZTQaVbZsWY0YMUKXL1/W2LFjZTAYlJiYqDfffFOSFBMTo+HDh+v06dNq3ry5BgwYkOV4Jy+d0y+bf1HYyTAFBwfL19c3Q37vvvuu4uLi9MADD+j9999XoUKF9MEHHyg8PFxpaWnq1KmTnnzySc2YMUNWq1VpaWk6evSo+vTpo/Pnz+v48eMaMWKEpkyZovnz5yskJEQGg0EBAQEaMGCAfv31V+3YsUNDhw7VSy+9pEaNGun8+fOKjY3VjBkz5ObmpunTpyssLEzJycnq0KGDOnbsqKlTpyopKUnh4eGaP39+Hn4rAAAAAAAAAAB5gYIR7hpDhw7VwIEDVaNGDTVs2FBt2rSRl5eXAgMDZbVa1bdvX124cEENGjTQ008/raioKAUFBally5Yym82qVKmS2rdvr0OHDjnbp/fFF1+oQYMG6tKli44fP64JEyZo4cKFMhqN8vX1VY8ePbR06VJt3LhRzz77rJYtW6YFCxbIaDRq/Pjx2r59u86cOaMmTZooMDBQ4eHhunjxoiQpPDxcy5cvl8PhUIcOHfTKK69kOV6faS1VvXo1DRo0OEOxSJIWLlyoFi1aqGPHjlq+fLm2b98uT09PXb16VZ999plSUlLUpUsXNW3aVEajUTabTaNGjVJoaKhmzZql2bNna/78+ZoyZYrsdrsMBoPmzp0rs9msLl26qEuXLs6x3NzcFBERoZkzZ8rLy0vDhg3TkSNHFBcXp5SUFM2aNUs2m03dunVTs2bNZDabFR8fT7EIAAAAAAAAAO5TFIxw12jVqpUaNWqkvXv3avv27erWrZs++ugjGQwGZ5tixYrp5MmTGjFihEwmk2JiYpznatWqddP4x44d09NPPy1JqlKlis6ePSuHwyFJqlGjhjP+iRMndOLECUVGRqp///6SpISEBNWoUUP169fXsGHDdOHCBbVo0UINGzbUjh07VKtWLVksFklSgQIFlJycnM14N8+vU6dOkqSuXbtKkj777DPVq1dPkuTu7q6KFSvq1KlTGXIuXry44uLiMsQyGo3y9PTUqFGj5O7urqioqAxrJUne3t7y8vJyzjs2NlZHjhzRrl271K9fP0nXH0F3/vx5SVLt2rVvur4AAAAAAAAAgHsXBSPcNWJjY1W4cGE1adJETZo0UcWKFbVu3To9+eSTzjbffvutUlNTNWXKFCUmJqpDhw7OczcKNrlxoxjl5ubmPOZwOGQwGOTv76+pU6dm6rN8+XLt2rVLX3zxhfbv36/q1atn6H8jRtbj/ffznj179N5770mSpkyZIofDkeU7gtIXzG7kJl0vCmU33okTJ7RmzRotXLhQFotFgYGBmeKm758+9rPPPqvu3btnOPfTTz/JbDZnOScAAAAAAAAAwL3PeOsmwJ136dIlde3a1fmIN7vdrrCwMPn6+spoNCotLU3S9ff8lC5dWpK0YcOGLAsz6dunV7NmTe3du1eSdPToUZUrVy7bfPz8/BQaGqrY2FhJ1x8Xd/bsWW3YsMH5nqKBAwfq0KFD2cbIbjyDwajU1FQFBARo9erVWr16tapUqaIaNWpo586dkqRVq1ZpxYoVGWIkJSUpIiJCFSpUyHZMm80mh8OhqKgoeXl5yWKx6Pjx4/rrr7+yXJO/8/f3V0hIiBwOh6xWqz744IMsi1gAAAAAAAAAgPsLO4xwV/D29tbw4cP1+uuvy263y+FwqE6dOnrhhReUnJysU6dOadKkSeratatGjx6tnTt3qm3btqpatao++eSTDLHKli3rbD9q1Cjn8Z49eyo4OFhbtmxRWlqaRo4cmW0+RYoU0ZAhQzRo0CBZLBaVK1dOPj4+SkhI0OTJk2U2m2W1WjVw4EAlJSVlGSOr8S5pp+oF1NPYsWP13nvvOR8rJ0m9evXSO++8o40bN8rT01OTJk1SoUKF9Ntvv+mVV15RamqqXn31VRUsWDDbvB9++GH16NFDc+fOVUpKivr3769KlSqpe/fu+vDDD7PcaZReo0aN9PvvvysoKEh2u11PPPFEpp1IAAAAAAAAAID7j8GR3bOz7oDwpN1yNxSQr0fNvBoSt9EfsWtU1bOpPN2KuTqVe1ZI1GI1LhYoA5v7cJ+JTDmmJFuMKhVo4OpUAADIteMJISpiLqWSFj9XpwJJsdZLikjao9qF2rs6FeTQkfhNesi9moqbS7s6FdxljsZvVkl3P5Uwl3V1KvgHbI407Yr5Wo2Kdr91YwC4D6TaE7Uvbq3qF+ni6lRchl+tAQAAAAAAAAAA8jkKRgAAAAAAAAAAAPkcBSMAAAAAAAAAAIB8joIRAAAAAAAAAABAPkfBCAAAAAAAAAAAIJ+jYAQAAAAAAAAAAJDPUTACAAAAAAAAAADI5ygYAQAAAAAAAAAA5HMUjAAA/9jesXsVc9HVWQAAAAAAAAD4X5nyesB9vx/WX5a4vB4Wt8HJxHDFenjKw1jQ1ancs/6MPyO3gjtloFaL+4T3+0N07j91Ff/cEyox6kFXpwMAAAAAAADgH8rzglHZCr4q5V4xr4fFbZAQf1LlHyinAm5FXJ3KPetqTHFVLFKRghHuG5EV6qvA063k9nRVSVddnQ4AAAAAAACAfyjPC0YlvIrJ28M7r4fFbVDMo5C8PB+Up1sxV6dyzypiLijvYt45Lhgl2ZJlc9jucFbAP1f8x0kqXtahCynHlWRNVrw1wdUpATlS0OTp6hQAAAAAAADuKnleMAKQOyEXl8vN4OosgGx4SLokpTiSZHdYdT4+zNUZAbdUp/hTFIwAAAAAAAD+hoIRcA9oVbKoq1MAboHvKO4NO65EuzoFAAAAAACAuxIvUgEAAAAAAAAAAMjnKBgBAAAAAAAAAADkcxSMAAAAAAAAAAAA8jkKRgAAAAAAAAAAAPkcBSMAAAAAAAAAAIB8joIRcI/w8e0j/4dfU61aQ1Wt+iC93P8z2Wx2xcQkqkGDUbmOt2bN73plwJx/3D+90W8t1bff7sr2/NBhX2jFiu3/0xj/1PYdobpwIVqS1KzZ27p0KUYREZdUucqrmjRplfNYbpw7d007dx3PENMV1q9Vq8QAACAASURBVK/fq9ffWJjrfqtW7bz9ybhwnBtOnbqkRo3evGmb251T+nj/JPabo5do6dKtOW5/5swVPd1pssqVf1lVqw3UC92m6erVOP300wG1a/9epvZ+lQcoPPyifHz7qHqNwapR87//LVz4S67zdYXo6ATVqDn4H/VN/7cpr7+PAAAAAAAA9xoKRsA9ZOdvk3Tw4DQdOTxDV67EaenSrSpSpIB27pz0j2P+r/0lacL73dWpU/3/KcadYLc79OWXW3Th4vWC0ZYt78nbu4j27g3TY4/9S6NGPeM8lhvbth3Vrp3HM8S8k+x2R5bH27evp48+7JXreB98sPq25ZCd8+ej9OWSLbke50663Tmlj5cX83U4HHrmmcl6/LE6OhXxmY4dnaV/1amg7oHT1bLlwzp27KwuX451tt+567h8HiquihVLSpJ2/z5FR4/MdP7Xq1eLO5rv3eDG36a78fsIAAAAAABwtzG5OgEAuefmZtS/m1TX8RORio5OUKPGb+rokZmqXXuYnnuukY6FntXZv65o4cLBqlDBW8uXh2je/J/l5mZU5coPadbMIGes9P3r1x+pzp0b6s/jkTp86Iy++mqoKlYsmWV/g8HgjDF02BdqUL+KunRppCGvLdCRI38pLdWqPn1aq0eP5pKkTT8f1NKvtioi4qKmTO6hdu3q6qOPvtN33/2u1FSrHnm0smbOCNKaNb9rydKt+s/Xb2SY88KFv2ju3B+VlmbT4MFP6MUXm2n/gVMaOfJLmUxGmUxumvf5ALm7m9Wy5VhVruKj0r4l9O23O3Xk8BktWjRYnTt/oCVLXtOECSsVHZOgqRW8tWTJVq1f/7ZKliyiQYPn6+CBU7LZ7Jr1cR/VrFFGPXrO1KWLMUpKStXIkZ3UvLm/xr/7tYxGg8qX99b48V87+2c19+zW9IarV+PUrPkYtW1bR2fOXJbDIS37aqg2btynL5ds1dUrsZo0+UUdPfKX5s3bJHcPi2rUKK0Z01/Sd9/t1oaN+/TpJy9ne43/Pqcd20O1/8ApPdflwwxr7HA4MrU9d/ZqhhzMZlOm9fbyKqz33/9G69f/IYNBat7CX+8Fd9OQ1xZo587jCg7+j159tZ36vzJHiYkpSkpM0cRJL+rRR/yy/G5fuRKnli3H6uDBaZKkF7pNU/+X2+rq1TgtWx6iggU9dPbsVTX9dw2NGfOcIiIu6cUXp8u7ZFH5+ZVyxrlVTmPGPKfhIxbr8OEzSkpMUc+eLdS7d8ts77lbxTt0+Izzc/fuTfXSSx/LzeSmtFSr5s59RdWq+Wr3npN6fdhCpaVZ9Wj9Kpo+rbck6bedx/Xlki0KD7+ojz7sqQ4dHskyh82bD6lgQQ/17/+YJMlgkIYPf0o9ejSXm5tRnTs31H/+s0MDBjwuSVqxYru6d2+a7Zz+7uzZq+rZa5YMBoMS4pM0+5N+qvuvilnee1mtx/r1e7Vo8a/y9i6i0NBzql+/st4L7pbteFnd/4MGz1PzZjX17LMNFRp6TgMGzNGqVSPlcEj9Xv5Uf4aeU/EShbRi+evatOmAFnyxWSVLFtXu30+oZ88WCv3znI4cPqNnn22oV19t5/zbtHLVTuf1afVKmxyvCQAAAAAAQH5CwQi4ByUnp2n9D3/o1f//YfgGNzejqlR5SG+/3VmLFv2iadO/1ztju2jmzHXatu19ubkZ9VLQbP3wwx9ZxnVzM6pixZIaPvxpTZv2vVas2K5+/dpk2b99+3qZ+q9du0cXLkTr503jlJSUqlq1hzp//E5ISNZ3a97UkaN/qdsL09SuXV3NnLVOEeGfyWg0aM6cH5WYmKI2bWqrUaNqGeJeuRKnqVO/0549Hyg5OU3Pd/1I3br9W4MGfq4VK16Xj09xLV78qz74cLXeHf+CDh85o6+/fkMVK5bU4SNnNHFioLNIU7x4QY0c2Uk7dx3XsGEdtWTJ9ceBrVu3V3FxSdq69T1t3xGqJUu26rUhT6ptmzoKCmqly5dj1bTZ2zp2dKZ69WwhDw+znnrqUY0f//VN557Vmr755jMZ1vzPP8/px41j5eNTXL1f+lhr1+6Rp6e7jhw5o/37pio6OkGBgdO1f99UPfCARZ2emawff9zvjHH1alyW18hud2Sa09SPemnCxFWZCnJZzf+xtrWdOZjNbvr3v9/KtN6TJr4oo9GoX355VxaLSbVqDdWrA9pp2LAOSkuzasyY5zRy1Jfq8lwjde7cUKdOXVLXrlNzvavNzc2o0NCzOrB/mhwOh/wffk39+rXRlA++Vf/+jykwsJnmzPlRIduOyW533DKnH374Q0lJqfph/duyWm2qV2+4OnZ8RCVKFMo0dk7i7dx13Pl5W8gxvf12Z7VuXVvffPObps9Yq88+fVkDX/1cS5cOlZ9fKb0UNFvHQs9JkuLikrThhzH6bedxjRu3ItuCUWjoOdULqJThmMFgUKlSRSVJ3bs31ZDB8zVgwOOy2x367rvdGvP7czle42+++U1PtK+rYcM66sjRv3Tu7NUs772uXZtkuR5ubkb9GXpOy74aJrvdrnLlX1bwuy9kKC6nl9X9n50TJ85r1coRql69tLo8/5HzHjlz+rK++c9w7dx1XJ06TdbpU3MUG5ukli3H6tVX2zn7p79WO65E53hNAAAAAAAA8hMKRsA9pEmT0TIarz9J8plnGuippx5VdHRChjaPPlpZklS7TgUtWbpVhw6dVsSpS2rTZpwkKTY2SY8E+MnHp1iWYwQEXN/54e1dRAcOnsq2f1b27A1T82Y1JUkPPGBR9eqlFfrn9R/FW7eqJUmqWaOMIs9fk8PhULt2ddWq1Tt67rlG6tKlsQoUcJck5/9vOHz4tGr6l5XFYpLFYnL+yL9vf4QCA6dLklJTrark95AkqWTJohl28eTEnr1hatSwqiSpcaNqatyompKSUnXo8Gl1fu4Dmc0mXb0ad9P+2c3972v6d2XKPCgfn+KSpDq1y+vYsbMKCKikevUqyWx20+HDp1W7dgU98IBFkvTvJtW1b1+EqlcvLUnZXqOLl6IzzSk389+4cZ8zh+zW22g0qFAhDz3f9SN5eFh06XKMrl7LuE6/7zqhrVuO6JNPfpAkxcUnZZvHzQQE+MloNEgyqFo1X504eUFHDv+lIYOfvL4uTWto0aJfcpTTrt9P6OefD6ply7GSJJvdrtNnLmdZMMpJvPR8fYprzNhlmjf/Z12+HKvixQvKarUp8nyUcxfUgvmvOtu3bOEvSSpTuoSio+KzjWu12mSz2bM9/686FRQbm6gzZ64oIuKiatcur+LFCzrPP/LoCKWv3axb+7YqVPB2/rt1m1rq1Gmyzvx1RZ2erq+2bevo118PZ7r3JGW7HnXrVZLRaJDR6CZPTw8lJqbK0zPj/XxDdvd/Vnx9izu/7w0bVHHeI/4Pl5MkPViisKpUfkgWi0kPPlhIMbGJ2cYCAAAAAABA1igYAfeQkJAJKljQ46Ztbrxrxmazy2AwyGAw6NFHK2vN6lEZ2q1Z83uW/d3c/vtqM4dD2fbPTvrdBNf7X/98o9CVvs1nn76sI0f/0rq1e9W4yZv6bcekDD9w/zeOI9MP5QaDQR4eZm3e/G6G48nJaXJ3N+co11uNMW/eJiUnp+mb/wxXXFySKvkNuGmM7Ob+9zX9u/TvB7px3SRlmEf6H/pvXJf042Z1jd4Zt/ymBYb0spp/+hyyW++Dh05rwYLN2rFjojw8zHrkkRGZYhgMcj7e7Fb+vhnFarU5P2dep//mfv28PRc5GdSvbxsNHdrhljnlJF56w0csVpfnGun55xtr7do9WrT4V2fOWTGZ3JyfHVl9Qf6fv39Z54649H766YDatKktSXrhhX9rxYoQRZy6pBcDm2Vot/v3KTf9++Ffs6z275uqTZsOaOKkVQoJOaZGjapmyvtm65H+u36r+WR1/6f/Xltt/7321wuF1934u/b38TLeZ7l75xYAAAAAAAAk462bALiXbNt2VJK0Z/dJ1axZRv7+ZbV/f4Sioq7vRJo8+VuFhV3Icbzc9H/0kcr6dcthSVJCQopCQ8+qerXruwK2hVzPKzT0nEr7llBMTKImTFipmjXKaMSIp1WtWmmFR1xUYmKKLl+OzRD34YfLa9++cCUkpCgpKVXNmr0tm82uyn4PacvW63G/+2631q3bmykno9GglJS0W87zkQA//bTpgCTpwMFTerHHDF2+Eiu/Std3hCxfHuIsSFyPac3x3G/l3LmrCg+/KEnavSdMNWuWyTT/AwdOKTn5+jy2bD2igHSPJsvuGmU1J+l6EebvP6hn1/YGNzdjlut95XKsfHyLy8PDrP0HTulk2HmlplplNBqda/Ro/Spa+/0eSVJExCVNnLhKkhQZeS3TtS5cuIBiYhNltztktdp04MAp57ldu44rNdWq1FSrjh79S1Uq+6hqNV/t3n1SkvTTj9fzz0lO9R+trHXr/5DD4VBamk1DXlsgm82u2NgkRURcypBTTuKl/3zlcowqVrq+w+2blb8pNdUqk8lNpX2La9/+CElSn76f6Pf/zzsrx49HKikpNcOxZs1qymaza8KElbLZ7LLbHZowYaU+nv2Ds023bv/W99/vUci2Y2rfvm628bOybNk2/Xn8nJ566lFNmNBdO3edyPLeOx8ZleV6ZCerNY2OTsjy/i9a1FNXrlzfrbRnd5iz/dmzV50xft99ItM9civprw8AAAAAAACyxg4j4D5z+MhfeuzxYCXEJ+mrr4apRIlCmjzpRbVvHyx3d7OqVPVR+fLeOnz4TI7iZdc/K+3b19XGH/erdZvxSk1J03vB3VSkSAHZbHZZLCY91+VDhYdd0JQpL6poUU9dvhKrxo1Hy2Ixya/yQ6r7r4r6/vvdWrJ0a4Z37Dz4YCG9NbqzmjcfI5vNrsGDn5DFYtJnc/pr8KB5MplNcnMzavGiwZlyat6spnr2nKklS1676TyfeKKeNv64X/Xrj5QkfTy7rwoVfEDdu0/Tjz8d0PNdGqtOnYoaM3aZ2rSprcDA6Xrwwf8+viy7uedExYolNWHiSoWHXdCDXkXUvn09bd58MMP83xz1jB57bLxMJjfVrVdJrVrVcu4Sy+4aVaxYMtOcJKl+/SqqX3+ktm+fKLPZLdv5X/vbI/iyWu9ixTz1/oSVatV6nPz9y+q11zpo6GsLtGbNmzp+/JxeHfi5gt99QUF9ZqtV63FKSU7VpMk9JEnTpq9VmdIlNHjwE84xzGY3de7cUO2feE8VKnjL37+ss1BXqVIpPd/1I52PjFLfPm3k5VVYw994SoGB07X0q2165JFKstsdaty42i1zmv1xX/28+ZCaNr1efHzxxeZyczNq27ajmr/gZ61a+d9dMzmJ9/573ZyfBw5sr359P5V3yaIa+tqTemXAHH3//W7N/qSfXh0wV2lpNj1av7IeCaikb7/dmeV3IjBwuj6fN0C1a5V3HjOZ3LR+/dsaNHieylfoLw8Ps5o399fSdN/tMmUelNliUsNGVTPttPv7I+natq2j6dNecv67WvXSGjTwc7m7m5WWZtP7E7pnee81b15TUz5YnWk9Ro9+Nsu5ZLWm2d3/ngXc1bv3x9qzN0xlyzwou/36zrdq1Xz1wYerdfLkBRUt6pnpHrmVKpUfcl6f7uNy/l4nAAAAAACA/MTgyMPntoQn7Za7oYB8PWrm1ZC4jf6IXaOqnk3l6Zb1u29wayFRi9W4WKAMOdzcl2RL1pYLS9X2/19qfyt1676h9evfVqkctr9dXh34uVq1fFjPPNMgT8e9H0RHJ6hR4zd19MjMXPf9z392aFvIMc2cEXQHMrvz9v4RrpMnzuv55xvfsu2aNb9rw8Z9+vSTl+9oTna7Q6PfWqpJEwPv6Di3MnXqd+rWrWme38t3wt2ypjfsuBKtqkWekpfHg65OBcBd5HhCiIqYS6mkJev3NCJvxVovKSJpj2oXau/qVJBDR+I36SH3aipuztkOe+QfR+M3q6S7n0qYy7o6FfwDNkeadsV8rUZFu7s6FQDIE6n2RO2LW6v6Rbq4OhWXYYcRcA+It6beupEkmxxKsKXmuP3tsGTxFq3/4Q8NfuPJPB33fpFgTZPd4cj12h0+eFrDRy7WB9N63bPrHpWQqMYta+Qo/ySbVWl2+x2fa2TkNXV89lGXr2mZSt4q+GABl+dxO9wtawoAAAAAAICbY4cRcowdRv+7f7LDaPul9Xc4K+B/l2CLktWeoiLmUq5OBbil2sWassMIQAbsMLq7sMPo3sMOI2SHHUb3NnYYAchv2GHEDiPgrvaAm4daP/SMq9MAbiky5ZiSbDGqVIDHEgIAAAAAAAD3opxtcwAAAAAAAAAAAMB9i4IRAAAAAAAAAABAPkfBCAAAAAAAAAAAIJ+jYAQAAAAAAAAAAJDPUTACAAAAAAAAAADI5ygYAQAAAAAAAAAA5HMUjAAAAAAAAAAAAPI5CkYAACDHvvnmG3Xq1EmdOnVS165dtXHjxv855qVLl3To0KHbkN3tG69Pnz66du1aHmWUvfj4ePXo0SPX/Q4cOKCrV6/mul/6tfknMVJTU/X000/neIy8NG7cOO3YsSNXfVyVKwAAAAAArkDBCAAA5Mivv/6qVatWae7cufr22281ffp0zZkzRwcPHszQzm635yruvn378vRH+ZyMN2/ePBUvXvwfj5HbNciufcGCBbV48eJcj79u3bp/VDBKvzb/NEZuxrgdcrvWuZHX300AAAAAAFzJ5OoEAADAveHLL7/U0KFD5eXlJUkqVaqU5s2bp6JFi2rr1q1at26doqOjNWTIEJlMJs2YMUNubm4ymUwaM2aMihUrpvnz5yskJEQGg0EBAQEKDAzUnDlzZDQa5ePjo7p16+r9999XcnKykpOTNXjwYNWsWTNDHt99951WrVolq9WqF154QU888YSOHj2qadOmyWKxyN3dXWPHjpW7u7teeuklNWrUSOfPn1dsbKzee++9DONVrlxZ48aNk5ubm9LS0jRmzBiVL19e3bp106xZs7RkyRJZrValpaXp6NGj6tOnj5o2barjx49nmp/FYlG/fv1Urlw5BQQE6JlnnnHm/Pzzz6tNmzaKiIjQxYsX9e6776pIkSIZ2lerVi3THNzc3NSrVy+tXLkyyzGLFSuWaT0eeughbd68WSdPnlRwcLB8fX0zXcvU1FSNHTtW165dU3Jysnr16qWAgADn2iQlJWWIERERoXnz5slisahgwYKaOHGi3N3dM43dpk0bGY1GTZ48WUeOHFHBggU1a9Ysubm5SZJiY2MzrH/t2rUVHByslJQUpaWlaejQoapevbozz5iYGPXp00cNGzbUhQsX5HA4NGHCBP32228Zvm+SMq1d0aJFNXfuXO3cuVM+Pj6Kjo6WJE2ZMkX16tVTq1atdOrUKU2YMEFz587V0aNH9dFHH8lqtcrf31/9+vXLkGvz5s1v6/0EAAAAAMDdhoIRAADIkVOnTqlGjRoZjt3YhWMymRQWFqbly5fLZDLppZde0uTJk+Xl5aW1a9dq8eLFGjRokAwGg+bOnSuz2awuXbqoS5cu6tixoywWi5o3b66ZM2eqTZs2at26tSIjIzVq1KgMO2yio6O1ZMkSLV26VKmpqRo1apTatWunCRMmaPz48apUqZK++uorffnll3r55ZcVERGhmTNnysvLS8OGDdOZM2cyjLdv3z716dNH9evX16ZNm/TVV19p9OjRzvGMRqNsNptGjRql0NBQzZo1S02bNtWkSZMyze+VV15RWFiYpkyZkqlI4+bmprJly6pPnz76/vvvtWTJEr322msZ2gcGBmaaQ69evZwxshqzZ8+emdZjxowZql69ugYNGpRlsUiSrl27pgYNGujpp59WVFSUgoKCtGrVKufadOvWTfv373fG2L9/v4KDg1WmTBlNnjxZv/76q+rXr59p7FatWuncuXPq2rWrypUrp4EDB+rIkSOqVauWJKlw4cIZ1n/q1Klq0KCBunTpouPHj2vChAlauHBhhvU/ffq0PvnkE3l5eWncuHHatm2bPDw8Mnzfslq7rl276qefftKKFStktVr17LPP3vT7PWnSJL3//vsqU6aMxo8fr6tXr2bIFQAAAACA+x0FIwAAkCM2m002my3b8zVq1JDJZJLNZtOff/6pt956S5JktVpVunRpGY1GeXp6atSoUXJ3d1dUVJRiYmIyxDh8+LD27t2rr7/+WpKUmJiY4fzJkyfl5+cns9kss9msWbNmyWaz6dKlS6pUqZIk6V//+pdmz54tSfL29nbuiCpWrJhiY2MzxPP29tYnn3yi1atXKyoqSoULF85yXtL14lhcXFy287vRJrsijb+/vySpatWq+uGHHzK0v9kcJGU7ZlbrkRPFihXTyZMnNWLECJlMpkzX4e+8vLw0Y8YMmc1mhYWFqUKFClmOnZqaKm9vb5UrV06SVLJkyUxrnt6xY8ec7zyqUqWKzp49K4fDIYPB4GxTsmRJ5zWsUqWKIiIiVL169Qzft6zWLiIiQpUrV5bRaJTFYsm0Uy09m82my5cvq0yZMpKkd955R5K0devWWy0lAAAAAAD3DQpGAAAgRypVqqT9+/eradOmzmNhYWHOIovZbJYkGQwGubu7a+7cuRn6nzhxQmvWrNHChQtlsVgUGBiY5ThvvvmmqlWrluU5h8ORZdEqfYEhfcHBaMz4ukaHw5Hh39OnT1ebNm3Utm1bbd26VWvXrs0UO32MG7Gzml9qaqosFkuWeacfO33+6dtnN4cb57Iac/fu3Tct4mXn22+/VWpqqqZMmaLExER16NDhpu3HjBmjRYsWqVSpUpo2bZozx6zGvvH4ufRzyY3085YyvqPIbrc7z9/4vv29T/q1Sz92Vu86Sp//P1lHAAAAAADuJ8ZbNwEAAJBeeOEFTZ8+XX/99Zck6dy5cxo5cqQuX76coZ3RaFSZMmX0xx9/SJK2bNmibdu2KSoqSl5eXrJYLPo/9u48vuYz7//4+5yThdiSuAWxiy0RbQ1Vo25NU8w9ZtBWGwaD1jJoS2lpJI0tFURprYPaqstguuiUtjrqVo0U01BFELJUiTYakUW2c07y+8Mv507kZJHiIK/nXznnXN/ren+v7xUPzsf1/cbFxemnn36S2WyW0WiU2WyWdG0XTtGujuTkZG3YsKFE323bttWpU6eUk5OjvLw8jRkzRgUFBfLy8lJCQoIkKSYmpsRzcK5XfLy0tDTb7qCvvvpKFoulwnko6/wqUtQ+NjbWthumiMlkKvccyhrT3nyYzWYZDAbl5+dLks6dO6e8vLwS4xU/7y+++MJWWCk+N0V9FD3DycvLS1lZWTpw4IDMZnOZY1dm/oradezYUTExMbZ5KdqZVNylS5d04cIFW5vWrVtXau5atGih06dPy2q1Kjs7Wz/88IMkqU6dOrbnGZ04ccLWR8OGDXX69GlJ0ty5c3XixIkSWQEAAAAAuNexwwgAAFRK7969lZOToxdffFFms1l169bVlClT5Ofnp+jo6BJtQ0NDFRkZKScnJxmNRoWHh6tOnTrasGGDxo8fLx8fHw0bNkyvv/66Jk6cqFdffVXu7u4aNWqU5syZo/Hjxys/P1+TJk0q0a+7u7tGjx6tsWPHqqCgQEOGDJGzs7NmzJihBQsWyMXFRTVr1lRYWFiZ5+Hv728bb/DgwQoPD5enp6eGDRumiIiISt2GzN75VSQ+Pl7PPfeccnJyFBERUerzis7B3phlzUfXrl01c+ZMvfbaa5o/f77CwsLUrl07W19//OMfFRISogMHDqhv375q3769Vq1ape7du9vmpngf/fv31+jRo1W/fn2NHj1af//73/XII4/YHbsixed/5MiRCg8P19dffy2z2axXXnmlVPsmTZpo/fr1On/+vDw8PNSzZ08dOnSowrmrW7euHnvsMY0cOVKNGzeWv7+/CgsL9T//8z+aNWuWYmNj1ahRI1uxbMaMGZo/f74sFov8/f3l5+envLw8W9aBAwdWeG4AAAAAANzNDIU3ep+Q3yAh5z9yNbipSY2y7yGPO9fhjE/UvlYv1TJ5ODrKXSsqbbMe9hguA5v7cI9JzjupHGu6fNy6OzoKcEcaOnSoli9frvr169/QcZcvX9aECRO0devWKo/97rvv6o9//OMNj30nyMzM1KhRo/Thhx86OgrucXFXo1TPuZEaurRxdBRIyrCkKDHnO91fp5+jo6CSTmTtVmPXDvJ0buroKLjDxGbtUUPXNqrv3NzRUVAF1kKzDqZvUw/3YY6OAgC3RX5Bto5k7tBD9YIcHcVh+NYaAADgDvW3v/1N//3f//2b+mjevPldWSwCAAAAAAC3F7ekAwAAuMXef//9Kh33z3/+8zeP3atXr9/ch6PUqVOH3UUAAAAAANwm7DACAAAAAAAAAACo5igYAQAAAAAAAAAAVHMUjAAAAAAAAAAAAKo5CkYAAAAAAAAAAADVHAUjAAAAAAAAAACAao6CEQAAAAAAAAAAQDVHwQgAAABA9XPkiI69+o2uXHR0EAAAAAC4Mzg5OgAA4N5w4nCcEnOzHB0DAIBKqX/2rBrOW6qkdwLkNK6rNK2RoyMBAAAAgENRMAIA3BStOzRXa7dujo4BAECl1KhVS9/3m6z6z/1BmV1+dnQcAAAAAHA4CkYAgJuiplsNubm5OToGAACV8/vf63c7fy9Jirt6wcFhAAAAAMDxeIYRAAAAAAAAAABANUfBCAAAAAAAAAAAoJqjYAQAAAAAAAAAAFDNUTACAAAAAAAAAACo5igYAQAAAAAAAAAAVHMUjAAAAAAAAAAAAKo5CkYAAAAAAAAAAADVnJOjAwC4Md98840+//xzRURE/Oa+MjMzNWrUKH344Yc3dFxSUpKGDh2qpk2bSpKsVquGDh2qQYMGVer4wsJCjRkzRu7u7vL29lanTp3k5uamQ4cOaerUqXaPiY6O1ldffaWwsLAS76ekpOiXX35Rp06d6014dQAAIABJREFUbugcAAAAAAAAAAD/h4IRgCrx8fHRO++8I+la4WnYsGHq3r27mjRpIkkqKCiQ0Wh/E+OVK1eUmZmp9evXa/HixZKknj17qmfPnjec48iRI0pNTaVgBAAAAAAAAAC/AQUj4C62dOlSWSwWmc1mxcbGasyYMZKkXbt2ad68eZKkVatWyd3dXQ888IDeeOMNubi4yNXVVTNnzpTJZLL1FRsbq8jISK1atUrnz5/X0qVLZTKZ5OTkpLCwMHl4eJSZo06dOmrTpo3Onz+vrVu3KicnRwkJCVq/fr127dql7du3y2g0qnnz5po+fbqWLFmin3/+WbNmzVLdunUlSXv37lV0dLRCQkK0f/9+rVixQg0aNFCHDh1ksVjUtWtXpaena9q0afrxxx8VEBCg4cOHa82aNTIajfL29lZAQMCtm2wAAAAAAAAAuIfxDCPgLmY0GmW1WhUcHKyQkBBt3bpV3bt319GjR2WxWCRJX3/9tXr37q2IiAgFBwdr5cqV6tq1q213kCRdunRJ8+fP18KFC+Xm5qYFCxZo9uzZWrZsmQIDA7V58+Zyc1y6dElnzpyRj4+PnJ2dZbVatX79eqWnp+sf//iHVq5cqZUrVyo3N1f79+/Xiy++qKZNm2rOnDl2+3vjjTe0ePFiLV26VN9//70MBoMkKSEhQfPmzdM777yj7du3q06dOhowYICefPJJikUAAAAAAAAA8Buwwwi4y/n5+UmSPD09lZmZKRcXFz3wwAM6fPiwGjVqpLp166p+/fpKSUmRj4+PJKlz585auXKlJMlsNuull17S3/72NzVs2FBWq1WnT59WaGioJMlisdieVVRcQkKChg4dKklydnbWyy+/rP/6r/+SJN1///2SpDNnzig5OVnjx4+XJF29elV+fn7y9fUt83wsFouys7Pl7e0t6dqt6tLT0yVJ9913n1xcXCRJbm5uys3N/Q0zBwAAAAAAAAAoQsEIuMsVf05QYWGhJKl3797at2+fGjRooD59+kiSbZdOUbui17/++qsCAgK0bds29ezZUwaDQa6urlq7dm2547Zu3brELqXinJ2dbWP6+/tryZIlJT5PTU0ts9+ic7B3fsVvoWevLQAAAAAAAACgarglHXAP6tGjh44cOaL9+/frsccek8lkkpeXlxISEiRJMTExtl0+jRs31tSpU1WrVi198sknMhqNatasmQ4fPizp2i3tvvnmmyrlaNOmjU6dOqWMjAxJ0qZNm3T+/Plyj3F2dpazs7NSUlIkSdHR0eW2NxqNMpvNVcoHAAAAAAAAALiGHUbAPcjFxUUtW7ZUWlqa6tevL0maMWOGFixYIBcXF9WsWVNhYWEljnnllVf0zDPPqFu3bgoNDVVkZKScnJxkNBoVHh5epRz16tXT5MmT9cILL8jFxUUtWrSQt7e30tLSyj3uueee0/PPP6+mTZuqVatWpXYWFefv769XX31V7u7uGjhwYJVyAgAAAAAAAEB1Zyi8jfd0Ssj5j1wNbmpSo+PtGhI30eGMT9S+Vi/VMnk4OspdKyptsx72GC4Dm/vKtW/fPnXo0EFeXl5asmSJ2rZtq/79+zs6FsqRnHdSOdZ0+bh1d3QUAABuWNzVKNVzbqSGLm0cHQWSMiwpSsz5TvfX6efoKKikE1m71di1gzydSz/7FNVbbNYeNXRto/rOzR0dBVVgLTTrYPo29XAf5ugoAHBb5Bdk60jmDj1UL8jRURyGHUYA7jgWi0UvvviiatWqJU9PTz3//POOjgQAAAAAAAAA9zQKRgDuOIGBgQoMDHR0DAAAAAAAAACoNrgvFgAAAAAAAAAAQDVHwQgAAAAAAAAAAKCao2AEAAAAAAAAAABQzVEwAgAAAAAAAAAAqOYoGAEAAAAAAAAAAFRzFIxwwzIuSScXf+foGAAAAAAAAAAA4CZxcnQA3F2+D4lR411bZc2toWN9XR0d566TlPmz6tY5JgO1Wtxjfs1PUnPfBo6OAQAAAAAAAKCKKBjhhphae8jcqKXMP6bJvXZtR8e569QscFHt2rUpGOGek53v5ugIAAAAAAAAAH4DCka4IZ3GtFatv4VKCQlSq1aOjnPXuZDmqVYerSgY4Z7jmperHGu6o2MAAAAAAAAAqCK+tUbVtG7t6AQAAAAAAAAAAOAmoWAEAAAAAAAAAABQzVEwAgAAAAAAAAAAqOYoGAEAAAAAAAAAAFRzFIwAAAAAAAAAAACqOQpGAAAAAAAAAAAA1RwFIwAAAAAAAAAAgGqOghEAVFHfvn319NNPKygoSE8++aTmzZungoKCSh+/bNkyBQUF6dy5cxo0aJAkacyYMbp8+XKZx4waNUopKSml3t+zZ4/d9mW9/1vb3ozjfmu/UVFRWrJkyS0Z+0bNnj1b0dHRVT5+8eLF+vLLL2/4uOJzcDPWQJGUlBQdO3bsho/7rY4eParU1NRS79+qNVaWisZbsWLFbc9UlqpkcdT1BQAAAAAAdzYKRgDwG7z99tvatm2bPvjgA125ckWfffZZic/LKyBFRUVpzZo18vDwsL23bt06eXp6VinH9X799Vft3LnzN/VRkRsd40ZUlKdnz56aOnVqlfu/keLenar4HNyMNVDkyJEj5RYUbsXcFRQUaOfOnXYLRlVZm79FReM9//zzCgwMrHL/Nzp/5bWvSpaKri8AAAAAAKienBwdAADuBUajUZ07d9a5c+d09epVjRs3Ti1atFDXrl3Vu3dvzZs3T7m5ucrNzdWkSZN09OhRXbx4UaGhoQoODrb1M3ToUC1fvly5ubkKDQ2Vm5ubevTooS+//FKbN2+WJH300Uc6fPiw0tPTtWTJEkVFRSkuLk7Tp09XZGSkra9Fixbp2LFjeuutt/TUU08pPDxceXl5MpvNmjJlinx9fW1tt27dWqKPXbt2afv27TIajWrevLmmT5+uS5cuaebMmTIYDMrOztaMGTO0ceNGHTt2TFs2fqyBI/7vS+u0tDTNnTtXmZmZqlmzpubNm6c6depo0aJFSkhIkNls1hNPPKE///nPWrp0qSwWi8xms2JjYzVmzBhdvHixRJ7169crKipKBoNBXbt21cSJE7V3715FR0drypQpevbZZ9WjRw9dvHhRGRkZWrp0qUwmk958803Fx8crNzdX/fv314ABA7RkyRLl5OQoISFB69evt2XOz8/XzJkzdfnyZeXm5mrUqFEKDAy0m69Xr15au3atDhw4IG9vb125cqXUmkhJSSk1XxcuXFBMTIymT58u6doutaKdRQcPHtTnn3+uCxcuaPLkyXr44Yc1YsQIBQQEKDExURcvXlS/fv0UGxur+Ph4LVu2TDExMYqOjpaPj0+Fa2Ds2LF25+PQoUNas2aNjEajatSooRkzZthee3t7KyAgwNbfsGHD1L17d129elXBwcF2+ysaPysrS+fOndO4cePUo0cPffrpp/r444/l6uqqVq1aadq0afrmm2+0c+dOXblyRX/4wx+0Z88enT17VuHh4WrSpEmptblw4UK7a6g4e2vParXaXf8jRoxQ7969lZSUpLNnz2r+/Pklfp9ee+01u2ti8eLF6tSpk9zc3LRjxw55enoqKSlJ/v7+mjhxojIyMkr9znfs2LHU/BUpa86Kt3/llVfsnntRlr59+9q9HtfPR3BwcJnXFwAAAAAAVG8UjADgJsjPz1dUVJSCgoLk7Oys+Ph4RUZGqkmTJlq2bJn69Omj3r17Kzk5WcHBwdq8ebM+/PBDLVy40G5/b7/9tgYNGqT+/ftr9erVMhr/b0Oot7e3xo8fr40bN2rXrl169tlntX79+hKFAkkaPny4LBaLxo4dqyVLlqh79+4KCgpSXFycIiIitGnTJlvbwYMH2/pIT0/XP/7xD23YsEFGo1Fz5szR/v37de7cOfXs2VPDhw9XQkKCfvnlF9sYQ555QjnWdFt/mzZt0qOPPqoBAwZoy5Yt2r9/v2rVqqXU1FStXr1aeXl5CgoKUq9evWQ0GmW1WhUcHKxTp05p+fLlWrlypS1PQUGBDAaD1q5dK2dnZwUFBSkoKMg2lslkUmJiopYtW6YGDRpo6tSpOnHihDIzM5WXl6fly5fLarVq6NCheuSRR+Ts7KysrKwSxSJJunz5srp3767HH39caWlpGj16tAIDA+3m8/X11b///W9t3bpVFovFdkvB4nbv3l1qvsqTk5OjN954QwkJCZoxY4YefvhhGY1GtWnTRs8++6xeeOEF5ebm6tVXX1VkZKQOHTokk8lU6vqVtQb2799vdz62bNmil19+Wb6+voqKilJ+fr4GDBggFxeXUsUEZ2dn+fj4qF+/fmX2ZzKZlJ+fr7lz5yo5OdlWnNmwYYO2bNkiV1dXvfTSS/r222/l5OSk+Ph4bdmyRU5OTvrf//1fvfDCC7Zi0fXntm/fPrtrqG7duuWuvZMnT9pd/0ajUU2aNNGIESP03nvvlfp9+vnnn+2uiSJGo1FJSUmKiIhQYWGh+vXrpwkTJmjTpk12f+eLz19x9uasR48eJdqXde5Fyroe18/HDz/8UOb1BQAAAAAA1RsFIwD4DZ599llbMScwMFABAQHKz8+Xp6en7Uvv48ePKyYmRtu2bZMkZWdnV9hvfHy8hg8fLknq1auXDhw4YPusa9eukqSGDRvqzJkzlcp58uRJPf7445Kkdu3a6fz58yosLJTBYCjV9syZM0pOTtb48eMlSVevXpWfn58eeughTZ06VT///LMeffRR/f73vy/ztlYnT57UE088IUkaMmSIJGn16tXq0qWLJMnV1VWtW7dWUlKSJMnPz0+S5OnpqczMzBJ9GY1G1apVS8HBwXJ1dVVaWprS09NLtPHy8lKDBg0kSR4eHsrIyNCJEyd08OBBjRs3TtK123pdvHhRknT//feXyuzh4aGzZ89q+vTpcnJyKjHG9fkSExPVtm1bGY1Gubi4qGPHjqX6szdfX331ld35KmovSa1bt9alS5dUWFgoSWrbtq0kyd3dXW3atLH9nJWVpXr16pXZ3/WOHz9udz569+6tsLAw/eEPf1CfPn3UsmXLcvu57777yu1Pkvz9/SVdK26mpqbqzJkzateunVxdXSVJnTt31unTp9W+fXv5+fnJyalyfx2JjY21u4aKMkn2195HH31kd/1L/3dtPTw8Sv0+lbcmivj6+tr+DKhZs6Zyc3PL/Z0vnrW46+esKF9R+7LOvUhZ18PefBQvFgMAAAAAABShYAQAv8GGDRvk5uZW6n0XF5cSr2fMmKEOHTpUut/ixZzrizrFv1wv+lK5KuwVi4re9/f315IlS0p9tmXLFh08eFAbN27U999/r27dutnto7Cw0O5zV4qPWfwci++guv6czpw5o08++USbNm2Si4uLrZBWXPHji/c9aNAgDRs2rMRn//73v+Xs7Fyqj48//lj5+fmKjIxUdna2+vfvb7f/onzFc9o7Vx8fn1Lz1apVqxJtrFar7efic1P856JdRNf/fKPXvqz56NChg7p166b9+/dr+vTpeuWVV8rtp2htl9Xfzp077c5NWdfe3rWo6Dzs9VP8vco8I6jouPLmtLw1UcTe2pPK/p2//s8Ge2MXz1+8fXnnXtb1qOx8AAAAAAAAGCtuAgD4Lfz9/bVv3z5JUnJysjZs2FDhMS1atFBsbKyka7eaqojVai31ZbfRaJTZbJYkdezYUTExMZKu7VRo0aJFmX20adNGp06dUkZGhqRruxHOnz+vL774Qj/++KMCAgL0/PPP69ixYyXGKM7Pz8+2K+qjjz7S1q1bS2TIyclRYmJiqQKKvTxpaWlq0KCBXFxcFBcXp59++snumNfz9/dXVFSUCgsLZbFYtGjRonK/OE9LS1PTpk0lSV988UW5BZkWLVro9OnTslqtys7O1g8//FCqjb35ql27tu15RxcuXLDNsSR9//33kqSkpCQ1bNiwzIJeWSpaA2XNx7p161SzZk0NHDhQAwcOVGxsbJnXtbjy5vfw4cOSpMTERDVq1Ejt2rVTXFyc8vPzbZ8X7ewpzmAw2NrYO7fKrKGK1l5Z69/eeDeyJq6fmxv9nb9+zq6//hWde1nXw958VOb6AgAAAACA6ocdRgBwi40aNUpz5szR+PHjlZ+fr0mTJlV4zF//+leFhYVpx44duu+++0rsgrCnU6dOGjFihDZu3GjbgdS8eXMlJSVpwYIF+tvf/qbw8HB9/fXXMpvNdneRFO9j8uTJeuGFF+Ti4qIWLVrI29tbV69e1cKFC+Xs7CyLxaLnn3/eNsbfX9+kUVOeKHHOs2bN0q5du1SrVi0tWLBAderU0bfffqsJEyYoPz9fzz33nGrXrl3hOa1du1Z5eXkaP368fHx8NGzYML3++ut2dxoV16NHDx06dEijR49WQUGB/vSnP5XaDVLcH//4R4WEhOjAgQPq27ev2rdvr1WrVtlt27BhQz322GMaOXKkGjduLH9//1LFhFatWpWar44dO2rDhg0KDQ1Vo0aN1KxZMxUUFMhqtcrJyUnTp0/X+fPnNXny5HLPrbz5KmsNBAcH250Pb29vTZgwQTVr1pSTk5PCw8OVlJSkV199Ve7u7ho4cGCV5nfy5Mm6dOmSJk+eLHd3dz3zzDOaOHGiTCaTfH191a1bN0VHR5fos2vXrpo5c6Zee+21EgWlonPbsGFDhWvI3tqzWq0Vrn97czl79myFhYVVak1cn+FGf+evn7Pr9ezZs9xzL+t62JuPs2fPVnh9AQAAAABA9WMo/C33M7pBCTn/kavBTU1qlH7WA+58hzM+UftavVTL5OHoKHetqLTNethjuAxs7kMFTp8+LYvFoo4dO2rfvn3as2ePZs+e7ehYZUrOO6kca7p83Lo7OgocbPHixerUqZP69u3r6Ch3jd8yZwsWLFC3bt0UGBh4C5IB1Ufc1SjVc26khi5tHB0FkjIsKUrM+U731+nn6CiopBNZu9XYtYM8nZs6OgruMLFZe9TQtY3qOzd3dBRUgbXQrIPp29TDfVjFjQHgHpBfkK0jmTv0UL0gR0dxGHYYAcAdqEaNGpo1a5acnJxkNBoVFhbm6EgA7jD/+te/FB0drWeeecbRUQAAAAAAwD2AghEA3IFatGihTZs2OToGcMNeeuklR0e461R1zgYMGKABAwbc5DQAAAAAAKC64r5YAAAAAAAAAAAA1RwFIwAAAAAAAAAAgGqOghEAAAAAAAAAAEA1R8EIAAAAAAAAAACgmqNgBAAAAAAAAAAAUM1RMAIAAABQ/eTnOzoBAAAAANxRnBwdAHcPi9mqSymXlGXkH9dVdSU9Syn5KZIMjo4C3FS/5l9WbkGmatf4xdFRAAColFrHjytx+r/lMqSvrj5ZW/WaOToRAAAAADgWBSPckB8Tz6mGqY6jY9y1fsm8rMQ6iTKwuQ/3mNT8ZOUVXFVhjSRHRwEAoFI8kpNV7/DnSjXUkLXB76Shno6OBAAAAAAORcEIlebkbFLXh7qolsnD0VHuWua003rI4yEKRrjnJOfVVY41XT5uDzk6CgAAlWOx6ORbH6j9U2113jnK0WkAAAAAwOEoGAEAAACofh5+WL4P//+frzo0CQAAAADcEdjmAAAAAAAAAAAAUM1RMAIAAAAAAAAAAKjmKBgBAAAAAAAAAABUcxSMAAAAAAAAAAAAqjkKRgAAAAAAAAAAANUcBSMAAAAAAAAAAIBqjoIRAAAAcBcqKCjQkiVL9Ne//lWjRo3SiBEj9MMPP0iSUlJSdOzYsUr3daPtK5KcnKxRo0aV22bPnj03bbzr+6tK3xtXva/PPvvsZkayq6JsY8aM0eXLl295jsqoSpajR48qNTX1FiUCAAAAcCtRMAIAAADuQv/7v/+rlJQUbd68WZs2bdK0adO0bt06SdKRI0cqXQAqKCi4ofY3y9tvv31L+vv111+1c+fOm9r3zVKZbOvWrZOnp2eVxygoKLhp7auSZefOnRSMAAAAgLuUk6MDAAAAALhxV69eldlsVmFhoQwGgzp16qRly5YpIyNDa9askdFolLe3t5ycnLRu3Tq5uLiodu3amj9/viwWi8aNG6cWLVrI399fH3zwga19QECAbYygoCCtXbtW7u7u+vDDD5Wamqo2bdroiy++kJubm1JSUtS5c2eNHTtWycnJevXVV+Xp6almzZrZ+oiKiio1/vbt2xUXF6fp06crMjJSb775puLj45Wbm6v+/ftrwIABZZ53Rf0ZDAYdO3ZMb731lkaOHKmZM2fq8uXLys3N1ahRoxQYGKi0tDTNnTtXmZmZqlmzpp4N7S9JOnbsmD777DOdP39eU6dOVa9evUqMHRsbq8WLF8tiscjf318vv/yyTp48qTfeeEMuLi5ydXXVzJkz5erqqmeffVY9evTQxYsXlZGRoaVLl2rRokW2bP369dPs2bNlMplkNpsVFhamli1baujQoVq+fLneffddWSwWmc1mxcbGasyYMerVq5fi4uK0dOlSmUwmOTk5KSwsTC4uLrbr2bVrVz355JO2zIMHD1afPn2UmJioX375RXPnzlW9evVKtH/00UcVHh6uvLw8mc1mTZkyRb6+vrYszs7OmjdvnnJzc5Wbm6tJkyapY8eOpeYjMDBQe/bs0dmzZxUeHq4mTZrcpNUOAAAA4HZghxEAAABwF+rbt69ycnL0+OOPKzIyUtHR0SosLFTdunU1YMAAPfnkkwoICFB6errCw8O1du1aNWzYUHv37pWzs7Pi4+P13HPPaejQoSXaV8RoNCopKUkzZ87UihUr9Pnnn+vy5cvatGmTnnrqKb3++utq2rSprb298QcPHqw6deooMjJS+/fvV15enpYvX67Vq1frvffeU3p6epnjV9Tf8OHD1alTJ40dO1aXL19W9+7dtXbtWi1dulQrVqyQJG3atEmPPvqo1q1bp4cffljfHzgp6VoRbsWKFZo7d662bt1aauwFCxZo9uzZevvtt5Wdna3ExERFREQoODhYK1euVNeuXfXOO+/IZDIpMTFRQ4YMUUREhFxcXHTixIkS2VJSUjRmzBitXr1af/nLX/T++++Xmmer1arg4GCFhITY8hRlWLZsmQIDA7V58+YS17N4sUiSTCaTmjdvrnnz5mngwIF69913S7XfuHGjunfvrpUrV+rll1/WwoULS/SxadMm9enTR0uXLtWsWbNsn18/Hx4eHvL19VVwcDDFIgAAAOAuxA4jAAAA4C5Uo0YNrVq1SklJSTp48KBWr16tjz/+WIsWLSrRrkGDBlq6dKmtSNCqVStJkqenZ5W/1Pfz85PReO3/nrVq1Urnzp1TfHy8hg4dKknq3LmzPv3003LHL3L8+HEdPHhQ48aNk3TtFmkXL15UvXr17I5dUX/FeXh46OzZs5o+fbqcnJxshaiTJ0/qiSeekCQNGTJEcVej9NFbe/Tggw9Kkho1aqTMzMwSfVmtVl26dMm2e2rWrFmyWq1KSUmRj4+P7bxXrlwpSfLy8lKDBg1sOTIyMkqck5eXl1atWqXt27crLS1NdevWtTvP0rVrlZmZKavVqtOnTys0NFSSZLFYbMW58q6nv7+/JKl9+/b6/PPPS7U/efKkHn/8cUlSu3btdP78eRUWFtqOP378uGJiYrRt2zZJUnZ2tt35AAAAAHB3o2AEAAAA3IVycnJkMpnUsmVLtWzZUk8//bT69euny5cvl2gXFhamt99+W40aNdIbb7xhe9/FxaXCMQwGg+1nq9Vq+7n4c28KCgps7YqKDMWLDWWNX3yMQYMGadiwYRXmqUx/xX388cfKz89XZGSksrOz1b9/f1s+e8/uMZlMtp+Ln0OR4nNQPH/xY4peFxXUyurvzTffVJ8+fdS3b1/t27dPO3bsKNV38T6K+nZ1ddXatWtLtMvPzy/3ehaNXTx/Rde/+HlJ0owZM9ShQwfba6vVanc+AAAAANy9uCUdAAAAcBd68803tW7dOlsx4MKFCzIYDKpXr56MRqPMZrPtGTheXl7KysrSgQMHZDabS/VV1P56derU0ZUrVyRJJ06csL1//Phxmc1mmc1mxcfHq3nz5mrZsqWtzYEDBySp3PGtVqsKCwvl7++vqKgoFRYWymKxaNGiRSooKNDVq1eVnJxcIk9l+it+LmlpabYdOF988YVtrvz8/GwZP/roI+36aF+F820ymdSwYUOdPn1akjR37lydOnVKXl5eSkhIkCTFxMTI19e3zD7KyvbVV1/JYrFUmMFoNKpZs2Y6fPiwJOnrr7/WN998U+FxRe1jY2Ntu6GK69ixo2JiYmxtWrRoUeJzf39/7dt3bY6Sk5O1YcMGu/Nx4sQJGQwG5efnV5gJAAAAwJ2HHUYAAADAXWjSpElauHChBg8eLGdnZ7m6uuq1116TyWSSv7+/Xn31Vbm7u6t///4aPXq06tevr9GjR+vvf/+7fv/735foq3j7gQMH2t4PCgrSrFmz1L59e9WsWdO2K6dp06YKDg7WpUuX9OSTT8rDw0MjR45UaGioPv/8c3Xs2FEFBQVycnKyO/4jjzyiTp06acSIEdq4caMOHTqk0aNHq6CgQH/6059kNBp1+PBhffLJJ3r99ddteSrT37Jly5SUlKQFCxZoyJAhCgkJ0YEDB9S3b1+1b99eq1at0qhRozRr1izt2rVLtWrV0piwx/Xl1gMVzvmMGTM0f/58WSwW+fv7y8/PTzNmzNCCBQvk4uKimjVrKiwsrMzjmzdvbss2ePBghYeHy9PTU8OGDVNERIStKFOe0NBQRUZGysnJSUajUeHh4RUeU/S8opycHEVERJT6fOTIkQoPD9fXX38ts9msV155pcTno0aN0pw5czR+/Hjl5+dr0qRJZc5H165dNXPmTL322mu2W+oBAAAAuDsYCu3da+EWScj5j1wNbmpSo+PtGhI30eGMT9S+Vi/VMnk4OspdKyptsx72GC4Dm/twj0nOO6kca7p83Lo7OgoA4Bbbu3evoqOjFRJ4ePJ7AAAgAElEQVQSckvHKSgo0IoVK2zFiVsp7mqU6jk3UkOXNrd8rNtt6NChWr58uerXr3/Dxz799NNat25dmc+TulUyLClKzPlO99fpd1vHRdWdyNqtxq4d5Onc1NFRcIeJzdqjhq5tVN+5uaOjoAqshWYdTN+mHu6Vu20sANzt8guydSRzhx6qF+ToKA7Dt9YAAAAA7ji//vqr/vCHPzg6RrUVERGhevXqqW7duo6OAgAAAOA24ZZ0AAAAACotICBAAQEBt3wcLy8veXl53fJx7nXvv/9+lY671TvIAAAAANx52GEEAAAAAAAAAABQzVEwAgAAAAAAAAAAqOYoGAEAAAAAAAAAAFRzFIwAAAAAAAAAAACqOQpGAAAAAAAAAAAA1RwFIwAAAAAAAAAAgGrOydEBAAAAAMDRcnPzlJqZqtzcXOXn58tisUiSnJycVLNmTbm7u6tGjRoOTgkAAAAAtw4FIwAAAADVXvTeQ2ri7qOaNWvK1dVVTk7X/qmUnZ2tixcvKjU1VV5eXmratKmaNGni4LQAAAAAcPNRMAIAAABQ7QX+z3+roUubctskJyfr1KlTSk9Pl5+f321KBgAAAAC3B88wAgAAAIBK8Pb21qOPPqqffvpJV69edXQcAAAAALipKBgBAAAAQCUZDAY5OTnJarU6OgoAAAAA3FQUjAAAAABUe9lpJp07lFNum8zMTB04cEAeHh6qW7fubUoGAAAAALcHzzACAAAAUK2Z5xxV5icfyT0uSidj31aNGjXk5HTtn0pms1lZWVlKTU1VYWGhmjdvLh8fHwcnBgAAAICbj4IRAAAAgGotf2JXqZ6Xri7/VTVMJmVlZdluOefk5KRatWqpSZMmql+/voOTAgAAAMCtQ8EIAAAAQLVWq4FZ9aZ1VsPQpx0dBQAAAAAchmcYAQAAAAAAAAAAVHMUjAAAAAAAAAAAAKo5CkYAAAAAAAAAAADVHAUjAAAAAAAAAACAao6CEQAAAAAAAAAAQDVHwQgAAAAAAAAAAKCao2AEAAAAAAAAAABQzVEwAgAAAAAAAAAAqOYoGAEAAAAAAAAAAFRzFIwAAAAAAADuYUlJSerRo4eCgoIUFBSkQYMGacaMGcrOznZInqNHjyo1NbXU+3v27Lkl4+3du1cRERGl3l+8eLG+/PJLRUVFacmSJWUeP2rUKKWkpJQ7RlH26OhohYeH/7bAVZSSkqJjx46V22bMmDG6fPnybUoEALjbUDACAAAAAAC4x/n4+Gjbtm3atm2bPvjgA9WtW1f/+Mc/HJJl586ddgtGb7/9tgPSSD179tTUqVOrfPyvv/6qnTt33sREVXPkyJEKC0br1q2Tp6dnlccoKCio8rEAgDufk6MDAAAAAAAA4PYxGAzq2rWrvvnmG0lSXFycli5dKpPJJCcnJ4WFhcnDw0Nr167Vt99+q8aNGys7O1tPPfWU8vLyFBMTo+nTp0uS+vbtqy+//FIZGRmaN2+ecnNzlZubq0mTJqmgaYEWzn5TGanZysrK0pAhQ+Tt7a09e/bo7NmzCg8PV5MmTSRJW7duVVxcnKZPn66FCxdq0aJFSkhIkNls1hNPPKE///nPJc4hMjJSkpSVlaVz585p3Lhx8vPz07hx47Rt2zZJUkhIiAYNGiRJunTpkqZNm6YLFy4oICBA48aNs/W1d+9eRUdH65VXXtHs2bN16dIlW96icT/66CMdPnxY6enpWrJkiS23JC1atEjHjh3TW2+9pY4dOyo9PV3Tpk3Tjz/+qICAAE2cONHu/HTs2LHEOf3rX//SRx99JIvFor/85S/605/+pE8//VQff/yxXF1d1apVK02bNk379+/Xjh075OnpqaSkJPn7+2v48OFas2aNjEajvL291bZtW82ePVsmk0lms1lhYWFq2bKlhg4dquXLl+vdd9+VxWKR2WxWbGysxowZo169epVYCyaTUX980V/7ftinnTt36sqVK5o8ebL8/Pxu2loEANxZKBgBAAAAAABUI1arVV999ZU6d+4sSVqwYIEWLlyoBg0aaMeOHdq8ebOGDh2qL7/8Ulu3bpXVatWTTz4po7HsG9Vs2rRJffr0Ue/evZWcnKzg4GD9ZUofXc3K1urVq5Wdna0vvvhCv/vd7+Tr66sXXnihRNFl8ODBWr9+vSIjI7Vv3z6lpqZq9erVysvLU1BQkHr16qW6deva2ptMJuXn52vu3LlKTk7WlClTtGbNmjLzxcfH65///KcMBoMGDRqkp556qlSbs2fPKisrq0TeIt7e3ho/frw2btyoXbt26dlnn7V9Nnz4cFksFo0dO1bR0dFKSEjQli1bVFhYqP79+2vChAl252fz5s22Pq5cuaJ3331X7733nvLz8xUcHKzu3btrw4YN2rJli1xdXfXSSy/p22+/ldFoVFJSkiIiIlRYWKh+/fppwoQJGjBggFxcXBQQEKAjR45ozJgxeuihh7R79269//77CgkJsY1nNBpltVoVHBysU6dOafny5erVq1eJtfCvTz/R7q2f6fGefoqPj9eWLVvk5MRXiQBwL+NPeQAAAAAAgHtcQkKChg4dKkn66aef9PTTT+upp56S1WrV6dOnFRoaKkmyWCxq2rSpEhMT1a5du/+/08Qkf3//cvs/fvy4YmJibLt7srOz1bi5l1J/vazQ0FA98sgj6t+/f6WyxsbGqkuXLpIkV1dXtW7dWklJSbrvvvtKtCvK5O3trdTUVBUWFpbZ5wMPPCBXV1dJUtu2bXXu3LlSbVq2bKlLly7Zzdu1a1dJUsOGDXXmzJly8993331ycXGRJLm5uSk3N9fu/BR39uxZtWnTRs7OznJ2dtby5cv1n//8R+3atbPl7ty5s06fPq327dvL19fXVsCrWbOmcnNzS/Tn5eWlVatWafv27UpLSytRbCtStFPI09NTmZmZpdaC2ZyvGo2strYUiwDg3sef9AAAAAAAAPe41q1b65133pEkhYaGqkWLFjKZTCooKJCrq6vWrl1bov3BgwdLFGCKnl1jMBhKtLNarbafZ8yYoQ4dOthex2bt0fINkfrpxGXt3r1b27dv16pVqyqVt/g4hYWFpcYter94vuvbWCwWu/3Zey1dK05t3rxZ33//fam8xYsl5RWmpGu7n+zlvH5+rm9TfC7t5Sw+D9fv9ro+05tvvqk+ffqob9++2rdvn3bs2FGq7+J9FPVdfC1YC806mL5NipWcnZ3LPF8AwL2j7L3EAAAAAAAAuOe8+OKLWrdundLS0mQ0GtWsWTMdPnxYkvT111/rm2++UYsWLXT69GlZrVZlZ2fr6NGjkqTatWvrypUrkqQLFy4oIyND0rXdPvv27ZMkJScna8OGDUqKO699X0Xrd7/7nV5++WUlJSVJulYEyc/PL5XLarWqsLBQHTt2VExMjCQpJydHiYmJatWqVan2RZkTExPVqFEj1a5dW1lZWSooKJDValVcXJyt7fHjx23P7ImPj1fz5s1L9Xfy5Ent3r27VN6KGI1Gmc3mctvYm5/i2rZtq1OnTiknJ0d5eXkaM2aMWrZsqbi4ONtcHT58uNznBxXPkZaWpqZNm0qSvvrqqxLFs/KOL74W9n29T8cPJFR4HADg3sEOIwAAAAAAgGqkQYMGCgoK0htvvKG5c+cqNDRUkZGRcnJyktFoVHh4uOrXr6+AgACNHDlS3t7etp0xDzzwgDZs2KDQ0FA1atRIzZo1U0FBgUaNGqU5c+Zo/Pjxys/P16RJk2RpdEEbNv1Lu7bvlcVi0TPPPCPp2u3dZs6cqddee61EAaRTp04aMWKENmzYoG+//VYTJkxQfn6+nnvuOdWuXdvuuUyePFmXLl3S5MmT5eTkpN69e2vSpEny9vZWmzZtVFBQoIKCArVu3VozZ87UhQsX9MQTT8jDw6NUX02bNtXq1av1wQcflMhbkebNmyspKUkLFixQr1697LaxNz/Fubu7a/To0Ro7dqwKCgo0ZMgQNWjQQM8884wmTpwok8kkX19fdevWTdHR0XbH8Pf316uvvip3d3cNHjxY4eHh8vT01LBhwxQREWErWJWn5FowaMDLnaWfKzUNAIB7gKGwon20N1FCzn/kanBTkxodb9eQuIkOZ3yi9rV6qZap9F+qUDlRaZv1sMdwGdjch3tMct5J5VjT5ePW3dFRAAC4YXFXo1TPuZEaurRxdBRIyrCkKDHnO91fp5+jo6CSTmTtVmPXDvJ0buroKLiFZs+erb59+6pHjx6VPiY2a48aurZRfefSu3l+q8WLF6tTp07q27fvTe8b1xTdkq6H+zBHRwGA2yK/IFtHMnfooXpBjo7iMHxrDQAAAAAAAAAAUM1xSzoAAAAAAACUa/bs2Y6OUMJLL73k6AgAANxz2GEEAAAAAAAAAABQzVEwAgAAAAAAAAAAqOYoGAEAAAAAAAAAAFRzFIwAAAAAAAAAAACqOQpGAAAAAAAAAAAA1RwFIwAAAAAAAAAAgGqOghEAAAAAAAAAAKiWoh5arh/fOaarlw2OjuJwTo4OAAAAAACOFrXngFzMJx0dA5JyCzJ1KT9R52pYHR0FlXQhL1buTsmqZfJwdBTcYZLzTqqu00+qbfJ0dBRUQYGsSsiOVarbp46OAgC3VPvcYzKMWK8f7h+pGl83cXQch6JgBAAAAKDae/jRh9TQpY2jY0BShiVFiTnf6f46/RwdBZV0IquGGrt2kKdzU0dHwR0mNstNDV3bqL5zc0dHQRVYC806mJ6lHu5/dnQUALilosJ/VLO1f5P/QF+d1Q5Hx3EoCkYAAAAAqj2DwSCDgVtQ3AmKrgXX4+7BNUNZWBt3N4O4fgCqh/8+9LwkKb8gW8p0cBgH4xlGAAAAAAAAAAAA1RwFIwAAAAAAAAAAgGqOghEAAAAAAAAAAEA1R8EIAAAAAAAAAACgmqNgBAAAAAAAAAAAUM1RMAIAAAAAAAAAAKjmKBgBAHCPGjx4sBISEmyvX3jhBb333nu21++8846WLVtm99ioqCgtWbJEkrRnz55SnxcWFmr06NF66aWXqpTt3LlzCgoK0tq1a23vLV++XJ999lmV+quqTz/9VMuXL7+tY94q9q5TcStWrKiwza2yd+9eRURElHp/8eLF+vLLL0ustxtRdD5VPb4iKSkpOnbsWLltjh49qtTU1Js+NgAAAAAAtxsFIwAA7lEPPvigvvvuO0mS1WpVSkqKYmJibJ8fPnxY3bp1s3tsz549NXXqVEnS22+/XerzK1euKDMzU4sXL64wR0FBQanX4eHh6tGjR6XPxV4/d4vbkfvXX3/Vzp07y23z/PPPKzAwsMpj3MrzKL7ebkTR2qzq8RU5cuRIhQWjnTt3UjACAAAAANwTnBwdAAAA3BrdunXTZ599pqCgIJ08eVL333+/Tpw4ocLCQhUWFurEiRN64IEHtH79ekVFRclgMKhr166aOHGi9u7dq+joaPn4+CguLk7Tp09XZGSkre8lS5bo559/1qxZszR79mwtWrRICQkJMpvNeuKJJ/TnP/9ZS5YsUU5OjhISErR+/XrbsQaDQcuWLdOnn36qK1eulMh87NgxffbZZzp//rymTp2qLl26aNy4cWrRooW6du2qJ598stR55ufna+bMmbp8+bJyc3M1atQoBQYGaunSpbJYLDKbzYqNjdWYMWPUq1cv7d+/XytXrlTz5s1Vo0YN1a9fv1R/ISEhys3NVfPmzbV//35t2bJFy5cvV5cuXfTYY48pKSlJERERWrt2reLi4rR06VKZTCY5OTkpLCxMx44d086dO3XlyhU9+uijOnr0qObPny9JWrdundzc3DR06FDbmLGxsVq8eLEsFov8/f318ssv68qVKwoPD1deXp7MZrOmTJkiX19fjRgxQr1791ZSUpLOnj2r+fPna9myZTp27JjeeustjRw50u58LF68WJ06dZKbm5t27NghT09PJSUlyd/fXxMnTlRGRobmzZun3Nxc5ebmatKkSerYsaOGDRum7t276+rVqwoODrZlLloPWVlZOnfunMaNG6cePXrYdo65u7vrww8/VGpqqtq1a6dLly5p2rRpunDhggICAjRu3DhbX0XrLSQkxO5c7N+/X+vWrZOLi4tq166t+fPna/v27ba12a9fvxLHv/HGG3JxcZGrq6tmzpyp48eP2z3n4g4dOqQ1a9bIaDSqRo0amjFjhu21t7e32rZtq9mzZ8tkMslsNissLEyXL1/Wnj17dPbsWU2bNk2zZs3Stm3bJEkhISEaNGiQmjVrppkzZ8pgMCg7O1szZsxQhw4dKvdLDAAAAADAbUTBCACAe9Tvfvc7W5Hi8OHD6ty5s7Kzs3X27FkVFhaqZcuWcnFxkcFg0Nq1a+Xs7KygoCAFBQXZ+hg8eLDWr19folgkSS+++KLi4+M1Z84c7du3T6mpqVq9erXy8vIUFBSkXr16ydnZWVlZWSWKRdK1glHNmjXtZr569apWrFihH374QWvWrFH37t0VHx+vyMhINWnSxO4xly9fVvfu3fX4448rLS1No0ePVmBgoIxGo6xWq4KDg3Xq1CktX75cvXr10ptvvqlly5apcePGCgkJKdXf3r17VbduXb3++utKSEjQtm3bZDKZypznBQsWaOHChWrQoIF27NihzZs368EHH1R8fLy2bNkio9GorVu3Kjs7W25ubtq3b5/efPPNUn3MmzdPzZo105w5c5SYmKjt27ere/fuCgoKUlxcnCIiIrRp0yYZjUY1adJEI0aM0Hvvvaddu3Zp+PDhslgsGjt2rH7++We781HEaDTaCl6FhYXq16+fJkyYoE2bNqlPnz7q3bu3kpOTFRwcrM2bN8vZ2Vk+Pj7q169ficwmk0n5+fmaO3eukpOTNWXKlHJ3jcXHx+uf//ynDAaDBg0apKeeeqrM+bx+LtLT0xUeHq5mzZpp4cKF2rt3b4m1uXfvXtvxERERmjNnjnx8fPT+++/rnXfeUZcuXeyes8FgsB23ZcsWvfzyy/L19VVUVJTy8/M1YMAAubi4KCAgQEeOHNGYMWP00EMPaffu3Xr//fcVEhIiX19fvfDCC/Ly8rJ7Prt371bPnj01fPhwJSQk6JdffilzjgAAAAAAcCQKRgAA3KNq164tLy8vJSQk6LvvvlNISIhycnJ0+PBhFRQUqFu3bjIajapVq5aCg4Pl6uqqtLQ0paen39A4sbGx6tKliyTJ1dVVrVu3VlJSkiTp/vvvv6G+HnzwQUlSo0aNlJmZKUny9PQss1gkSR4eHjp79qymT58uJyenEvn9/PxsfWRmZspisSgjI0ONGzeWJHXu3Fk///xzif7Onj2rjh07SpJat24tDw+PMse2Wq06ffq0QkNDJUkWi0VNmza1je3kdO2vWoGBgdqzZ4+6dOkiDw8PeXp6lujj0qVLatasmSRp1qxZkqSTJ0/q8ccflyS1a9dO58+fV2FhYYnz8vDw0JkzZyo9H0V8fX1lNF67M3HNmjWVm5ur48ePKyYmxrZDJjs729b+vvvus3v+/v7+kiRvb+//x96dh0Vd7n0cfzMwICiJlqLgCrijtrilHjOP2slSW90zTLPN1Mxd0RJzwWOFa5l7dlpOppWa9pTlvpRYKajIlikahig7sz5/+DAPyIyiqZR8XtfldcHvdy/fe5mpa77cvyEtLc0RnzN33nknXl5eANSrV48TJ04UK+NqLv744w+ioqIwGo0kJCRQt25dp30UPHoxODgYuLi+Cxcu5J577nE65sKJy86dOxMeHs4DDzxAly5dqFOnTpG2q1atyqJFi1i/fj3p6encdtttLsdaWOvWrRk1ahRnzpzh/vvv59577y1RPREREREREZGbTQkjERGRW1jLli05ePAgf/zxB9WqVePOO+/kvffew2Kx8NRTT3H8+HE+//xzVq5ciaenJwMGDLimfgqf1LDb7Y7fjUbjVbVT+CRPQfLB09PzsnXWrVuHyWQiMjKSnJwcunfv7rhXkCAo3F5hrhIcha9brdZi9wuuubm54eXlxZIlS4rc3717d5Gxd+/enTfffJOMjIxiJ3Vc9eFMwbw6m6cCl5uPAoXnpXAbrh6X5moNCvdd8B1HhfdC4XEVvu7sd2d1CoSHh7Nq1SqqVavGW2+95bSes3YL70VXYy7QrVs3WrVqxa5duxg7dizjxo0rcv/tt9+mS5cudO3ale3bt7Nhw4bLjsdisQAQHBzMRx99xL59+1ixYgU//fQTgwcPvuwYREREREREREqD4cpFRERE5O+qVatWbNy4kXr16gEXT8z89ttvJCYm0qRJE9LT06lSpQqenp7ExcXx22+/YTabi7RhtVove3KkSZMmHDhwAIDc3FySkpJcngD5s06cOEF+fn6Ra+np6Y5TPZs3b75srB4eHpQvX56UlBQA9u7dW6xMnTp1iImJAS6ensrIyADA19fX8Z1LBfcNBgM1a9YkOjoagG3btrFjxw6nbebl5fH999/TsWPHIvfc3d3x9/fn2LFjAEybNo2YmJgi8xobG0vt2rVdjstgMDjW7Wrmo7DQ0FC2b98OQEpKCsuXL79inYJxJyUlUa1aNdzc3JzOE8Dhw4cd3ymVkJBArVq1irXnbC5++eUXzGYzVatWJSsri7179zrGeunedHd3d5yqAzhw4ACNGjUq0fiXLl2Kt7c3PXv2pGfPnsTGxrqc12+//daREHJzc8NkMlG+fHmysrKw2WxYrVbi4uKAi2vw66+/0rFjR4YNG8ahQ4dKFI+IiIiIiIjIzaYTRiIiIrew5s2bc/ToUXr27Om4Vr16dcxmM+7u7tx5550sX76c559/nuDgYPr378+///3vIieNmjZtysCBA1mxYoXjEWuFtW/fnj179vDCCy9gMpl46aWXqFChgsuYjh8/zqRJk8jIyMBqtfLNN9/wxhtvlGg8kyZNIjw8nPr16zuuPfjgg0ycOJG9e/fStWtXGjRowKJFi1y28fLLLzNy5EiqV69OtWrViiVUOnXqxObNmxk6dCjBwcGOx9f961//YurUqcTGxhapN2nSJCIjI/Hw8MBgMBAREeFIeBTWsWNH4uPjHY9lK2zChAnMnDkTi8VCaGgojRs3JiAggIiICLZt24bZbC524qWwWrVqkZyczKxZs+jTp89VzUeBsLAwXn/9dZ5//nlMJhPDhw+/Yh2AESNGcPbsWUaMGAFAr169mDp1Kg0aNMDb2xubzYbNZiMoKIgpU6Zw6tQpHn30UZeP+rt0Lpo2bUr37t0ZPHgwt99+O4MHD2bx4sXcd999jr0ZFhZWpP6sWbPw9PTE29ub8PBwDh8+fMVxBAQE8MILL+Dt7Y2HhwcREREkJyczefJk/Pz86N27NxEREVSuXJn+/fszY8YMtm/fTosWLZgyZQrTp0+nc+fODB8+nICAAEJCQrDZbNStW5fZs2djNBqxWCwMGzasRPMqIiIiIiIicrO52Uv6Z6fXQWLuD3i5+RBYrsnN6lKuo+iMz2lQvgPl3V1/l4Nc3s701bSrNAA3He6TW0xK/hFyrRcI9mlT2qHILW7NmjU8+OCD3H777Tetz+7du7N27dorPhrvcux2OyNGjGDo0KGO7/35u5s7dy5Nmzala9eupR2KyJ8Wl72TisZq+HuGlHYoAmRYUknK/ZHmvsUf4Sl/TTFZ31DdqyGVjTVKOxT5i4nN2oq/Vwi3G4ufLJa/PqvdzL4Ln9DWr39phyIiclOYbDkczNxA64q9SjuUUqNPrUVERORvo1atWjc1WXQ9/P777wwcOJDQ0NBbJlkkIiIiIiIiIrcePZJORERE/jY6dOhw0/v88ssv/1R9f39/3n///esUzV/Hq6++WtohiIiIiIiIiMh1pBNGIiIiIiIiIiIiIiIiZZwSRiIiIiIiIiIiIiIiImWcEkYiIiIiIiIiIiIiIiJlnBJGIiIiIiIiIiIiIiIiZZwSRiIiIiIiIiIiIiIiImWcEkYiIiIiIiIiIiIiIiJlnBJGIiIiIiJS9uzZA4cOlXYUIiIiIiIifxkepR2AiIjcGmKi40jz1N8hiIjI30OlhAS8nppDWqvHsbx0DxX7VCvtkEREREREREqVEkYiInJd+AdWoZZ3rdIOQ0REpETKZ2SQfGdXfB65l6y2FUs7HBERERERkVKnhJGIiFwXd/hXopqP/jpbRET+Jvz8CNzYmcoBEJe9s7SjERERERERKXV6dpCIiIiIiJQ95cpROaC0gxAREREREfnrUMJIRERERERERERERESkjFPCSEREREREREREREREpIxTwkhERERERERERERERKSMU8JIRERERERERERERESkjFPCSEREREREREREREREpIxTwkhERERERERERERERKSMU8JIREREbpjo6GgGDhxI9+7deeyxx1i0aBE2m+2q20lJSaFnz56sWLGCIUOGcO7cuesW488//0xaWhpZWVkMHDjwurVb2HfffUePHj3Yu3dvkesmk4k5c+bw0EMP8dhjj/Hss89y9OjRa+pj69atl72/YMGCK5a5UTIzM3n88ceLXf/++++ZMWPGNc99wXhu5NqJiIiIiIiIlBVKGImIiMgNkZqayqRJkxg9ejRffvklH3zwAUlJSaxateqq24qNjaVt27YMGjSIpUuXUrlyZce9a0lAFbZx40bS0tKoUKECq1ev/lNtubJ//36GDx9OmzZtilyfP38+mZmZrFu3js8++4znnnuOUaNGkZOTc9V9XGlehw0bRqdOna663QJ/dp4v51rnvmDMN3LtRERERERERMoKj9IOQERERG5Nn376KT179qRZs2YAeHt789prr+Hu7g7Al19+ybp16/Dy8qJu3bqMGTOGXbt2sWHDBipXrkxycjKhoaH069eP5cuXk5mZSWBgIJs2bWL+/PmsWrWK3NxcEhMTWbBgAYMGDaJNmzYcP36cunXrUqFCBZKSkjAajUyfPp1Tp045+jebzYSHh3Pu3Dm2bt1KfF+gji8AACAASURBVHw848ePZ8KECaxdu5bY2FjeeustPD098fLyYsqUKXh5efHMM8/Qtm1bTp8+TUZGBlFRUY7xANjtdubMmUNiYiJms5lHH30Uf39/tm/fzi+//IKvry+tW7cGIC8vj40bN/Lll1/i6ekJQIsWLVi9ejU+Pj6kp6cTERFBfn4+ZrOZV155hUaNGjFw4EA6d+5McnIy8fHxzJw5k507dxIXF8fYsWOZPn06U6ZM4dy5c+Tl5REWFkanTp2YO3cuTZs2xcfHp9gcv/jii2RkZPDGG2+Ql5dHXl4ew4cPp0mTJvTv3582bdqQnZ3N+PHjHWONjIwELp7uOXHiBEOHDqVt27b06tWLJUuW4Ofnx9q1a0lLS6Nv377Y7XamT59OcnIyFStWZNasWY62MjMzCQsLc8z93LlzsVgshIaGMnr0aFJSUoqt3b59+xxjDg8PL1L/WtZOREREREREpKzTCSMRERG5IZKTk2ncuHGRa+XLl6dcuXKkp6ezfPlyFi9ezOLFi/n999/Zs2cPBoOB5ORkRo8ezfz58/n888+pWLEiYWFhdOzYkQEDBjjaMhqNWK1Wli1bhru7O7/++ithYWHMmzePzz//nE6dOjF79mzi4uI4f/48qampDBkyhHfeeYe+ffvyn//8h7vvvptGjRoxfvx4qlev7mh7xowZjB8/noULF9KiRQvef/993N3dSUpKok+fPsyYMQNPT09iYmKKjG/Hjh2kpaXxzjvvsGjRIt577z0aNGhAu3btePbZZx3JIoBTp05RvXp1ypcvX6SNO+64A4AVK1bQpk0bFi5cyOjRo5k9ezYABoOBwMBApkyZwgMPPMCWLVvo3bs3vr6+REZGcu7cOdq0acOSJUuIiopiwYIFRdp3Nsd2u52VK1fSpUsXoqKimDp1qqM/o9FIcHBwkWQRgLu7O1arlWnTpjFjxgyioqIuux9+++03+vfvz9KlS/Hw8GDHjh1Oy82aNYvXXnuNVatWkZOTQ1JSktO1Kzzmwq517URERERERETKOp0wEhERkRvCarVitVqd3ouPj6d+/fp4eXkBcNddd3Hs2DEaNGhAo0aNMBgu/k2Lt7c3eXl5Lvto3ry54+cqVarg5+cHgK+vLyEhIQD4+fmRlZVF1apVWbRoEevXryc9PZ3bbrvNZdypqakEBwc7Ylu4cCEAVatWpUqVKgBUqlSJjIyMInVjY2O55557APDy8iIoKIjk5GSX/VzuMW9HjhzhkUceAaB+/fqcPHkSu90O4EjEVapUiePHjxepV6lSJeLj4xk7diweHh5cuHChWNvO5vjw4cMcOHCATz75BKDIY/EKToldKjQ0FICAgADS0tIc8TlTpUoV6tat62gvKSnJMccFrFYrZ8+epWbNmgBMnToVuJhcu9FrJyIiIiIiIlLWKWEkIiIiN0RwcDA//fQT999/v+NaRkYGJ0+eBMDNzc1x3W63O34vSGQUvueK0Wh0/HxpvcK/2+12oqKi6NKlC127dmX79u1s2LDBZbt/JjZXdS9Vo0YNTp8+TXp6OpUqVXJcP3jwIE2aNLlsXJc+Bq+wdevWYTKZiIyMJCcnh+7duxdrx9U4JkyYQMOGDYuVL3hk3qUK912Q/Co83sIJw8J9urm5uZwXZ0nGt99++6asnYiIiIiIiEhZpkfSiYiIyA3xyCOPsGnTJnbv3g1cPLHy+uuvc/DgQerVq0dcXBwmkwmA6OjoYo+vu97S09OpUaMGAN9++y0WiwW4mGAoiAMuJmOqVq1KYmIiAAcOHKBRo0Yl6qNJkyYcOHAAgNzcXJKSkhynai7l4+NDt27diIiIcJzm2bNnD9OmTcNisRRpKzY2ltq1a1+2b6vVit1uLzLOzZs3lzgxEhoayvbt2wFISUlh+fLlV6wTHR0NQFJSEtWqVcPNzQ1fX1/Onz8PUOSxb6mpqaSkpABw+PBhgoKCirXn7u6Ov78/x44dA2DatGnExMS4XLuCMReuf61rJyIiIiIiIlLW6YSRiIiI3BABAQG8+eabvPXWW0yfPh1vb2969uxJ//79ARg0aBAvvvgi7u7uNGrUiFatWjmSSzdC7969iYiIoHLlyvTv358ZM2awfft2WrRowZQpU5g4caKj7IQJE5g1axaenp54e3sTHh5eoj7at2/Pnj17eOGFFzCZTLz00ktUqFDBZflRo0axaNEinnjiCYxGIzVq1CAqKgofHx+efvppIiIi2LZtG2azmXHjxl2276ZNmzJw4EBee+01wsPD2bt3L127dqVBgwYsWrToirGHhYXx+uuv8/zzz2MymRg+fHiJxjxixAjOnj3LiBEjAOjVqxdTp06lQYMGeHt7Y7PZsNls1KlTh1WrVvHbb7/h6+tL+/bt2blzZ7H2JkyYwMyZM7FYLISGhtK4cWOXa1cw5nnz5hWpfy1rJyIiIiIiIlLWudlv4vM4EnN/wMvNh8Byzh+zIn9t0Rmf06B8B8q7V7pyYXFqZ/pq2lUagJsO98ktJiX/CLnWCwT7tCntUETkJpk7dy5Nmzala9eupR2KyJ8Wl72TisZq+HuGlHYoAmRYUknK/ZHmvt1KOxQpoZisb6ju1ZDKxhqlHYr8xcRmbcXfK4TbjbVKOxS5Bla7mX0XPqGtX//SDkVE5KYw2XI4mLmB1hV7lXYopUafWouIiIiIiIiIiIiIiJRxeiSdiIiIiFy1V199tbRDEBEREREREZHrSCeMREREREREREREREREyjgljERERERERERERERERMo4JYxERERERERERERERETKOCWMREREREREREREREREyjgljERERERERERERERERMo4JYxEROS6SjkK5OSUdhgiIiIiIiIiIiJyFTxKOwAREbk1/BHnTc67H+KxYRPua4aQW7t2aYckIiJSIim5qVQMrlbaYYiIiIiIiJQqJYxEROS6sCZmYIlLofzJOLKyssjOyCjtkEREREokKze7tEMQEREREREpdUoYiYjIdeH/LyPBj70Kp/qA2Qx16pR2SCIiIiVSLlt/5CAiIiIiIqKEkYiIXF+BgaUdgYiIiIiIiIiIiFwlQ2kHICIiIiIiIiIiIiIiIqVLCSMREREREREREREREZEyTgkjERERERERERERERGRMk4JIxERERERERERERERkTJOCSMREREREREREREREZEyTgkjERERERERERERERGRMk4JIxEREbllHTp0iCFDhvDMM8/Qp08f/v3vf2Oz2QDYunXrVbV1teX/DJPJxCOPPFLi8qmpqRw6dOhPtTF37ly+/vrrEpe/1Pz589m0adM11XUW/59RuL0hQ4Zw7tw5UlJS6NmzJytWrGDBggVXvZ6F27yW+iIiIiIiIiJ/dR6lHYCIiIjIjRIREcGsWbMICgrCZrMxceJEDhw4QMuWLVm1ahWdOnW6Yhs2mw2DwVDi8qXh4MGDpKWl0bRp09IO5arZbLbrGv+l7S1duhSAb775hrZt2zJo0KBrardwm8OGDfvTcV5Jwb4TERERERERuVmUMBIREZFbVk5ODvn5+QAYDAZmzZoFwMcff0xcXBxjx45l+vTpTJkyhXPnzpGXl0dYWBidOnXizTffJDc3l8TERLp27eooHxkZ6WjfbrczZ84cEhMTMZvNPProozz88MNERUVhsVgwm83ExsYyZMgQOnTowJYtW1i/fj0Gg4FatWoxduxYzp49y5QpU3BzcyMnJ4cJEyYQFBSEwWBg9uzZxMTEUKFCBebPn4/BYCjWX4cOHXj33XcxGAwEBATQsWNHR3zO2nB3d+ftt98mISGBvLw8unfvTo8ePRx1du7cyRdffEHlypWJiYmhe/fuJCcnEx8fT+fOnenVqxfp6elMmzaNzMxMvL29eeONN4CLJ7o2bdrEyZMnGTVqFB06dGDnzp0sXboUT09PKlSowMyZM7FYLAwdOpTatWsTGhrKp59+6jT+L774gs8++wyLxULfvn156KGHiIuLIyoqCnd3dzw8PAgPD8fT09Nle0uWLGH69OksX76czMxMAgMD+f3332natCldunQhMjKSuLg4bDYb48aNIygoqNh+aNGiRZE5PnDggKP+1ax/gQsXLjBkyBDuvfdezpw5g91uZ8aMGezZs4eNGzdy/vx5RowYQUJCAuvWrcPLy4u6desyZswYgGIxN2zYsMR7q3LlysWuNWzY8Lq/9kREREREROTvRwkjERERuWW98sorDBs2jMaNG3PvvffSpUsXqlSpQu/evVm2bBmRkZGcOXOGNm3a8Mgjj5Cens7gwYPp1KkTRqORrKwsli1bBuAoX9iOHTtIS0vjnXfeIT8/n169etGhQwcMBgNWq5Xx48dz9OhR5s+fT/Pmzfnwww9Zvnw5BoOB119/nV27dnHixAnat2/PgAEDSExM5Pfffwfg1KlT9OnTh9q1azNs2DBiYmI4f/680/569OiBp6dnkWSLqzYyMzPJz89n/vz5WK1W+vXrx3333eeoYzAYOH36NJGRkRw6dIhXX32VjRs3kp2dzdChQ+nVqxcrV67k/vvvp0ePHnz00Ufs2rULgOzsbBYsWMAvv/zCu+++S4cOHbhw4QIRERHUrFmT2bNn8/3333P//feTkJBAZGQkgYGBmEymYvGfP3+eNWvW8MEHH2AymRg/fjwPPvggs2bNYvbs2VSpUoUNGzawevVqXnjhBZftLVmyhIoVKxIWFsahQ4cYMGAAc+fOdaxfdnY2y5Yt4+eff2bTpk3069ev2H747LPPiszxgQMHrnr9CyeMDAYDv/76K4sWLaJKlSq89tpr7Nixg3LlypGQkMBHH31EZmYmkyZN4qOPPsLLy4tXX32VPXv2YLFYisVcvXr1Eu+t6Ohop/tNRERERERERAkjERERuWX985//pG3bthw4cIBdu3bRr18/5s6dS7NmzRxlKlWqRHx8PGPHjsXDw4MLFy447jVv3vyy7cfGxnLPPfcA4OXlRVBQEMnJyQA0btwYgMqVK5OZmcnx48dJSUnh+eefBy4mVxo3bkzr1q0ZNWoUZ86c4f777+fee+/FZDJRtWpVateuDYC/vz8ZGRmX7c8ZZ23ExMSwb98+hg4dClx89Nnp06eL1AsJCQHAz8+PWrVqYTQa8fPzIysrC4AjR47w6KOPAtCnTx/g4ncYtWzZEoBq1aqRmZkJQJUqVYiKisJoNJKQkEDdunUd8xIYGOgy9vj4eEJCQjAajRiNRkeC69ixY0yaNAkAi8VCjRo1StSeM0eOHHGscfPmzWnevDn5+fku98Olrmb9L+Xv70+VKlUAqF+/PklJSTRq1IjGjRvj4eFBfHw89evXx8vLC4C77rqLY8eOYTKZisX8448/lnhvVa1atdg1EREREREREVDCSERERG5hGRkZ3HbbbbRv35727dsTFBTExo0biySM1q1bh8lkIjIykpycHLp37+64ZzQar9iHm5ub42e73e74vfD3zxRcDw0N5c033yzWxkcffcS+fftYsWIFP/30E0899RTu7u5Fytjt9sv254yzNtzc3Hj88cfp379/kXsbN250/Fw4dmffo2O327HZbJftryDe8PBwVq1aRbVq1Xjrrbcc9z09PV3GXVDfarUWuebm5oaXlxdLliwpcr3gRNHVctbH5faDMyVd/0sVnj+bzeaoV3jPOWvb1byUdG8NHjzY6TURERERERERfZOuiIiI3JJSU1Pp06eP45FbNpuNhIQExykUq9WK3W4nPT3dcUpl8+bNTj/cL1y+sCZNmjgeT5abm0tSUpLjBM2lQkJCOHr0KBkZGQCsXLmSkydPsnnzZn799Vc6duzIsGHDOHTokMsxuerPYDBgNptLNC+hoaHs3LkTu92OxWJhzpw5TpM/l9O4cWP27t0LwGeffcbHH3/stFzB9/hUrVqVrKws9u7d6zROZ/HXq1ePo0ePkpubS35+PkOGDMFqtVKzZk2io6MB2LZtGzt27ChRe67GsW/fPgDi4uIIDw93uR+ctXk163+ps2fPcurUKeDiSaWgoKBi44+Li8NkMgEQHR1N48aNncZ8NXvravabiIiIiIiIlC06YSQiIiK3pKpVqzJmzBheffVVbDYbdrudO++8k759+wLQtGlTBg4cyGuvvUZ4eDh79+6la9euNGjQgEWLFhVrr6D8ihUr8PC4+L9Q7du3Z8+ePbzwwguYTCZeeuklKlSo4DSeihUrMmLECF5++WU8PT2pXbs2AQEBZGdnM3v2bIxGIxaLhWHDhrkck6v+QkNDmTx5Mn5+fvTs2fOy89K2bVv279/P4MGDsdlsPPTQQ05PEV1OWFgYU6dOZcuWLZQvX55Zs2axatWqYuU8PDzo3r07gwcP5vbbb2fw4MEsXry42GPQnMXv5+fH4MGDefbZZ7HZbPTp0wej0cikSZOIjIzEw8MDg8FAREREsX4Lt3c5//jHP9i7dy8DBw4EYPz48fj4+DBx4sRi+6FNmzbF2rya9b9UYGAgy5Yt4+TJk1SqVIn27duzf/9+x30/Pz8GDRrEiy++iLu7O40aNaJVq1bY7fZiMV/N3vLx8SnxfhMREREREZGyxc3u6s9ob4DE3B/wcvMhsFyTm9WlXEfRGZ/ToHwHyrtXKu1Q/rZ2pq+mXaUBuOlwn9xiUvKPkGu9QLBPm9IORUTkLy8zM5OwsDDWrl1b2qHI/4nL3klFYzX8PUNKOxQBMiypJOX+SHPfbqUdipRQTNY3VPdqSGVjjdIORf5iYrO24u8Vwu3GWqUdilwDq93Mvguf0Nav/5ULi4jcAky2HA5mbqB1xV6lHUqp0afWIiIiIiIiIiIiIiIiZZwSRiIiIiIiN5Gvr69OF4mIiIiIiMhfjhJGIiIiIiIiIiIiIiIiZZwSRiIiIiIiIiIiIiIiImWcEkYiIiIiIiIiIiIiIiJlnBJGIiIiIiIiIiIiIiIiZZwSRiIiIiIiIiIiIiIiImWcEkYiIiIiIiIiIiIiIiJlnEdpByAiIreGvNx8ct1ySzsMERGRq5afayLPkkeuVf8dK00/tZiL/zP/wPxwPQgo7WhERERERMoeJYxEROS6SDjyKym5ptIOQ0RE5Kqdzj+Kj/spKnqcLu1QyrTg7J+wj/+KtG8GU/6TaqUdjoiIiIhImaOEkYiIXBdN7q5PsE+b0g5DRETkqsVle1PRWA1/z5DSDqVM231nOnU/6UqDxmZO2n8o7XBERERERMocJYxE5G/tj/w0fs/VXwOXtj/MJ8i3ZpNnqlDaoZR55T1uo06FWqUdhoiIyFVru74XABmWVNDTAUVEREREbjoljETkb+9c/l78vWylHUaZVt0IGAF2l3IkZVu21Y3yHg+UdhgiIiIiIiIiIvI3pISRiNwSQnxvL+0QRErdz+fPlXYIIiIiIiIiIiLyN2Uo7QBERERERERERERERESkdClhJCIiIiIiIiIiIiIiUsYpYSQiIiIiIiIiIiIiIlLGKWEkIiIiIiIiIiIiIiJSxilhJCIiIiIiIiIiIiIiUsYpYSQit5TcXBPDRyyjTt3nCan3Iv/4xyR27DxyQ/v87LO9AEyc9AHr1u27oX1dbwWx30xBwS+Ql2d2eX/X7qOcOXP+uvVXuL1rGe+WLQd5dujia+p71arvmDBxzVXXe2XUCj7+eNc19SkiIiIiIiIiInItlDASkVvKqFdXkJdnIu7YAuKPL2LW7Kfo2/dNEhLOXHObNpvd5b3Tp9N5f802AGa80Z9HH219zf38WZeL05U5c9bfgEj+nPff38aZ369fwqhwe3/F8YqIiIiIiIiIiPwVeJR2ACIi18uFCzmsX7+fxITFeHpefHtr17Yhzw3tyntLv2HM6J7c1zGcrl3v5MSJs9jt8OF/XsHT04MxY1dz+PAJcnPyefrp+xk0qBOvjl5JVlYeR2JPsn37dN5441M2bYrGzQ063h/K9Ih+jBi5nL1744iI+C/n0rNo07o+vXq1ZcTI5cTE/IbZZGHIkM4MHNiRseNWYzZbMZks/PhDPJMnP0H37i2ZO/cLvvhiPyaThZat6jEvajCvjFpBSHA1XnrpwSJjXLnyO5Ys+Rqz2crw4Q/x1FP30aLFGLp0bU5GRi4LFzzrdCybNh1g+vRPKVfOiO9tPnz04SiWLfuGn35O5sle/+a/n4zmo492snTZt7i7G6hXrzrz5w3Gzc3N6Vw3a/YKW7dO4447fHn33a858/t5hr30oNP5tdvt9O33Frm5JurXD3AkthITf+eZZxbg7uGO2WRhyZIX+D31AuvW7SXm8AlWrRrO/v3HSxzTldr7Z+dmRcbrbD3tdjsvD1/GLz8nY7XamL9gCABpaZk8/sQc4uJO0bNnK6ZH9HO5D7/6KprJk/9DSL3q+Ph4Ua2aH4DT+V23bh8ffrSTChXKcfJkGh3+0Zjw8Ccdbdnt9mJ7qUePlrRsNZZjRxdgMLixY+cR3nzzC9Z9Nq6ErxQREREREREREZHilDASkVvG8fjTNKgfgLe3Z5HrrVvXY/6Cr3B3N3Ds2Cm+3jKFgIDKDHpmARs2/Ii3tye5uSa+2jQZi8XKPfeMoUePlnh6emC12ti+fTo2mx2DwcB3303D09ODZs1e4aUXH2TUqO6YzRbCw5/klVErANiw4UfOnDnPt9+8Rm6uiWbNX6F795a4uxvIzTWxcMGzRB9MZMKED+jevSXz5m8kKfEdDAY33n33a3Jy8gmf/CRGo3uRcfzxRyZvvvkFP/44h7w8M737zKVfv3/g6elBk8Y1GTDgPr76KtrpWNLSsli9egQhIdUY9vJSPv98P8OGdWPGzM/47yejSUvLZN68jezY8Qbu7gaeGbyQr76Kplu3e0o8/67m12y2UrlyBZa+9yKxR06ycOFXAJxKOcfkyU/QuXNzPv10D29HbeCdxc9x993BzJw5gIoVfa4qpiu1d2fzOixZ8j/895PRLtfzwIEEMjNz2b59Ort2H2XNmu080LU5R46c5GD0XOx2O0HBLxAxra/LxNWYsavZuGEStWtXoW+/twBczq+7u4GjR0/y809vYbfbCW06kqFDuzjacrWXWrQI4bvvDvHPfzZj/fp9PDXgvhKvk4iIiIiIiIiIiDNKGInILcNisWK12opdv5gcuPjhfs2adxAQUBmAO5vX4ciRk5gtVr799hc6dZoCgNVm49cTZwFoe28DAAwGN3x9y9G7z1zKlfMk9ewF0s5lOo3jxwMJdLyvCQDe3p40alSDo8dOAdCyRQgAVatU5Hx6FgAPPng3//znVJ58si29erXDx8cLHx+vYu0ePvwrTUJr4enpgaenB19tmuy4d+//xblv/3GnYwkMrMzYcavx9PQgNuY3GjUMLNL2oUO/kpScSpcurwGQkZHriPVqOJvfvHyzo63GjWpwxx2+AAQGVCZ8yocsXfYtZ89mULlyhT8V05XaK8zVev54IMGx5u3aNqRd24Zs2XKQNm3qU66cEQBfX29yckyUL198jcxmK+npWdSuXQWADv9ozInfzrocS0BAJVq0CPm//elGw4aBHI///8cnutpLYU935IP/7OCf/2zGtu9jmPFGf5djFRERERERERERKQkljETkltGwQSDH4lLIzMzF19fbcf2HH+Jp1qw2UPR7fqxWG25ubri5uTH02S688kr3Iu3997+78fK6mCT45dCvLF++ld27Z1KunJGWLcdeNpbCp0/sdij41d3dUOj6xVjeWfwcMbG/sXHDAdq1n8Ce3bOcJjvsdrvThBjgiNPVWAJrDGHP7lnUqnUHo8eschpvq1b1+Hz9+MuOy9n4LBar42dn81t4rIXLjBm7ml5PtqV373Zs2PAjq1Z//6diulJ7hblaT1dz7OFR9LRX4fFcjs1mu+xYPv98v5M5K9qGs73UuXNzRo9Zxf4f4mnRMsSx/iIiIiIiIiIiItfKcOUiIiJ/D35+5enRoyXDXl5Kfr4ZuHjiZvmKbxkyuDMAp06lkZj4OwA//JhAkyY1ad2qHhs3RWO32zGbrYwYubxY0uCPsxkEBFamXDkjP/2cTHzCaUwmCwaDgfx8S5GyrVrW4/tthwHIzs7n6NGTNGpYw2nM589nM2PGWpo0rsnYsY/QsGENEpN+59y5LDIzc4uUbdq0DgcPJpKdnU9uron77puMyVS0b2djycszk59vJjCwMhcu5PA/X//sqGexWC8+Ci20Fj/9lER6ejYAs2evIyHhDDabnUOHTziZax/++CPj/+Yx3nHd2fw2bBDI/h8ulok+mEhaWub/zekFgoL9Afh07R5HTAaDG/n55quO6UrtFR6vq/Vs2SKE//nmZwB+/iWZpwZGOV03uHhKKCkptcg1o9EdX19vkpMvXv/6fy625WosAPv2xWEyWTCZLMTG/kb9egGO9lztJXd3Aw8/3IKRI5YxQI+jExERERERERGR60AnjETklrJwwbNMDv+QRo2H4+5uIKB6JT7+eDS1a1fh/PlsgoL8mTFzLYkJZ7ijSkW6dbsHo9Gdb7ceokOHyVitNp56qmORk0AA7do15I0Za/ln59cIDa3FyJHdeWXkcj7/fAJxcad4adh7eHpefEvt1u1utnz9E527vI4p38z0iH5UrOjjNF4/v/Kc/SODdu0m4unpQUi96tx9VxCvjl5JSHA1XnrpQUfZO+7wZdLEJ+jYMRyr1cbw4Q85+izwr3/dVWws5coZCQvrRIcOk/Gv5sfEiY8zZeqH9OjRktat69O69Th27ZrJ7FlP0a1bBF5eRuo3CKBOnark5OTTsWM4aX8UPZX00ksPMmjQfO68qy7ly5dznKRxNr8Wi5WPPt7F/fdPoWGjQOrXD8BmszFsWDeGPruYqv5+vDLyYV548V2+/PIHOt7XhKefnseaNSOvKqaStFcw3q1bp5Gbayq2nt9/H8GWr3+idetxACxY+Czn0pw/enDHjliWLf+Wz9YWPW02a+YAevSYSa3aVahV6w5sNju3y2kbtgAAIABJREFU3+7rdCyHD58gOLgavfvM5XRKOs8O6UKVKrc52rrcXurduz3//e9u2rdr6DQ+ERERERERERGRq+FmL+lzda6DxNwf8HLzIbBck5vVpVxH0Rmf06B8B8q7VyrtUP62dqavpl2lAbjpcN9180d+GkfOr6PdHVfel+fPZ9O23QRiY+bdhMhuHWPHrSZy9sArlruZ81vSmG4km83OxEkfMGvmgGtu4/PP97N5y0EWL3ruquvOnr0Og8GNMWMecVz7+fw5Knk9QJ0Kta45JhGRsigueycVjdXw97z67++T6y/DkkpS7o809+1W2qFICcVkfUN1r4ZUNjo/VS9lV2zWVvy9QrjdqP8//Tuy2s3su/AJbf30nakiUjaYbDkczNxA64q9SjuUUqMTRiJySzh84Y8rlsnMyCHfai1RWbnIbrdTt0XNEsyZnYybNL8lj+nGSj19nhbdmvypOH7NyeCcKe+q2xjefxHu7gZmvTf4krpKRouIiIiIiIiIyLVRwkhE/vaq+3QqUTmfO+B/onve4GhuPQ881PWKZc6akjBXyOJ/onffhIhKFtONVqfWxX9/xsM9u/DwNWzJpZ90+XMdi4iIiIiIiIiIXEIJIxH5W7vD63bu8Lq9tMMo83zy88m1XiDYJ6i0QxEREREREREREZFroGfXiIiIiIiIiIiIiIiIlHFKGImIiIiIiIiIiIiIiJRxShiJiIiIiIiIiIiIiIiUcUoYiYiIiIiIiIiIiIiIlHFKGImIiIiIiIiIiIiIiJRxShiJiIiIiIiIiIiIiIiUcUoYiYiIiIiIiIiIiIiIlHFKGImIyA1ns9l48803eeqppwgLC2PgwIH88ssvAKSmpnLo0KESt3W15a/Vzz//TFpaWonKzp8/n02bNpWobGZmJo8//vifCc3BZDLxyCOPXHP9rVu3Xpc4CgwZMoRz585dVZ0buZ4pKSmEhYVdtsz1noMChfdPQR9ZWVkMHDjwhvRXWOExXcv4du/eTURExGXLXM3r43opyXo6c73X+Msvv2T+/PlFriUnJ9O2bVt69epFr169ePzxx1m7dq3LexMmTCAnJ+eGx3o1rnZNU1JSGDVqFN26dePhhx9mzJgxpKamAtC7d28SExMdZV9++WU++OADx+/vv/8+8+bNY+3atXTu3JmsrCzHvfnz5/P1118D0LVrVx577DEef/xxx78vvvjiinN67tw5Ro0axaBBgxgwYADDhw+/6vcmERERERGRskgJIxERueG+++47UlNTWb16NStXrmTMmDEsXboUgIMHD5Y4YWCz2a6qfOF6V2vjxo03/QPxm8Vms/HHH3+wcePGa6rrytKlS6lcufJVtXct63k9rVq16oa0W3j/FPRRoUIFVq9efUP6K6zwmG7G+P6sa3l9Xo0bNQeXCg4O5pNPPuGTTz5h5cqVrFq1ilOnThW79+mnn3Lbbbfx4Ycf3rBYb/R7ns1m45VXXqFjx45s2rSJL7/8ktatWzNs2DAsFgstW7bkxx9/BMBqtZKamsqBAwcc9aOjo2nVqhUAlStXZvny5S77WrNmDWvXrnX869GjB3D5OV26dClt2rRhxYoVrFmzhlatWrF+/fqrnhMREREREZGyxqO0AxARkVtfdnY2ZrMZu92Om5sbTZs2Zd68eWRkZPDuu+9iMBgICAjAw8ODpUuX4unpSYUKFZg5cyYWi4WhQ4dSu3ZtQkND+fTTTx3lO3bs6OgjNjaWuXPnYrFYCA0NZfTo0QwYMIA2bdqQnZ3N+PHjefvtt0lISCAvL4/u3bvTo0cPTp06xWuvvYa7uztms5nw8HDOnTvH1q1biY+PJyIigsOHD7N+/XoMBgO1atVi7NixuLm5FRnjoUOH2LRpEydPnmTUqFF06NCBuLg4oqKicHd3x8PDg/DwcDw8/v8/vQMHDqRjx44kJSVx+vRpunXrRmxsLAkJCcybNw9fX19HWbvdTmRkJHFxcdhsNsaNG0dQUBAGg4HZs2cTExNDhQoVmD9/PmfOnCk2pjp16tC/f3/HfKSnp3Po0CHee+89nn32WUc/kZGRwMXTMCdOnGDo0KG0bdu2SN3nnnuOiIgI8vPzMZvNvPLKKzRq1Ih+/foxf/58jEYjb7zxBnl5eeTl5TF8+HCaNGlSbI2GDh1aZP0Lr2eB8+fPM3ToUD755BMAJk6cyOOPP86FCxfYvHkzPj4+pKamctddd/Hss8+SkpLC5MmTqVy5MjVr1nS0s3PnzmJ7a/369cTFxTF27FgiIyOd7o/C3n//fbZt24bZbKZJkyaMHTuWjIyMYmPNz8937J/WrVs7+ggPDycsLIy1a9cycOBAOnfuTHJyMvHx8cycOZPAwECWLFnCjh07qFGjBh4eHvzrX/+iXbt2Tl9XVxrTPffc4/h5+vTpTJkyhXPnzpGXl0dYWBidOnUiPT2dadOmkZmZibe3N2+88QYAFy5cYMyYMfz666907NiRF1980dFvdHR0kddHdHQ069atw8vLi7p16zJmzJgir4+tW7c6XavCe2rcuHHMmTOHxMREzGYzjz76KA8//LDL9ezVqxdLlizBz8+PtWvXkpaWxtChQ/niiy/47LPPsFgs9O3bl6ysrCJrXMBkMjmdj6ioKCwWC2azmdjYWIYMGUKHDh3YtWsXCxcupFatWpQrV47bb7/d6ZoU8PX1JSQkhJMnT+Lv71/knpubGy1atGDHjh1Frn/88ceOWGfPnu10Pgpz9p731ltvkZubS2JiIsuWLWPLli3F3rvMZnOxsfv5+RVZ0+zs7GLvXZUqVXL0vXv3bvz9/R2vETc3N5544gm++eYb9u/fT6tWrdi0aRO9evXiyJEjNG/enJiYGOx2O3a7nZiYGO68805OnTrFQw89xKZNm3jiiScICAi47Ly6cumcZmdnYzKZHPcHDBhwTe2KiIiIiIiUNTphJCIiN1zXrl3Jzc3lkUceITIykt27d2O327ntttvo0aMHjz32GB07duTChQtERESwZMkS/P39+f777zEajSQkJPDSSy/Rr1+/IuULmzVrFq+99hqrVq0iJyeHpKQkjEYjwcHBjB8/nl27dpGfn8/8+fN55513+OCDD7hw4QKpqakMGTKEd955h759+/Kf//yHu+++m0aNGjF+/HgqVKjAhx9+yMKFC1m4cCF5eXns2rWr2Bizs7NZsGAB06ZN4+OPPy4S07x58+jUqVOx0yUGg4GQkBAiIiLw9vYmLy+PyZMn06hRI/bv31+k7I4dO8jOzmbZsmWMHDnS8Qi8U6dO0adPH1avXo3BYCAmJsbpmIAi8zFgwACaNm1aJFkE4O7ujtVqZdq0acyYMYOoqKhidVesWEGbNm1YuHAho0ePZvbs2UXaWLlyJV26dCEqKoqpU6c67l+6RmlpaS7X80oMBgPJyclMmTKFBQsW8NVXX3Hu3DlWrlzJE088wb///W9q1KjhKO9sb/Xu3RtfX18iIyNd7o/CPvzwQ5YsWcKqVasIDg4mLy/P6VgL75/nnnvO0cel8QcGBjJlyhQeeOABtmzZQmpqKlu2bGHFihWMGzeOXbt2FUtMFnalMRX++dy5c7Rp04YlS5YQFRXFggULHGt1//33s3TpUtq1a+fY24mJibzxxhu8//77rF+/Hrvd7ui38Ph8fHxYvnw5ixcvZvHixfz+++/s2bOnRGtVeE/t2LGDtLQ03nnnHRYtWsR7771HRkaGy/V05vz586xZs4b33nuPd999l82bN/Pkk086nX9X82EwGLBarYwfP56JEyc6Xstvv/02c+fOZdasWUUSEa6cPXuW48ePExwcXOye1Wrl22+/pUmTJkWuF14vV/NRmKv3PKvVyrJly7hw4YLT9y5nYy+8poGBgVd870pKSqJx48bFxhYaGkpCQgJ33303P//8M3AxwXjXXXdRt25d4uPjiY+Pp06dOpQrV84x588995xjDa7FpXP69NNPOxKzixcv5vjx49fctoiIiIiISFmiE0YiInLDlStXjkWLFpGcnMy+fft45513WLduHXPmzClSrkqVKkRFRTmSRHXr1gUuPrIoMDDQZftWq5WzZ886TiBMnTrVca9Zs2YAHD58mH379jF06FDg4iOVTp8+TdWqVVm0aBHr168nPT2d2267rUjbx48fJyUlheeffx64mBhy9kFpy5YtAahWrRqZmZlYrVaOHTvGpEmTALBYLE4/8K5Xrx4Afn5+hISEOH4u/J0egOOv9AGaN29O8+bNMZlMVK1aldq1awPg7+9PRkYGdevWdTmmgvm4nNDQUAACAgJIS0tzJAsK6h45csTx3Un169fn5MmTRRIKhw8f5sCBA45TQTk5OS7XaPv27VeMx5XGjRtjMFz825e6dety4sQJEhIS6NevHwB33XUXX375JeB6bxWO2dn+qFixoqNM+/btef755+ncuTNdu3alXLlyTsd6NfEDVKpUiePHj5OcnEyjRo3w8PDAz8+Ppk2bXrb+lcZUWKVKlYiPj2fs2LF4eHg4kmFHjhzh0UcfBaBPnz7AxdMjzZo1w9PTEwAfHx/y8vLw9vYu1m58fDz169fHy8sLuDjnx44do23btsXGeulawf/vqdjYWO655x4AvLy8CAoKIjk52eV6OhMfH09ISAhGoxGj0Vjse4ZKMh8FscLF953MzEwsFgsZGRlUr17dEceZM2eKtZmYmOiI1Wg0Mnr0aO644w6ysrKK3Pvtt9948skneeKJJ1zG52o+Cubrcu95Be8Trt67WrZs6XLsBW1f6b3LarU6feydzWbDYDBQoUIFqlatSmJiIj/++CMTJ04kNzeX6OhobDab43F0BTp16sSHH37I4cOHi7U5YMCAIonTgnW93JwGBQWxdu1aDh8+zN69exk5ciQDBgygb9++LudcRERERERElDASEZGbIDc3F3d3d+rUqUOdOnV48skn6datW7EvIQ8PD2fVqlVUq1aNt956y3G94IPry7FarU6vF9R1c3Pj8ccfp3///kXujxkzhi5dutC1a1e2b9/Ohg0bitx3c3MjNDSUN99887L9u7u7O34uePSel5cXS5YsKVIuMzPTZb1L2yjMbrc7HWPhOgXl3n77bZdjKslcFu678IfCl6t76UmYCRMm0LBhQ8fvVqvV5RpdzqXtWiwWp7HZbDZH2YL4C4/D1d4q3I+z/VHYxIkTSUxMZMeOHQwaNMjxfTOXjrWkLl3vgn1ToCDB4sqVxlTYunXrMJlMREZGkpOTQ/fu3R39Ovvg39m+cqVwzJeOoYCrtSq8p1y142w9C5ct2FeuXiPOuJoPKDrvzsbtai6CgoJ4//33r3hv0qRJ1K5du9gcX+pK8+pqrEaj0VHf2XvXRx995HLsBfWcvXcVFhwczAcffFDsemxsLM888wxwMYl+8OBB/vjjD6pVq8add97Je++9h8Vi4amnnipWd+TIkbz11lvcddddRa6vWbMGHx+fIteSk5MvO6cZGRncdtttNGvWjGbNmtG5c2fGjh2rhJGIiIiIiMgV6JF0IiJyw7399tssXbrU8UHrqVOncHNzo2LFihgMBsxms+N7Q6pWrUpWVhZ79+7FbDYXa6ugfGHu7u74+/tz7NgxAKZNm0ZMTEyRMqGhoezcuRO73Y7FYmHOnDnYbDbS09Mdfz3/7bffOhISbm5umEwmQkJCOHr0qONxUCtXruTkyZNXHLPBYKBmzZpER0cDsG3btmLfWXI1GjduzL59+wCIi4sjPDzcZVlXY7o0PmfzCzhiTkpKolq1asU+qG7SpInjC+xjY2MdJ5wKhIaGOk4OpaSksHz5cpdrVDiOs2fPkp6eXqSt8uXLk5WVhc1mw2q1EhcX57h3+PBhzGYzZrOZhIQEatWqRZ06dRxrv3fvXoDL7i2r1Yrdbne5PwpkZmayfPlygoKCePrpp6lbty4nT550Olb4//1TuI8rqVmzJseOHcNms3HhwgXHaQubzUZ8fHyRsiUZU+GfC++JzZs3O+43btzYMU+fffaZ4xFsV1Iwvnr16hEXF+cYa3R0tNMTeM7WqrDCeyo3N5ekpCTq1q3rdD3h4ncEnT9/HsBxv169ehw9epTc3Fzy8/MZMmQIZrPZ6fy7mg9nPDw8KF++PCkpKcXiuBYjR45k6dKlxfY6/P96uZqPAiV5z3P13uVq7AVrWpL3rjZt2pCWlsann37qqL9+/XoyMzNp0aIFAK1atWLjxo2OU5RBQUH89ttvJCYmFnscH1zcA/7+/k4f+Xkll87p4MGDi6zT8ePHL3tKVURERERERC7SCSMREbnhhg8fzuzZs+nduzdGoxEvLy+mT5+Ou7s7oaGhTJ48GT8/P7p3787gwYO5/fbbGTx4MIsXL+bee+8t0lbh8j179nRcnzBhAjNnznR8AfylH1q3bduW/fv3M3jwYGw2Gw899BAGg4HevXsTERFB5cqV6d+/PzNmzGD79u20aNGCKVOmMH36dEaMGMHLL7+Mp6cntWvXLvEXs0+aNInIyEg8PDwwGAxERERc8xz+4x//YO/evQwcOBCA8ePHuyzrakyF1apVi+TkZGbNmuW0rREjRnD27FlGjBhR7N7TTz9NREQE27Ztw2w2M27cuCL3w8LCeP3113n++ecxmUwMHz4ccL5G+fn5jvVMSkrC39+/yCkADw8POnfuzPDhwwkICCAkJMSRyKlRowbjx4/n7NmzPPbYY1SqVImnn36aSZMm8dVXX9GkSRNsNhseHh5O99Z9991H06ZNGThwICtWrHC6Pwr4+vqSnp7OoEGDMBqN1Kz5v+zdeVxU9QL///cMDJuiiAEi7poLYqapGWmhKbdc2vRiBbc0r2bmUmaJmPsGqLmldV1Ibbnm95s3SyqtyIW8LoGZgqkBLoVd1BBE1mHm94c/5ysCimaOOa/n4+HjMjPnfM77fA55lbefc+qrZcuWqlevXoXneun3z8VjLFq06IrXuG7durrvvvv03HPPqWHDhrrrrrvk7OyswsJCDRkyRN9++22ZeanKOV38esqUKZo4caJ27typ0NBQtWjRQkuXLtXAgQM1efJkbdq0SdWqVVN0dHSFtwW73KXnN2jQIA0fPlxOTk5q1apVuduNVXatLtWlSxf997//1Ysvvqji4mK99NJLql69eoXXU5LCwsI0efJktWjRQu7u7rJYLPLy8tLgwYM1ZMgQWSwWPfXUUzKZTGXmw9n5wh99H3nkEUVFRZWbj8qMHDlSL7/8svz9/VWnTp0qFYCV8fHxUVhYmObPn69p06aV+exi1ri4uArn41IV/feUkJBg+7xmzZoV/t5V2blfek2v9nuXyWTSkiVLNHfuXK1atcq2mmnx4sW2/27atm2rn376qczv0/7+/iopKal0ddWIESPUr1+/Mu9dfku6++67r9zt/C6f05iYGMXGxmrhwoUyGAzy8/PT+PHjr3ZpAAAAAMDhGax/5G+81yi9YI9cDR4KcCv/rwpx60vO3aAW1R5QNadaV98YFUrMXqP7a0XIwOI+3GYyiw6qoDRHTT062zsK/qB58+apTZs2Cg0NveZ9//73v2vFihVlnvtzLQ4ePKgTJ05U6dhbtmzRjh07FBUVdV3HuhVZLBZt3LhRvXv3lsFg0MCBAxUdHa26detq4cKFFZZ3fwW347XC7efw+UTVNNWRn0sze0eBpFxzljIKvldbz172joIqSsn7Wv6uLeVtKv+8Rji21LwE+bk2U21Tg6tvjFtOqbVEu3LWKdir8ts2A8DtpNiSr73nNuremmH2jmI3rDACAAB/2KxZs1SzZk3VqFHjuscoLi5W586OWzoajUb98ssv+sc//iFXV1c9+OCDqlu3rqxWq+655x57xwMAAAAAALc5CiMAAGDz6quvXtd+N2L1SNu2bau8bUhIiEJCQv7wMW81w4cP1/Dhw8u8ZzAY1KVLFzsl+uNu12sFAAAAAMDthvtiAQAAAAAAAAAAODgKIwAAAAAAAAAAAAdHYQQAAAAAAAAAAODgKIwAAAAAAAAAAAAcHIURAAAAAAAAAACAg6MwAgAAAOB4SkvtnQAAAAAAbinO9g4AALg9ZJ/J0en80/aOAQBAlXjs36+0yAS5RvxNeX1cVDPA3okAAAAAwL4ojAAAN0Tmsf+p2HjY3jEAAKiSWseOyWv3JzpdbJHV7R7pOW97RwIAAAAAu6IwAgDcEK3bN1dTj872jgEAQNW4uyv17f+j5gNa6leXRHunAQAAAAC7ozACAAAA4HjatVNgu///6/N2TQIAAAAAtwSjvQMAAAAAAAAAAADAviiMAAAAAAAAAAAAHByFEQAAAAAAAAAAgIOjMAIAAAAAAAAAAHBwFEYAAAAAAAAAAAAOjsIIAAAAAAAAAADAwTnbOwAAAAAA3EpCQ0NVs2ZNGQwGWa1W1ahRQxMnTlSjRo1uepZ9+/apXr16ql27dqUZzWaz7rnnHo0fP15Go7HK+Ssb+2ZJSEhQ9+7dq7z9oEGDtHz5cjk7//G/xn722Wc6evSoRo4ceUPyFRUVaeHChdq6daucnJx0xx13aOTIkWrXrp1iY2PVqFEjhYWFSZJWrVqlH3/8UW+++aYkKTU1VTExMZo6dar69++vlStXqm3btpKkHTt2aMuWLYqKilJUVJR++OEHubu7247boUMHjR8//orX3GKxaMGCBdq7d6+cnJxksVg0duxY3XXXXWXO4dtvv9X8+fP1yiuv6N1339WaNWv0zDPPaPHixXb7HgEAAMDNRWEEAAAAAJdZvXq1PDw8JEmbN29WbGysli5detNzxMfHq3///hX+wP5iRovFonHjxunzzz9Xnz59ynwmVZ7/SmNfK4vFIqOx6jewOH36tOLj46tcyJw9e1aenp43pCyqimvNN2/ePFksFn3yyScymUzat2+fxo0bpxUrVqhjx4768ssvbYVRcnKyTp8+bZuz5ORkderUSZLUqFEjLVy4UCtXrpTBYCh3nPHjx6tr164VZqjsmn/77bfKysrSmjVrZDAYtH//fi1fvlyLFi0qs//u3bs1atQodevWTd26davyXAEAAOD2QWEEAAAAAFfQoUMHLVy4UJJ0+PBhLVy4UE5OTnJ2dtbEiRNVq1YtLVu2TP/973/l7++v/Px89e/fX0VFRUpKStLrr78u6cKqoM2bNys3N1czZ85UYWGhCgsLNWrUKLVu3Vrvvfeetm7dqpKSErVu3Vo9evRQQkKCfv75Z02fPl0BAQEV5jMajWrXrp2OHz9+1fwXJScnlxk7OTlZ//nPf+Tq6qrGjRvrtddeK1NYWK1WxcbG6vDhw7aCKisrS/Hx8Tp79qxGjx4tZ2fnCudm5cqVSkxMlMFgUIcOHTR8+HDNmTPHVlwMGDCgzHwMfilCro3LnsOePXt0zz33lHnvm2++qXB+Y2NjJUl5eXk6fvy4hg4dquDgYH333XdasmSJGjRoIDc3N1tRdq35Ll6vi/Ly8rRlyxZ99tlnMplMkqS2bduqX79+Wr9+vQYNGqTo6GhJUmlpqc6ePavmzZvr559/VvPmzZWcnKynnnpKktSgQQN5enrqq6++UmhoaIXXsyouvebnz59XSUmJrFarDAaD2rRpU64s2rNnj7Zt26Yff/xRzs7OWrx4sT7++GPb55V9zwIAAOD2QmEEAAAAAFewadMm2w/Ho6OjFRMTIx8fH23cuNF2267Nmzfro48+UmlpqZ588skrrrZZtWqVevbsqR49eigzM1ORkZFas2aN/v3vf2vjxo0yGo36+OOPFRgYqFatWmnkyJGVlkWSVFxcrMTERNsKlivlv6h9+/a2sT08PBQXF6e1a9fK1dVVr776qv773/8qODjYtv327dt1/vx5rVy5Uvv27dPnn3+uzp07Ky0tTWvXrpWzs7Oef/75cnMzcuRIGQwGLVu2TCaTSWFhYQoLC1NERITMZrOGDBmiRYsWlZmP1yLH6vUlEWXy7tmzR4899thVr5UkOTk5qbi4WNOmTVNmZqZeeeUVBQcHa8GCBVq0aJH8/f0VFRUl6cLKqGvNd/F6XXT8+HE1bNhQrq6uZXIEBQXpo48+kqenp3x9fZWenq6CggI1b95crVu3VnJyspo1a6bU1FTdfffdyszMlMVi0UsvvaSXXnpJISEhVTrfilx6zUNDQ/Xll1/q8ccfV5cuXdSlSxfdd999ZQrBjh076v7771dwcHC5Yk6q/HsWAAAAtxcKIwAAAAC4zPPPPy+j0ajTp0+rVatWmjx5skpLS3Xo0CFNmDBBkmQ2m1WvXj1lZGSoefPmcnJykpOTk4KCgq449oEDB5SUlKR169ZJkvLz8yVJXbp00bBhw9SjRw+FhobKzc2tShklqXv37mUKhoryV+biSpeLhUe7du106NChMoXRwYMHbc/Vadu2rdq2basdO3YoMDBQzs7Olc6N0WhUtWrVFBkZKVdXV2VnZysnJ+eK81FwvqBcxp9++kmRkZFXnI9LXbwGdevW1ZkzZ1RSUqLc3Fz5+/vbzvG33367rnwXr9dFpaWlKi0tLZfBarXark/Hjh2VlJSkgoICtW/fXq1bt9aSJUvUvn17NW7cWC4uLrb9fH191a1bN61du1bNmjUrM+bs2bO1YMEC2+sXXnjBthKpsmvu5uampUuX6ujRo9q1a5feeecd/ec//9GcOXOqPJ9XmwMAAADcHiiMAAAAAOAycXFx8vDw0Pr16/XDDz/I29tbFotFrq6uWrZsWZltd+3aJavVanttsVgkqdwzaC4tFcaPH6+WLVuW+TwqKkrp6enavn27Bg0apNWrV1cpY1XzX8nlt5+7PLvVaq2wFLl4CzaDwVDh3Bw5ckQbNmzQqlWr5OLiooiIiHJjSGXnI9ecpYyC722fZWVl6Y477ii3autK81vR9bj8fK433+UaNWqkY8eOKT8/v8z1SElJsRU+HTt21MaNG5Wfn6/XX39d/v7+OnHihJKTk9VH3CecAAAgAElEQVSxY8dyYw4cOFAREREaMmRIuRyVPcOosmteUFAgJycnNWrUSI0aNdLf//539erVS7///vtVvy+qOgcAAAC4PVT9qaQAAAAA4GAef/xxHT16VLt375bRaFT9+vWVnJwsSdq6dau2b9+uhg0b6tChQyotLVV+fr727dsnSapevbrOnj0rSfr111+Vm5sr6cLql23btkmSMjMzFRcXp3PnzikuLk5NmjTRc889p8aNG+uXX36RwWBQcXHxDcl/uYtj33nnnTp8+LDtOMnJyQoMDCyzbWBgoHbt2iXpwnOcJk6cWObzyuYmOztbPj4+cnFx0eHDh3XixAmVlJTIaDSqpKSkwvn4YNVHZcbes2ePOnToUC5/ZfN78RwkKSMjQ3Xq1JHJZFK1atWUmZkpSdq5c6ckXVe+uLi4Mjk8PT314IMPKjo62jaHBw4c0IYNG/TEE09I+n+rts6cOWNb5VS/fn1t2rRJnTp1KnduHh4eioiI0HvvvVfus6u5/JovWLBAK1assJVkv/76qwwGg2rWrFnlMa82BwAAALg9UBgBAAAAQCWMRqPGjRtnKwMmTJigpUuXatiwYfroo48UGBioOnXqKCQkRM8995ymTJliW4Vx99136/fff9eECRO0fv161a9fXxaLRQMHDtShQ4c0bNgwvfHGG2rfvr08PT2VnZ2tQYMGaejQoapVq5ZatmypDh06aNKkSUpNTb0h+S91cezMzEwNGjRIw4cP1wsvvKCGDRuWKzG6du0qPz8/Pfvss5oxY4aefvrpcseqaG7uvvtuFRUVadiwYdqwYYPCw8M1d+5cNWjQQEePHlV0dHS5+birXdlb+n3//fcVFkaVze9Fo0eP1oQJEzR69GhJ0siRI/Xyyy9r9OjR8vHxkdVqva587du3L5clMjJS3t7e6tevnx577DEtWLBAMTExtnLIzc1N3t7eatSokW2fdu3aKT09vVw5d9Hjjz8us9lc5r3Zs2erX79+tl+DBg0qt9/l13zUqFH67bffNGDAAIWHh2vy5MmaMWOGnJycKjxuRaoyBwAAAPjrM1gvXav/J0sv2CNXg4cC3FpffWPccpJzN6hFtQdUzamWvaP8ZSVmr9H9tSJkoKvFbSaz6KAKSnPU1KOzvaMAAHDNDp9PVE1THfm5NLv6xlUwZcoUhYaGlnkGEKru4i3p2nr2uq79582bpzZt2tie7YM/X0re1/J3bSlvUz17R8EtJjUvQX6uzVTb1MDeUXAdSq0l2pWzTsFe4faOAgA3RbElX3vPbdS9NcPsHcVu+Kk1AAAAAAAAAACAg3O2dwAAAAAAuJ1MmTLF3hEc2quvvmrvCAAAAMBfEiuMAAAAAAAAAAAAHByFEQAAAAAAAAAAgIOjMAIAAAAAAAAAAHBwFEYAAAAAAAAAAAAOjsIIAAAAAAAAAADAwVEYAQAAAAAAAAAAODgKIwAAAAAAcG02bdL+VzfpzAl7BwEAAMCN4mzvAAAAAABgb4kJO+Vq/sneMSCpwJKr08VHdcLNYu8ouIIGycnyefNDHf3gAbm9frc0sqW9IwEAAOAPojACAAAA4PCCQzrJz6WZvWNAUq45SxkFSWrr+Yi9o+AKjM7O2vdCW9V7va9O3fGtveMAAADgBqAwAgAAAODwjEajjEbu2H0ruHAtDFyPW93DD6vtwxe+PJ1ntW8WAAAA3BD8CRwAAAAAAAAAAMDBURgBAAAAAAAAAAA4OAojAAAAAAAAAAAAB0dhBAAAAAAAAAAA4OAojAAAAAAAAAAAABwchREAAAAAAAAAAICDozACAAAAgGt09uxZhYaG2l6XlpbqgQce0E8//WR77+WXX9aOHTsq3P+tt95SQkKCJNn+91KZmZl67LHH9O67715XvnXr1unJJ5/Uo48+qr///e/6z3/+YzvWuHHjbNvt379fISEhslgskiSLxaKHHnpI58+fV2hoqOLi4mzbFhcXq1+/fpKkjz/+WN27d1e/fv1svyIiIiRJUVFR6tOnj8LCwmy/tm3bZhvn008/1bPPPqtBgwbp6aef1ieffFIu/5ZP9+ihhx6y7R8eHq4ffvihSuNfTUXzXZFz587ZzvdWNG/ePG3evLnSz7OysrR///4qjzdlypRKv18BAADgGJztHQAAAAAA/mq8vLxUu3Ztpaenq0mTJjp48KC8vLyUnJysli1bymKx6MCBA5o1a1aF+48YMUKSdPr0acXHx6t79+5lPk9NTVVwcLAGDRp01SwWi0VG4//7t4CbN29WfHy8li9frtq1aysrK0svv/yy3NzcdP/99ys6Otq2bXJysmrUqKEjR46oRYsWOnTokBo2bKhq1arJ09NT8fHxevzxx+Xt7V3uuI8++qhefvnlCjONGzdOXbt2lST9+uuvGjRokDZu3Ki8vDytXLlSa9eulbu7u3JzczV8+HD16NFD1atXLzNG3759beP/9NNPev311/Xpp59ecXwXF5crzlVl83072rt3r86cOaM2bdrYOwoAAAD+IiiMAAAAAOA6dOzYUUlJSWrSpImSkpL05JNPKikpSc8884wOHz6sRo0aydnZWZGRkfr9999VWFiogQMHqnv37po3b57atGmjb775Rvv379fy5cs1ZMgQSRdWL8XFxencuXMKCAhQ+/btNX/+fLm4uMjV1VWTJk2SyWTS0KFD1bBhQ3Xo0EFPPvmkLdf777+vcePGqXbt2pIkX19fjR07VgsXLtQjjzwiHx8fW9F1ae4WLVooOTlZHTt2lCRZrVYNHDhQ77zzjqKioq57ngICAlSzZk2dOnVKBoNBZrNZZrNZklSjRg29//77Vx2jZcuWys3NVUlJyRXHN5lMmjRpkgwGg/Lz8zV+/Hi1bNnStu2cOXNs892/f39Nnz5dRUVFKikp0SuvvKJWrVqVGdtqtWrGjBk6evSoatasqejoaJlMJi1YsEBpaWkqLCxU37599eijj5bZLzs7W9OmTdO5c+fk7u6umTNnqrS0tMLjPfvsswoJCVFGRoZOnjypXr16KTU1VWlpaVq0aJH27NmjL7/8Uh4eHsrKylK7du1s3ysXXZ4nJCRE//rXv2Q0GlW3bl21b99eM2fOVGFhoQoLCzVq1Ci1bt1ay5Yt086dO1W3bl2dPXu2ytcUAAAAtyduSQcAAAAA1+FiYSRJSUlJ6tWrlzIzM2W1WpWcnKxOnTrp999/V+fOnbVs2TItXLhQb731VpkxIiIi1KZNmzIFgJeXlwYOHKiQkBBFRERo1qxZioyM1JIlS9ShQwe99957MplMSktL00svvVSmLJKkY8eOqUWLFmXeCwoKUkZGRpncFotFZ86cUffu3bV3715JsuWWLqxc6tOnjw4ePKj09PTrnqfU1FTl5+fLz89PdevW1d/+9jc9/vjjmjBhguLj41VUVHTVMXbv3q26devKZDJdcfyvv/5aXbp00dtvv63JkycrOzu7zLaXzve7776rzp07a8mSJRo7dqxiYmLKjX3ixAmFh4drxYoVcnZ21vbt2/Xdd9+pqKhIixcv1jvvvKMPPvhAOTk5ZfZbtWqVunXrphUrVuj+++/Xd999V+nxjEajmjVrpunTp8vd3V2FhYV644031KpVK+3evVtGo1FHjx7VpEmT9NZbb+mLL77Q77//bjtWRXmsVqseffRRPfnkkwoJCdGqVavUs2dPLVy4UJMnT1ZMTIxOnTqlr776SitWrNCkSZN07NixKl1PAAAA3L5YYQQAAAAA1+Gee+7R7NmzVVpaqtOnT8vX11eNGzdWWlqakpOTFR4erlq1aunnn3/W66+/Lmdn53LFwtWUlpYqKytLTZs2lSS1a9dOS5YskSR5e3srICCg3D5ms9n2TKKLrFarDAaDJKlTp0769NNPFRgYqBYtWqhBgwY6fvy4LBaLDh48WOYWZkajUSNHjtSCBQs0d+7cMmN++umn2r59u+11ly5d9Morr0i6sJLn7bffVl5entzc3BQTEyNn5wt//Rw1apQiIiK0c+dObdmyRcuXL9eaNWtUo0aNMuPHx8dr9+7dslqt8vb21owZM2yfVTb+vffeqzFjxui3335Tt27ddN9991U6twcPHtTjjz8uSWrevLl++eWXMvMkST4+PmrcuLEk6a677lJGRobMZrN27dqloUOHSrpQrJ08eVI1a9YsM/YTTzwhSXrqqackSevXr6/weJJ05513SrpQFjZr1sz2dV5enmrWrKnAwEDbbQcbN26s48eP24514MCBCvNc6sCBA0pKStK6deskSfn5+crIyNCdd94po9EoFxcXtW7dutK5AgAAgGOgMAIAAACA6+Dh4SE/Pz999dVXthU97dq10969e/XTTz8pKChIH3/8sYqLixUbG6v8/Hz17dv3mo9zaYFxaaFR2fN6mjRpogMHDqh9+/a291JSUmxFRLt27TRr1izt3bvXtk3jxo319ddfq3HjxuXG7dSpkz744APt3r27zPtXeobRa6+9pq5duyo9PV3jxo1T8+bNJV0owAoLC+Xt7a1evXqpV69eioyM1M6dOxUaGlpmjN69e1/z+E2bNtXatWu1a9cuvfvuu/rhhx80ePDgCseoyKVzLanMs6EMBoPtV79+/RQeHl7pOFartVxpd6XjOTk52d679OuLhdKlY1ksljI5K8uzc+fOMq8vvz3fxTLu0nEBAADg2LglHQAAAABcp44dO2rdunVq166dJKl9+/b6/PPP1aRJE5lMJmVnZ6tevXqSpC+//LLMD+ilC4VERc/lucjJyUm+vr62W8IlJSWVe87O5Z5++mnNnTtXWVlZkqTTp09rwYIFtkLB3d1dfn5+SkhIsBVG7du317///W/b7eguN3r0aL399ttlyoyqaNKkiYKDg7Vy5UpJ0jfffKPXXntNxcXFkqSCggL98ssvtjm6VpeP/+WXX+rYsWMKCQnRiBEjtH///jLbXzrfrVu3tt1SMDU1VQ0bNiw3flZWljIzMyVdWKXTpEkTBQUFKTExUVarVWazWXPmzClXtgQGBtoKm/Xr1+ujjz6q0vEqc+DAAZWUlKikpERpaWlq0KCB7bPK8lx6rkFBQdq2bZskKTMzU3FxcWrYsKEOHTqk0tJS5efn68cff6xyHgAAANyeWGEEAAAAANepU6dOiouL07Rp0yRdKDCOHTumgQMHSpIeeeQRRUVF2VbQtGjRQkuXLrXt36BBAx09elTR0dGKjIys8Bjjx49XdHS0XFxc5O7urokTJ14xU69evVRcXKzhw4erpKRErq6ueu6559S9e/cyuTds2KC6detKku6++27Fxsbqtddeq3DMi0XJ999/b3vv8lvSSdL8+fPL7fvCCy9owIABevjhh9WzZ08dP35cERERtlvUPfHEEwoMDLziOV3JpeM3btxYMTExMplMMpvNGjFiRJltL53vF154QdOnT9fWrVtVUlKicePGldnWYrGoUaNGWr16tU6cOCFPT0916dJFzs7O2r17twYPHiyLxaLevXuXWYkkSQMHDtTkyZO1adMmVatWTdHR0SotLb3i8a6kXr16ioyM1KlTp/Tkk0+qVq1ats+Cg4MrzBMUFKQ33njD9kysqVOnatiwYSouLtaoUaPk5+enhx56SM8995z8/f0VFBRUrtAEAACAYzFYb+KfCNML9sjV4KEAN+6N/FeUnLtBLao9oGpOta6+MSqUmL1G99eKkIHFfbjNZBYdVEFpjpp6dLZ3FAAArtnh84mqaaojP5dm9o4CSbnmLGUUfK+2nr3sHeWWsGXLFu3YsUNRUVH2jlKplLyv5e/aUt6m61sphttXal6C/FybqbapwdU3xi2n1FqiXTnrFOxV+S04AeB2UmzJ195zG3VvzTB7R7EbfmoNAAAAAAAAAADg4LglHQAAAAAAt6iQkBCFhITYOwYAAAAcACuMAAAAAAAAAAAAHByFEQAAAAAAAAAAgIOjMAIAAAAAAAAAAHBwFEYAAAAAAAAAAAAOjsIIAAAAAAAAAADAwVEYAQAAAAAAAAAAODgKIwAAAAAAcG3i46WMDHunAAAAwA3kbO8AAAAAAGBv+74/oFqmbHvHgKTzpdn6rShdxR577B0FV1AnPV2GPuP16/3PyvhKE+lReycCAADAH0VhBAAAAMDh+deroztM9ewdA5LySt1lKTytetW4HrcyrzvuUHrHR+T5RAfl32OwdxwAAADcABRGAAAAAByeb5075Ofib+8YkJRrdlJ+gZf8Pbket7Tu3VX3wadVq66Ukve1vdMAAADgBqAwAgAAAAAA18bPT7XsnQEAAAA3lNHeAQAAAAAAAAAAAGBfFEYAAAAAAAAAAAAOjsIIAAAAAAAAAADAwVEYAQAAAAAAAAAAODgKIwAAAAAAAAAAAAdHYQQAAAAAAAAAAODgKIwAVNlbb72lhISEGzLWvHnztHnz5hsy1sCBA5WVlXVd++7bt09nzpy5ITkkKTExUW+++aYkadGiRQoLC9MXX3xhew8AAAAAAAAAbkXO9g4A4K9jxIgR9o5wQ1ksFsXHx6t///6qXbv2DRmvS5cu6tKli6QL5dG//vUv1apVS4888kiVxzAa6fIBAAAAAAAA3FwURgCqbN68eWrTpo08PDy0ceNGeXt76+jRowoKClJERITCw8P16aefymAwaNeuXVq3bp3mzp2rOXPmKD09XSUlJXriiSfUp08f25hWq1WRkZF64IEH1LVrV82cOVOFhYUqLCzUqFGj1Lp16zIZUlNTNW/ePJnNZgUFBWns2LGSpPXr1ys5OVk5OTl68803FRAQoJUrVyoxMVEGg0EdOnTQ8OHDtW3bNsXHx+vs2bP629/+poSEBP3888+aPn26AgICJEm5ubkVnsvkyZMrzBceHq7OnTvr/Pnz6ty5s3bs2KFGjRrp5MmTmjBhgnr16qUff/xRUVFROnz4sBYuXCgnJyc5Oztr4sSJ2r9/vy3T6NGjFRgYePMuKgAAAAAAAACIW9IBuA5Go1FHjx7V2LFjtXjxYm3YsEGenp5q2LChDh48KEnasmWLQkNDtX37dp05c0bvvPOOli5dquXLlys3N9c21vLly9WoUSP17t1bq1atUs+ePbVw4UJNnjxZMTEx5Y4dHR2tKVOmaPXq1crPz1dGRoYkqW7dulq2bJkefvhhbdq0SRaLRQaDQcuWLVNcXJy2bNmi06dPy9nZWWlpaVqyZImefPJJtWrVSpGRkbaySJJq1KhR4blUls9kMqlp06aKjIy0jfHMM8/I19dXMTExql69ern8ixYtUvfu3bVmzZoymSiLAAAAAAAAANgDK4wAXJdWrVrZbp3m7u6uwsJCPfTQQ9q6datatWqlnTt3auTIkVqzZo3uueceSZKrq6uaNGmio0ePSpISEhJ08uRJrVq1SpJ04MABJSUlad26dZKk/Pz8MscsLS3VqVOnVL9+fUnS5MmTbZ916NBBkuTn56cjR47IaDSqWrVqioyMlKurq7Kzs5WTkyNJCgwMlLPzlX/7q+hcPv7440rz3XXXXVeds9LSUh06dEgTJkyQJJnNZtWrV6/KmQAAAAAAAADgz8JPJwFcl8ufs2O1WtWtWzeNGDFCXbt21Z133ikPDw9JksFgKLPdxdf5+fmyWCzav3+/rXAZP368WrZsWelxS0tLK3z/0rLFarXqyJEj2rBhg1atWiUXFxdFRETYPjeZTOX2//777zVjxgxJUmxsbKXnUlk+FxeXSjNfZDAY5OrqqmXLlpV5f8eOHRVmAgAAAAAAAICbhVvSAbhhvLy8VKNGDa1fv16hoaGSpNatWyspKUmSVFBQoIyMDDVu3FiS1KdPH02aNEkzZsxQUVGRgoKCtG3bNklSZmam4uLiyozv5OQkPz8/HTp0SJI0bdo0paSkVJglOztbPj4+cnFx0eHDh3XixAmVlJSU285gMKi4uFgdOnTQJ598ok8++UTNmzev8Fyulu9qjEaj6tevr+TkZEnS1q1btX379msaAwAAAAAAAAD+DBRGAG6oHj166JtvvlGXLl0kSV26dJG3t7defPFFjRgxQi+99FKZZ/rceeed6tmzpxYvXqyBAwfq0KFDGjZsmN544w21b9++3Pjjx4/X7NmzFRERIRcXl0qf+XP33XerqKhIw4YN04YNGxQeHq65c+eW265Dhw6aNGmSUlNTr3ouVcl3NRMmTNDSpUs1bNgwffTRRzyzCAAAAAAAAMAtwWC1Wq0362DpBXvkavBQgFvrm3VI3EDJuRvUotoDquZUy95R/rISs9fo/loRMtDV4jaTWXRQBaU5aurR2d5RAAC4ZofPJ6qmqY78XJrZOwok5ZqzlFHwvdp69rJ3FFRRSt7X8ndtKW9TPXtHwS0mNS9Bfq7NVNvUwN5RcB1KrSXalbNOwV7h9o4CADdFsSVfe89t1L01w+wdxW74qTUAAAAAAAAAAICDozACAAAAAAAAAABwcBRGAAAAAAAAAAAADo7CCAAAAAAAAAAAwMFRGAEAAAAAAAAAADg4CiMAAAAAAAAAAAAHR2EEAAAAAAAAAADg4CiMADvIz5FOfvKTvWMAAAAAAAAAACBJcrZ3AMCRFOe66PtVe+T12Wc6a/VTcTt3e0cCbois4pPyDvCwdwwAAAAAAAAA14nCCLjJin88KbeM/XJpWF1nz561dxzghsgtPkdhBAAAAAAAAPyFURgBN5FLjWIFvxsmgx5X/ffek9q2tXck4IbILHJRQWmOvWMAAAAAAAAAuE48wwiwl3/8w94JAAAAAAAAAACQRGEEAAAAAAAAAADg8CiMAAAAAAAAAAAAHByFEQAAAAAAAAAAgIOjMAIAAAAAAAAAAHBwFEYAAAAAAAAAAAAOjsIIAAAAAAAAAADAwVEYAQBwG4iKilKfPn0UFhamvn37aurUqcrJybnmcc6dO6d+/fpdd47i4mI9/vjjVd5+3rx52rx583Ufb/Hixfr888+va999+/bpzJkz133sP2LHjh2aPn36de2blZWl/fv3l3v/es8nISFBkpSYmKg333zzujIBAAAAAIC/PgojAABuE+PGjdO6deu0YcMGBQQEKDIy0t6RblkWi0Xx8fFVLlgsFsufnKhqLBaL9u7dW2FhdC3nc6nVq1dLkrp06aIxY8b84YwAAAAAAOCvydneAQAAwI1lNBr1z3/+U9u2bVNKSorq16+vmTNnqrCwUIWFhRo1apRat26tAQMGqGfPnsrIyND//vc/TZs2TZ6enrZxUlNTNX/+fLm4uMjV1VWTJk3Se++9J39/f/Xv31+S9OKLL+qVV15R8+bNyxw/JiZGKSkpql69uhYvXiwnJyctWLBAaWlpKiwsVN++ffXoo4/a9klMTNSnn34qb29vpaSkqG/fvjp69Kh+/vln9ejRQ2FhYUpNTdW8efNkNpsVFBSksWPHSpL279+vzz//XL/88ovGjBmjBx54QImJiVqxYoVcXFxUvXp1zZ49W2azWUOHDlXDhg3l6+urhIQE/fzzz5o+fboCAgLKzeO2bdsUHx+vs2fPavTo0ZoyZYqWLVsmLy8vffzxxzpz5oz+8Y9/6Pnnn1dwcLBOnjyp3NxcLVy4UE5OTrZxsrOzNW3aNJ07d07u7u6aOXOmJCknJ0evvfaajh07ppCQEA0fPly//vqrpkyZIicnJ5WUlGjixIlq1KiRwsPD1blzZ2VnZ+uHH36Q0WhU3bp1FRISIklKTk4ucz7nz5+35XB2dtbEiRNVUlKiSZMmyWAwKD8/X+PHj9e+fft0+PBhvf766+rVq5d27NihqKgoPfvss+rRo4ftGsyePVs+Pj6KiopSbm6u2rRpo61bt+r999+Xm5vbjfvmBQAAAAAAdkNhBADAbSowMFDp6en65ptv1LNnT/Xo0UOZmZmKjIzUmjVr5OTkpAYNGuif//ynPvvsM73//vt68cUXbfvPmjVLU6dOVdOmTfXhhx/qvffeU9++fTV9+nT1799fubm5ysnJKVMWSdKvv/6qp556Sg0bNtSIESOUkpKic+fOqaioSIsXL1ZpaameeeYZPfjgg7Z9jEajTp48qdjYWO3fv1+vvvqq4uPjdf78eQ0dOlRhYWGKjo7WzJkzVb9+fU2dOlUZGRmSpPPnz+utt97Sjz/+qH/961964IEHlJOTo+nTp6t+/fqKiYnRli1b1K1bN6WlpSk2NlYBAQFKS0vTyJEjKyyLJMnZ2VlpaWlau3atnJ0r/iOTk5OTMjIytGjRIvn4+GjMmDFKSUnRXXfdZdtm1apV6tatmx599FGtXbtW3333nWrWrKn09HStXbtWVqtVffv21YsvvqisrCz985//1L333quvv/5aH374oaKiomQymdS0aVP16tVLq1atkouLi60skqT27durVatWtvN5/vnnFRMTIx8fH23cuFFr1qyRj4+PunTpooiICKWnp+t///ufBgwYoJUrVyo2NlZbtmwpcz0CAgL07LPP6oMPPtCmTZsUEBCg6tWra+7cudq9e7fWrFkjo5HF6gAAAAAA3C4ojAAAuE0ZDAZZrVYdOHBASUlJWrdunSQpPz/ftk1QUJAkqUWLFvriiy9s75eWliorK0tNmzaVJLVr105LlizRyJEjZbValZmZqeTkZD388MPljuvr66uGDRtKkvz8/JSbm6uUlBTt2rVLQ4cOlXTh1monT54ss1+zZs0kSV5eXmrQoIFMJpO8vLyUl5en0tJSnTp1SvXr15ckTZ482bZfx44dJUl16tTRuXPnJEk+Pj5auHChTCaT0tLS1LhxY0mSt7d3pQVRRQIDAystiy49Xx8fH0lSrVq1lJubW+bzgwcP6oknnpAkPfXUU5IuPMPorrvukouLiyTJw8NDhYWF8vX11dKlS/XJJ58oOztbNWrUsI1zaQl1JaWlpTp06JAmTJggSTKbzapXr5769OmjMWPG6LffflO3bt103333XfXcL57TkSNHlJaWpuVQtfkAACAASURBVLZt20qSOnXqJHd39yrlAQAAAAAAfw0URgAA3Kb27dunJ554Qhs3btT48ePVsmXLcttYrVZJF0qGyxkMhjLbXXzdu3dvff311zpw4IDttnCXuvR2bJfu269fP4WHh5f5LD4+3vb1patVKlq5UlHGy4938XwmTpyo1atXq06dOpo/f77t84sFTVWZTCbb15fOx6VZLs96McOlryt6BlJF87RgwQL17NlToaGh2rZtmzZu3HjN2Q0Gg1xdXbVs2bJyn61du1a7du3Su+++qx9++EGDBw+udJyK5vXSOQAAAAAAALcX7iMCAMBtxmKxKC4uTl5eXmrevLmCgoK0bds2SVJmZqbi4uJs2yYnJ0u68Lyii6uJpAtlga+vr9LT0yVJSUlJatWqlSQpNDRUCQkJKikpka+vb5UyBQUFKTExUVarVWazWXPmzKmwRKmMk5OT/Pz8dOjQIUnStGnTlJKSUuG2ZrPZli0vL087d+5USUlJue0MBoOKi4slSadOnVJ2dvYVM3h6eurs2bOSVOmxKxIYGKidO3dKktavX6+PPvqo0m2zs7NVr149SdI333wjs9lcbhuj0XjF8zEajapfv77t2m7dulXbt2/Xl19+aXte0ogRI7R//35JF8qvy0uuijRo0ECpqamSLnzfFBYWXnUfAAAAAADw18EKIwAAbhMxMTFavHixSkpKdPfddys2NlaSNHDgQE2dOlXDhg1TcXGxRo0aZdsnLS1NL730kgoKCjRr1qwy440fP17R0dFycXGRu7u7Jk6cKOlCcVK7dm117969ytmCg4O1e/duDR48WBaLRb17977m59+MHz9es2fPltlsVlBQkAIDA5WQkFBuO2dnZ/Xt21eDBw9W7dq1NXjwYL399tvlbsHWoUMHTZo0STNmzNDmzZvl5+enp59+utLjh4WFafLkyWrRooXc3d2rXHgNHDhQkydP1qZNm1StWjVFR0frwIEDFW47YMAATZ8+Xd7e3goPD9esWbNsZd9FQUFBeuONN+Tl5aXHHnuswvOZMGGCYmNj5ezsLKPRqOnTp+v06dOKiYmRyWSS2WzWiBEjJElt2rTRs88+q4EDB17xPB566CF98cUXGjp0qNq0aSM/Pz+eYQQAAAAAwG3EYK3KPym9QdIL9sjV4KEAt9Y365C4gZJzN6hFtQdUzamWvaP8ZSVmr9H9tSJkYHEfbjOZRQdVUJqjph6d7R0F1+CZZ57R4sWLVbt27WvaLzc3V0OGDNHq1avl5ub2J6W7uQ4ePKgTJ04oNDTU3lFuWadPn1ZKSooefPBBZWdna/DgwVq/fr29YwE3xOHziappqiM/l2b2jgJJueYsZRR8r7aevewdBVWUkve1/F1byttUz95RcItJzUuQn2sz1TY1sHcUXIdSa4l25axTsFf41TcGgNtAsSVfe89t1L01w+wdxW5YYQQAAKps+/btWrp0qUaOHHnblEWSVFxcrM6dKTyvpHr16tqwYYPeffddWa1WjRkzxt6RAAAAAADADURhBACAg/rwww+veZ+uXbuqa9euf0Ia+2rbtq29I9zy3Nzc9Oabb9o7BgAAAAAA+JNwXywAAAAAAAAAAAAHR2EEAAAAAAAAAADg4CiMAAAAAAAAAAAAHByFEQAAAAAAAAAAgIOjMAIAAAAAAAAAAHBwFEYAAAAAAAAAAAAOztneAQBHUlxoVmFhoQx0tbjNFBUVqai0WIXGQntHAQDgmhUVFquotEiFFv5/zJ72dpyvOoO7qrR3U6mOvdMAAAAAjofCCLiJigtLtH3bdkkGe0cBbqhs868qtuTrFxd+0AYA+Os5WXRIHk6/qqbzr/aO4tDuPPe9rGM/U9YXg1Xt//rbOw4AAADgcCiMgJuoupe77g/tyQoj3HYyiw6qoDRHTT062zsKAADX7PB5D9U01ZGfSzN7R3Fo392VrSb/7qkWQaX6RXvsHQcAAABwOBRGAAAAAAC7u//TAZKkXHOWVGDnMAAAAIADYpkDAAAAAAAAAACAg6MwAgAAAAAAAAAAcHAURgAAAAAAAAAAAA6OwggAAAAAAAAAAMDBURgBAAAAAAAAAAA4OAojAAAAAAAAAAAAB0dhBMAmKipKffr0UVhYmO3Xtm3b/rTj7du3T2fOnPnTxpekefPmafPmzX/qMa5HQkJClbf97LPPtHjx4j8xDQAAAAAAAABHR2EEoIxx48Zp3bp1WrdunebPn68ZM2aouLj4hh/HYrEoPj7+Ty+M7MVisVT62enTpxUfH38T0wAAAAAAAADAlTnbOwCAW1dAQIBq1qypU6dOKSAgQAsWLFBaWpoKCwvVt29fPfroo4qNjZUk5eXl6fjx4xo6dKiCg4OVmpqq+fPny8XFRa6urpo0aZJMJpOGDh2qhg0bytfXVwkJCfr55581ffp0BQQESJIWL14sf39/9e/fX5L04osv6pVXXlFWVpZWrFghFxcXVa9eXbNnz5bFYtGgQYPUuXNnHTlyRI0bN1b16tWVkZEhk8mkGTNmVHhexcXFioqKUm5urtq0aaOtW7fq/fff1/Hjx7Vw4UI5OTnJ2dlZEydOlJubm55//nkFBwfr5MmTys3NtW1T0Xy8+eabKigoUHp6ulauXKmVK1cqMTFRBoNBHTp00PDhwzVnzhzt379fy5cv14ABAzRz5kwVFhaqsLBQo0aNUuvWrfXdd99pyZIlatCggdzc3FS7du2bc9EBAAAAAAAAOCQKIwCVSk1NVX5+vvz8/PTdd9+pqKhIixcvVmlpqZ555hk9+OCDcnJyUnFxsaZNm6bMzEy98sorCg4O1qxZszR16lQ1bdpUH374od577z298MILSktLU2xsrAICApSWlqaRI0fayiJJ6tu3r6ZPn67+/fsrNzdXOTk5at68uY4cOaLp06erfv36iomJ0ZYtW9StWzcdO3ZM77zzjjw9PRUSEqKVK1eqefPmCgsL09mzZys8r2+//VbVq1fX3LlztXv3bq1Zs0ZGo1HR0dGKiYmRj4+PNm7cqDVr1ujFF19URkaGFi1aJB8fH40ZM0YpKSk6d+5chfNhMpmUl5enlStXymKxyGAwaNmyZTKZTLbb/EVERMhsNmvIkCFatGiRevbsqR49eigzM1ORkZFas2aNFixYoEWLFsnf319RUVE365IDAAAAAAAAcFAURgDKmDNnjt5++23l5eXJzc1NMTExcnZ21oEDB7Rr1y4NHTpU0oVbrp08eVKSFBQUJEmqW7euzpw5I7PZrKysLDVt2lSS1K5dOy1ZskSS5O3tXaYgulyjRo1ktVqVmZmp5ORkPfzww5IkHx8fLVy4UCaTSWlpaWrcuLHtfS8vL0mSp6enmjVrJkny8vJSXl5ehcdIS0tT27ZtJUmdOnWSu7u7SktLdejQIU2YMEGSZDabVa9ePUmSr6+vfHx8JEm1atVSbm6uUlJSKp2Pi2MbjUZVq1ZNkZGRcnV1VXZ2tnJycspkOXDggJKSkrRu3TpJUn5+vsxms3Jzc+Xv72+bv99++63SOQMAAAAAAACAP4rCCEAZr732mrp27ar09HSNGzdOzZs3lyQZDAb169dP4eHhZbaPj4+X1Wq1vb747B6DwWB7z2q12l67uLhcNUPv3r319ddf68CBAxo7dqwkaeLEiVq9erXq1Kmj+fPn27Y1Gss+iu3S15fmutyl+S6+dnV11bJly8q8X1xcXO4YF8+novn46quvZDKZJElHjhzRhg0btGrVKrm4uCgiIqLCLOPHj1fLli1tr81mc7njAQAAAAAAAMCfyXj1TQA4oiZNmig4OFgrV66UdGEVUWJioqxWq8xms+bMmWMrh5KTkyVJGRkZqlOnjpydneXr66v09HRJUlJSklq1alXuGAaDQcXFxZKkrKws2y3kQkNDlZCQoJKSEvn6+spsNtu+zsvL086dO1VSUnLd59agQQOlpqbashcWFspoNKp+/fq2c9m6dau2b99e6RhXmo+LsrOz5ePjIxcXFx0+fFgnTpxQSUmJjEajLX9QUJC2bdsmScrMzFRcXJycnZ1VrVo1ZWZmSpJ27tx53ecKAAAAAAAAAFXBCiMAlXrhhRc0YMAAPfzwwwoODtbu3bs1ePBgWSwW9e7du8zKm9GjR+vUqVMaPXq0pAurZqKjo+Xi4iJ3d3dNnDix3PgdOnTQpEmTNGPGDH3xxReqX7++wsLC5Onpqdq1a6t79+6SJGdnZ/Xt21eDBw9W7dq1NXjwYL399tu67777ruu8HnroIX3xxRcaOnSo2rRpIz8/PxmNRk2YMEGxsbFydnaW0WjU9OnTKx3javMhSXfffbfi4uI0bNgwNW3aVOHh4Zo7d67mz5+vo0ePKjo6WsOHD9fUqVM1bNgwFRcXa9SoUZKkkSNH6uWXX5a/v7/q1KnDKiMAAAAAAAAAfyqD9Sb+FDK9YI9cDR4KcGt9sw6JGyg5d4NaVHtA1Zxq2TvKX1Zi9hrdXytChttocd+8efPUpk0bhYaG3rAxc3NzNWTIEK1evVpubm43bNyLTp8+rZSUFD344IPKzs7W4MGDtX79+ht+HEeSWXRQBaU5aurR2d5RAAC4ZofPJ6qmqY78XJrZOwok5ZqzlFHwvdp69rJ3FFRRSt7X8ndtKW9TPXtHwS0mNS9Bfq7NVNvUwN5RcB1KrSXalbNOwV7hV98YAG4DxZZ87T23UffWDLN3FLthhRGAW8r27du1dOlSjRw58k8piySpevXq2rBhg959911ZrVaNGTPmTzkOAAAAAAAAAPxVUBgB+ENeffXVGzpe165d1bVr1xs65uXc3Nz05ptv/qnHAAAAAAAAAIC/ktvnvlgAAAAAAAAAAAC4LhRGAAAAAAAAAAAADo7CCAAAAAAAAAAAwMFRGAEAAAAAAAAAADg4CiPg/2PvzuOqrPP+j7/PBu6iJpYbKrgBbo0lkamR2p0O5aihabnkkpmp2binaRijNO5mm5pLmTlZpmLWqLd7LgNqiAsCLoNYuICAgHCW3x/+PLcIKJp5NF7Px6OHnOv6Lu9rgfB8/F4HAAAAAAAAAIBijoIRAAAAAAAAAABAMUfBCABwx/YM2aKLia5OAQAAAAAAAOD3Mrs6AFCcZKRmaevBrZIMro4C3BW1Pxqh375tqKyQv6p8WG1XxwEAAAAAAABwhygYAfeQ0WRQs0ebycDiPvxJHG/SSRX6BCmnbWVJKa6OAwAAAAAAAOAOUTAC7qFSZUuoXLlyFIzwp/GXqImSpKQrR5Rlc3EYAAAAAAAAAHeMd60BAAAAAAAAAACKOQpGAAAAAAAAAAAAxRwFIwAAAAAAAAAAgGKOghEAAAAAAAAAAEAxR8EIAAAAAAAAAACgmKNgBAAAAAAAAAAAUMxRMAIAAAAAAAAAACjmKBgBAADcA9HR0erfv79effVVde/eXf/85z9lt9slSZs3b76tsQpqv2rVKs2aNSvPtkmTJumnn34qdJwtW7YoLCzstua+JioqSr169VJwcLA6d+6s+fPny263a9euXQoNDb2jMaXCj+2ZZ55RSEiIQkJC1LlzZ3322Wd3PMetJCcnKzo6+rb6zJs3z5n92p83OxebN2/WokWLbjrmjh07NGPGjCKPeTuKes/di+vZs2dPHThwQJI0btw4/fWvf3XuCwkJ0bZt2+54fgAAAABA0VEwAgAAuAdCQ0M1btw4LVq0SMuXL9f58+cVGRmp8+fPKyIiokhj2O3222r/R0lOTtb48eP197//XWvXrtWXX36pEydOaMmSJXc85q2OLTg4WCtXrtTKlSu1fPlybdmyxVlkuJvsdrv2799/2wWjIUOGKCgoqMjX5z//+Y+aN29+0zYtW7bUiBEjJOl3nduC3O3xbnQ713PChAmaOHGic9/o0aOd+2bOnKkpU6YoJyfnD8kIAAAAAPg/ZlcHAAAAKA4yMzN15coVSZLRaNTUqVMlXX1zPDo6Wp999pl69+6tiRMn6uLFi8rOzlafPn0UFBSkGTNmKCsrSwkJCXrooYec7QcMGFDk+X/88UetXr1aRqNRNWvW1KhRo5z7srKy1LdvXwUEBOj48eOqXbu2ypQpoxMnTshisWjKlCl5xvrmm2/0wgsvqHHjxpKkkiVLatKkSTKZTIqKitKlS5c0cuRInTp1Sm3atNHgwYN15swZZ5vc3FxNmDBBtWrVUs+ePRUQEKDLly8rJSWlSMdWokQJNWrUSKdPn1bTpk01a9YsxcfHKzs7W8HBwXr++ecVHh4uScrIyNDp06c1cOBABQYG6vDhw5o5c6bc3Nzk7u6uiRMnymKxaODAgfLy8pK/v7+++eYbGY1GVa1aVW3atJEkrV69WhcuXFC/fv30/fff6+uvv9by5cuVnp6u1157TX/5y1/UqFEjbdq0yXkMfn5+BZ4LSYqJiZGPj4/27dtX6JgDBw7Url275O3trdjYWI0aNUqdOnUqcMyUlBSFhobqypUrys3N1VtvvaWGDRsqJCREn376qTw8PLRq1SpduHBB5cuXd4537TxJksPhUHh4uGJjY2W32zV69GhJ+sOvZ4MGDZSWlqbc3Nx8+6pVq6by5cvr3LlzqlatmnP77NmzlZ2dLavVqkOHDqlHjx6KiYlRTEyMRo0apUaNGhV4z2/fvl0RERFKTU3VsGHDlJKSonnz5ql0RbPqN6gvd0c5DR06tMC+BoOh0GMAAAAAgD8DCkYAAAD3wFtvvaUhQ4bI19dXTzzxhNq1a6fKlSvr5ZdfltVq1YABA/Trr78qICBAnTp1UkpKivr166egoCBZLBZlZGRo4cKFio6OdrYvqkuXLumrr77SokWLZDQaNXnyZO3cudO532Qy6dSpU/r4449VtmxZtWnTRgsXLlS9evUUEhKi1NRUeXh4ONufPHlSf/3rX/PMUbp0aefXCQkJWrFihRwOh4KDg/X6668rOTlZ/fv3V4sWLbRx40YtX75c48aNk8Vikbe3tzp06FDkY0tNTdXevXvVpUsX7dy5U1euXNHcuXNls9nUo0cPtW7dWiaTSTk5OXrvvfeUlJSkt956S4GBgQoLC9PkyZPl7e2t5cuXa9myZXrttdcUHx+v8PBwVatWTTk5OXJzc3MWiySpefPmzuLK/v375eHhoYyMDP3yyy9q3ry5HA6HJOW5nrt27SrwXFy8eFEeHh56/PHHbzrmNd26ddPChQsVHh5e6Jiff/65AgICFBISotjYWIWFhWnx4sUFnr/rx7ve9u3bdfnyZS1cuFAHDx7U+vXrFRAQ8Idfz71796pq1aqyWCz59h0+fFiZmZmqUqVKnu1Go1Fubm4aPXq0Fi9erC1btmj69OnatGmTfvjhB9WsWbPAe95sNis+Pl4rVqyQ2WxW165dNWfOHKWXi9c/hn+qvzR5vNDvl5YtW970OAAAAADgQUfBCAAA4B545plnFBgYqMjISO3cuVM9evTQ9OnT86xaqFChguLi4jRq1CiZzWZdunTJua9Jkya3nGPNmjXavn278/X58+cVGBio48ePKykpSYMGDZIkXb58Wb6+vqpcubKzbeXKlZ1FobJly8rHx0eSnEWM6wtGNptNNput0ByNGzeWm5ubJKlUqVLKzs6Wp6en5s+fr9WrVyslJUXlypXL0/5WIiIitHfvXlmtVqWmpmro0KGqW7euNm/erD179mjgwIGSrj5m7OzZs5Ikf39/SVLVqlV14cIFWa1WJScny9vbW5LUrFkzffjhh5KkihUr5lnBcqPq1avr3LlzcjgcOnfunJ588klFR0frwIEDeuyxx7R3794in4t9+/apefPmtxyzsHNc0JhHjhxRp06dJEn16tVTYmKis4hVVEeOHHHeZ02aNFGTJk20a9euP/R6OhwOVaxYMc8qtg8++EAfffSRMjIyVKJECU2bNk1mc/6/ttStW1fS1Xv0xvu1sHu+WrVq8vX1ldlsltVqVWZmpqpWrarYywl6/MlHZctQoX0BAAAA4M+OghEAAMA9kJaWpnLlyqlly5Zq2bKl6tSpo4iIiDwrdb777jvl5OQoPDxcmZmZCg4Odu4raPXFjZ5//nkNHz7c+XrSpEmSJIPBIH9/f82YMSNP+y1btji/NhrzfrTl9a9vLDx4e3vrwIEDevrpp/McX2JioqSrK5au53A4NGvWLLVr107t27fXtm3btG7dOuf+a8WIm+nYsaOGDx+unJwc9ejRQ35+fs5j69Kli3r27JmnfURERJ7c1z6v5voCncPhcL4uSoa6detq3759qly5sho3bqydO3cqOjpaffr0KbRgVNC52Ldvn7p27XrLMfft21fkMQtiMBjyHO/NinzXximozR95PQsycuRIPfXUU0pISNDo0aNVr169Attdf49en/HadS3ont+1a5fze+nG82YwXj1XhfUFAAAAgD87462bAAAA4PdITk5W9+7d9dtvv0m6WryIj49XtWrVZDQanZ/dkpKSourVq0uSNmzYUGAh4Pr2ReXj46OjR48qLS1NkrR48WJncedOdOrUSevXr9euXbskXf18psmTJ2v//v2F9rn+2DZt2iSr1ZqvTVGOzc3NTUOHDlVYWJgcDof8/f21Y8cOORwOWa1WffDBB87iUFRUlCTpxIkTevjhh2U2m+Xp6amEhARJUmRkpBo2bFjkHM2bN9fSpUvVpEkTNWjQQIcOHZKU93F8RTmGY8eOqX79+kUeU7pa7LnZiiE/Pz9FRkZKuvoYNy8vL0lXV4ulpqZKuvq5STcbz9fXV3v27JEkxcbGasKECYXOd7eu583UqVNHgYGBWrhw4W33Lco9b7FYZLFYlJycLEmK/PlAkfsCAAAAwJ8RBSMAAIA/mKenp0aOHKm3335bPXr0UM+ePWUwGPTSSy+pZs2aOnnypKZOnarnnntOGzZs0ODBg2U0GlW/fn3Nnz8/z1jXty+q8uXLa9iwYXrzzTc1YMAAJSYmqmrVqnd8PFWrVtWMGTO0YMECdejQQa+88oqaNGmSb5XP9bp166bQ0FC98cYbevbZZxUbG6tt27bd0bG1atVKpUuX1po1axQYGKj69eurX79+6t+/v2rVqpVn5cmwYcM0fvx4DRs2TJI0duxYTZ06VUOGDNEvv/yil19+Od/4/v7++vrrr/X999/n2d68eXPt2bNHTZs2lcViUXZ2dr7Hr93qGH799VdVqVLFmbEoY0pSo0aN1KtXL2cx7Ea9e/fWzz//rCFDhmj27NkaPXq0JCkkJETvvvuuwsLCVLJkSWf/a+NdX+h56qmnVKVKFfXq1UtTpkzRSy+9VOBc0t29njfz2muvaf369Tpx4sRt9SvqPf/GG29oyJAhmj5ugWrUri6TyXTXv18AAAAA4EFhcNzuw81/h4SsfXI3lFK1En73akrcRVFp36t+6VYqbarg6igPrB0pS/VkhZdloFaLP5mkK0eUZbsk71IBro4CAJKk6dOnq1GjRmrfvr2ro+A+tm3bNjVo0ECppWO18qOf1KT+Y3keBQnXSLMm60TWf9SkbAdXR0ERxWRs1CPuDVTRUt3VUXCfOZyxWVXcfVTJUtPVUXAHbI5c7bm0UoEehf+jIAD4M8mxZ2p/+jq1KB/i6iguw2cYAQAAACiWrFarhg8fLmMJqx6qVFnPDn3W1ZEAAAAAwGUoGAEAAOBP5+2333Z1BDwAgoKCFBQUpNjLO1Te8rDc3NxcHQkAAAAAXIbnYgEAAAAAAAAAABRzFIwAAAAAAAAAAACKOQpGAAAAAAAAAAAAxRwFIwAAAAAAAAAAgGKOghEAAAAAAAAAAEAxR8EIAAAAAADcnj17XJ0AAAAAd5nZ1QEAAH8OCcdOK6dEeVfHAADgtp3O+q/KmDN10ZLr6iiQdNl2UWeuJMmt1BFXR8FNVI6O1qW/TtaFZ7rpyuh6esTf1YkAAADwe1EwAgDcFSazSWYz/1sBADx4TGaTTGYz/x+7T5gNZpmt/F5xvzOaTLKXLCNTGTcZLHZXxwEAAMBdwG/gAIC7wsu7mrxL1XV1DAAAbpvj8m8qb3lYVdx8XB0FktKsyTJkXVDdsvxecV+7fFlZG/qqrq8Uk7HR1WkAAABwF1AwAgAAAAAAt6dpU1VzdQYAAADcVUZXBwAAAAAAAAAAAIBrUTACAAAAAAAAAAAo5igYAQAAAAAAAAAAFHMUjAAAAAAAAAAAAIo5CkYAAAAAAAAAAADFHAUjAAAAAAAAAACAYo6CEQAAAADggZSamqr27ds7X9tsNrVq1UpHjx51bhs+fLh27dpVYP958+Zp8+bNkuT883pJSUl64YUX9Pnnn992tlWrVumZZ55RSEiIQkJC1LlzZ3322Wc37TN9+nT99NNPtz3XncrJydEHH3ygjh07qnPnzhowYIDz3M2dO1fr16+/o3EPHjyoCxcu5Nvevn17vfjii87z8f7778tut+vkyZMKDAx0nqsuXbpo7NixyszMLPLYBbnX5/N2pKenq0uXLjdtU9A9WZikpCT16dPnd6YCAADFHQUjAAAAAMADycPDQ5UqVVJCQoIk6ciRI/Lw8FBUVJQkyW6369ChQ2ratGmB/YcMGaKgoCCdP39eERER+fYfPnxYgYGB6tu37y2z2O32fNuCg4O1cuVKrVy5UsuXL9eWLVt04MCB2znEP9TcuXOVnp6u7777Tt9++61ee+01jRgxosBCTVHZ7XZFREQUWtRZsmSJVq5cqW+++UapqanOopS3t7fzXH3zzTcqV66cvvrqq3z9bzb2n82SJUtcHQEAABQzZlcHAAAAAADgTj322GOKjIxUnTp1FBkZqc6dOysyMlI9evRQbGysatWqJbPZrDFjxujixYvKzs5Wnz59FBQUpOnTp6tRo0batGmToqOj9dlnn2nAgAGSrq5eWrRokdLT01WtWjV17NhRoaGhunLlinJzc/XWW2+pYcOG6tmzpwICAnT58mWNGTOm0JwlSpRQo0aNdPr0aTVtZYILpwAAIABJREFU2lSzZs1SfHy8srOzFRwcrOeffz5P+4L2nzlzRpMmTZLJZFJubq4mTJigWrVqadmyZdq6datyc3Pl5+enUaNGKS0tTe+//76ys7OVnZ2toUOHys/Pzzl+dna2IiIitHbtWrm5uUmSmjdvrqVLl6pUqVKSpOjoaK1fv16JiYkaMWKEWrVqpR07dmjBggVyc3NTmTJl9I9//EP7dx7Wgk1rlHnpip599llt3rxZcXFxCg0NVbVq1Qo8H0ajUc2aNdPp06fl7++fZ5/BYFDz5s21ffv2PNujoqLyjB0VFaXvvvtO7u7uql27tkaOHCmDwZCnz549e/TDDz/ozJkzGjZsmJ588knFxsZq9uzZMplMMpvNmjBhgipUqODs43A4FB4ertjYWNntdo0ePVoNGjTQ2rVr8823c+dOrVmzRhUrVlRMTIyCg4N18uRJxcXFqW3btgoJCVG3bt3Url07nThxQr/99pvee+89lS1b1jlfQXl++uknxcbGatSoUQoPDy/wfkhKStI777yjihUrqkaNGoXeewAAAEVFwQgAAAAA8MB67LHHFBERoRdffFGRkZF655139OOPP8rhcCgqKkqPP/64Ll68qICAAHXq1EkpKSnq16+fgoKCnGO8/PLLslqtzmKRdHX1Up8+fRQdHa2XX35ZM2bMUEBAgEJCQhQbG6uwsDAtXrxYFotF3t7e6tChw01zpqamau/everSpYt27typK1euaO7cubLZbOrRo4dat27tbFvY/uTkZPXv318tWrTQxo0btXz5co0bN05fffWV1q1bJ6PRqFWrVik7O1uLFy9Wu3bt1LZtWyUlJWnMmDFaunSpc44zZ87okUceUenSpfPkfOihh5xfX758WfPmzdMvv/yiTz75RK1atdKlS5cUGhqqGjVqaNq0adqyZYvMFrNOxp/Wv77+RmazWf/7v/+rN998s9BikXT1cXg7duxQSEhIvn02m02bNm1Ss2bN8mx/9NFH1bBhQ7355psqVaqUFi1apBUrVsjd3V1vv/22fv75ZwUGBubpk5WVpZkzZyohIUFjx47Vk08+qalTp2ratGmqXLmy1q1bp6VLl2rYsGHOPtu3b9fly5e1cOFCHTx4UOvXr1eVKlUKnM9oNOrs2bMKDw9XdHS03n77bUVEROjy5csaOHCgQkJCZDKZVLNmTfXv319r167VF198oddff905X2F5Fi5cqPDw8ELvh8WLF6tr167q0KGDVq1apf379xd6vgEAAIqCghEAAAAA4IH1l7/8Rf/4xz9ks9l0/vx5eXp6qnbt2oqPj1dUVJR69uypChUqKC4uTqNGjZLZbNalS5due54jR46oU6dOkqR69eopMTFRDodDktS4ceMC+0RERGjv3r2yWq1KTU3V0KFDVbduXW3evFl79uzRwIEDJV19jNvZs2ed/Q4dOlTgfk9PT82fP1+rV69WSkqKypUrJ0lq2bKlBg0apLZt26p9+/YqUaKEDh06pMjISK1cuVKS8j1mzmazFfgYves99thjkqSHH35Y6enpkqTKlStr9uzZslgsio+PV+3ataWHpHoNfWQ23/othldffVVG49Wn4wcFBalNmzY6efKkEhIS1KNHD0nSf//7X7344ovq2rVroePExcWpXr16cnd3lyQ1a9ZMx44dy1cwatGihSSpTp06OnfunKxWq44dO6bx48dLkqxWq6pXr56nz5EjR9SkSRNJUpMmTdSkSRPt27evwPnq168vHx8fSVeLjDVr1pTFYpGHh4cyMjKcY15bRVW/fn398MMPzu02m+2WeQq7H+Lj453nrFmzZlq7dm2h5wsAAKAoKBgBAAAAAB5YpUqVUpUqVfTvf/9b9evXl3T1zfP9+/fr6NGj8vf316pVq5STk6Pw8HBlZmYqODj4rsx97fFn1x7pdqOOHTtq+PDhysnJUY8ePZyPhDMYDOrSpYt69uyZp/21z1EqbP/IkSPVrl07tW/fXtu2bdO6deskSePGjVNCQoK2b9+uvn37Oj/7ZuzYsWrQoEGB2apXr66zZ88qJSUlz+PY9u/f78xpMpmc268VxyZMmKAlS5bo4Ycf1syZM537LZaivb2waNEi5yPvrlenTh0tW7ZMkjR+/Hh5eXnlmb8g1z9+zuFw5Hsc3Y1tDAaDDAaD3N3d9emnnxY6rsPhkM1mK/J81wpgN35945iS8o1blDyF3Q/Xj3vtTwAAgN+j4N9kAAAAAAB4QDz22GNauXKl8xFmjz76qNavX686derIYrEoJSXFuWpjw4YN+d5cNxqNys3Nvekcfn5+ioyMlCQdPnxYXl5eRc7n5uamoUOHKiwsTA6HQ/7+/tqxY4ccDoesVqs++OCDPKt9Ctt//XFs2rRJVqtV6enpWrRokerUqaPevXurdu3aSkxMlL+/v7Zt2yZJSkpK0qJFi/JkKlWqlDp06KDQ0FDn6qOff/5Z7733nqxWa4HHYbValZubK09PT2VkZGj37t0FnjeDwaCcnJwin58bDR8+XAsWLFBKSkqhY9etW1exsbHOeaKiouTr65uv/YEDByRJJ0+eVJUqVWQymVSjRg1FRUVJkrZu3Zrvs5J8fX21Z88eSVc/X2jChAlFnq8w1+Y7fPiwvL29nduNRmOheWw2203vl1q1aikmJkaStHv37iJnAQAAKAwrjAAAAAAAD7THH39cixYt0nvvvSfp6mqVU6dOqU+fPpKk5557TuPGjdPu3bvVvn171a9fX/Pnz3f2r1mzpk6ePKmpU6dqzJgxBc7Ru3dvhYaGauvWrcrNzdXo0aNvK2OrVq307bffas2aNXrhhRe0d+9e9evXT3a7XR07dsyzMiUwMLDA/d26dVNoaKgqVqyonj17KiwsTPv371dKSor69u0ri8WiGjVqqEGDBqpevbomT56sQYMGKScnR0OHDs2XacSIEZo/f766du0qi8Wi6tWra/bs2QWuAJIks9ms4OBg9evXT5UqVVK/fv300Ucf6dkeLfK0a968uSZOnKgpU6bcVlHlmsqVKyskJEQzZ850XtOCxu7bt68GDx4sk8mkhg0b6vHHH8/T1mazyWw2a9SoUUpMTHR+TtH48eMVHh4us9kso9Go0NDQPP2eeuop7d69W7169ZIkjRkzRh4eHgXOt2vXriIdU3x8vN544w1lZWUpLCwsz77C8jRq1Ei9evXS559/XuD90Lt3b40fP14//PCD/Pz8bvmIQQAAgFsxOO7huuWErH1yN5RStRJ+92pK3EVRad+rfulWKm2qcOvGKNCOlKV6ssLLMrC4D38ySVeOKMt2Sd6lAlwdBQCA2xZ7eYfKWx5WFTcfV0eBpDRrsk5k/UdNynZwdRQUUUzGRj3i3kAVLdVv3bgY6tGjh+bOnatKlSq5Oso9dzhjs6q4+6iSpaaro+AO2By52nNppQI98j8OEQD+jHLsmdqfvk4tyoe4OorL8K41AAAAAAAAAABAMccj6QAAAAAAAP4gy5cvd3UEAACAImGFEQAAAAAAAAAAQDFHwQgAAAAAAAAAAKCYo2AEAAAAAAAAAABQzFEwAgAAAAAAAAAAKOYoGAEAAAAAAAAAABRzFIwAAAAAAAAAAACKObOrAwAAAAAAgAfb2aTfdCEnS1lZWcrJyZHNZpMkWSwWlSpVShUqVFCVKlVcnBIAAAA3Q8EIAAAAAAD8Lr8m/aZHypdUuXLl5O7uLpPJJEnKyclRRkaGjh8/roMHD6pWrVry8fGR0cgDTwAAAO43FIwAAAAAAMDv0qx5Y1W0VL9pm6ysLEVHR+vgwYNq1qzZPUoGAACAouKf9AAAAAAAgD9cyZIl9fjjjys5OVnZ2dmujgMAAIAbUDACAAAAAAD3REZGhnJycmSxWFwdBQAAADegYAQAAAAAAO7YlTSzzseZFB26p9A2NptNcXFx2rJli/z8/JyfcQQAAID7B59hBAAAAAAA7ljOzARlzZulitnx2hn0sdzc3GQ2X327ITc317mq6JFHHtETTzyhSpUquTgxAAAACkLBCAAAAAAA3LEy73jJ7enJShwToXr16iknJ0dWq1UGg0Fms1mlSpWSh4eHq2MCAADgFigYAQAAAACAO2YwOfRQu0qq12Gcq6MAAADgd+AzjAAAAAAAAAAAAIo5CkYAAAAAAAAAAADFHAUjAAAAAAAAAACAYo6CEQAAAAAAAAAAQDFHwQgAAAAAAAAAAKCYo2AEAAAAAAAAAABQzFEwAgAAAAAAAAAAKOYoGAEAAAAAAAAAABRzFIwAAAAAAAAAAACKOQpGAAAAAPAn5HA41K9fP7399tuaN2+eNm/e/LvGO3nypF555ZU829auXauwsLBC+2zZsuWm+28mKipKvXr1UnBwsDp37qz58+fLbrcrJydHnTp1uqMxJRV4Hu7G+blXJk2apF27drk6BgAAAP6EzK4OAAAAAAC4+1JTU5Wenq6FCxcWuN9ut8tovD//DWHK+TRNGz9X06ZNU+PGjZWVlaWJEydqyZIl6tmz5x2NabfbdfHiRUVERCgoKCjPviFDhtyN2EXOcb+edwAAABRvFIwAAAAA4D60Zs0affvtt7JarXrppZfUsWNHHT58WDNnzpSbm5vc3d01ceJEubu769VXX1VgYKDOnj2rtLQ0zZ49WzNmzNCvv/6qd999V+XKlVOjRo1UokQJRUREKDU1VcOGDdPUqVPVpk0bnThxQmfPnlWHDh10+PBhxcfHa86cOSpbtmyR8/74449avXq1jEajatasqVGjRjn3ZWVlqW/fvgoICNDx48dVu3ZtlSlTRidOnJDFYtGUKVPyjLXl+3164YUX1LhxY0lSyZIlNWnSJJlMJkmS0WjUtGnTFBMTozJlymju3Lmy2WyaOHGiLl68qOzsbPXp00dBQUGaMWOGsrKylJCQoIceekjR0dH67LPPNGDAAOd806dPV6NGjdS0aVNNnDhRBoNBmZmZGjt2rBo0aOBst2PHDq1Zs0YVK1ZUTEyMgoODdfLkScXFxalt27YKCQlRbGysZs+eLZPJJLPZrAkTJsjNzU0DBw6Ul5eXmjdvrhYtWmj8+PEqVaqUAgMD9dNPP2np0qUF9q1QoYI+/fRT7d69W1WrVlVqauod3U8AAADArfDPmgAAAADgPpOamqovvvhCn332mT755BNt2LBBdrtdYWFhGjNmjD788EM1b95cy5Ytk8lk0okTJ9S9e3eFhYXJzc1NMTExGj58uKpXr67Jkyc7xzWbzYqPj9eHH34oX19fGY1G+fj4KDQ0VCVLllR2drbeeecdNWzYUHv37i1y3kuXLumrr77Shx9+qA8//FDZ2dnauXOnc7/JZNKpU6fUp08fzZkzR99//72CgoI0bdo0xcbG5iuCnD19Tr6+vnm2lS5dWiVKlJAknTlzRt27d9fSpUtlNBoVExOjixcvKiAgQJ9++qlmz56tefPmSZIsFotsNpsWLlyol19+WY0aNcpTLLrexo0b1bJlS3300Ud69913lZKSkme/0WjU2bNnNWbMGI0aNUoLFizQW2+9pfDwcH3zzTeSpKlTp2rSpEmaM2eOgoKCtHTpUlksFsXHx+uNN95Q586dtWTJEnXp0kXz589XRkaGc8VRQX3PnTunf//731qwYIEmTpyoU6dOFfm6AAAAALeDFUYAAAAAcJ+Ji4uTj4+PLBaLLBaLcwVNcnKyvL29JUnNmjXThx9+KEny9PRU5cqVJUkVKlRQWlqaqlWrVuDYvr6+Mpv/76+CdevWlSR5eHjIx8fH+XVGRka+vvHx8erSpYvzdUZGhlq3bq3jx48rKSlJgwYNkiRdvnxZvr6+zkySVLlyZXl4eEiSypYtm2+ua/skyW6zy2azFXp+PD095eXlJUmqUqWK0tLSVL9+fcXFxWnUqFEym826dOmSs32TJk0KHet6LVq00IgRI/Trr7/q6aef1hNPPJGvzfW5a9asKYvF4jwGm82mY8eOafz48ZIkq9Wq6tWrS5IqVqzovCbx8fF6+eWXJUmtWrXS7t27C+174sQJ1a1bV0ajUW5ubvLz8yvSsQAAAAC3i4IRAAAAANxnHA5HgQUTg8GQp8211zd+Jo7D4Sh0bIvFkuf1tce83fh1QWN4e3tr2bJlztdr165VdHS0DAaD/P39NWPGjDztt2zZ4vz6xozXv75xrmq1q+jAgQN6+umnndvS0tKUmJgoHx+fPDmv9f/uu++Uk5Oj8PBwZWZmKjg4uNBjLoy3t7dWrFihPXv26PPPP9eBAwfUr1+/QnPfeEwGg0Hu7u769NNP82zPycmRm5tbnrzXrt31fxbUd+/evXnOj91uL9KxAAAAALeLR9IBAAAAwH2mbt26Onr0qLKysnTlyhX1799fdrtdnp6eSkhIkCRFRkaqYcOGLk56lY+Pj44ePaq0tDRJ0uLFi5WYmHjH4z3V8S9av369du3aJUnKzMzU5MmTtX///kL7pKSkOFfzbNiwocCCl9FoVG5ubqFjbNiwQadOnVKbNm00ZMgQRUdH31Zuo9GoGjVqKCoqSpK0detWbd++PV87Ly8vHT58WJKcj+4rrK+Xl5eOHTsmm82mzMxM/fLLL7eVCQAAACgqVhgBAAAAwH3Gw8ND/fr104ABA2S329W9e3dZLBaNHTtWU6dOlZubm0qWLKkJEya4OqokqXz58ho2bJjefPNNubm5ycvLS1WrVlVcXNwdjffQwx6aMWOGZs6cqSlTpqhkyZJ64YUX1LNnT+Xk5BTY57nnntO4ceO0e/dutW/fXvXr19f8+fPztKlZs6ZOnjypqVOnasyYMfnGqF27tqZNmyaLxSKr1aohQ4bcdvbx48crPDxcZrNZRqNRoaGh+dq88sormjBhgtatW6fGjRs7V0wV1LdSpUp65pln1Lt3bz3yyCPy9/e/6QoyAAAA4E4ZHPfwN82ErH1yN5RStRI8c/lBFJX2veqXbqXSpgqujvLA2pGyVE9WeFkGFvfhTybpyhFl2S7Ju1SAq6MAAHDbYi/vUHnLw6ri5uPqKJCUZk3Wiaz/qEnZDq6O8oc5duyYrFar/Pz8tG3bNm3evFmTJk1ydaw7FpOxUY+4N1BFS3VXR8F95nDGZlVx91ElS01XR8EdsDlytefSSgV69HR1FAC4J3Lsmdqfvk4tyoe4OorLsMIIAAAAAIB7qESJEnr33XedK4nul5ViAAAAKN4oGAEAAAAAcA95eXlp8eLFro4BAAAA5MFzsQAAAAAAAAAAAIo5CkYAAAAAAAAAAADFHAUjAAAAAAAAAACAYo6CEQAAAAAAAAAAQDFHwQgAAAAAAAAAAKCYo2AEAAAAAP9f6llXJwAAAAAA1zC7OgAAAAAAuFriIYPS1v6gS8u3qM7Po10dp1jLsKUqLeuyLuZedHUUFFHa5Qw98rCrUwAAAOD3omAEAAAAoNizLT4g23erVPFiog4fPuzqOMVapi1Vv+WckaEk1+FBkVoyVaJgBAAA8MCjYAQAAACg2PP6ZxNZRndR7LQdatmypavjFGtp1mSdyDKqSVmuw4MiJiPb1REAAABwF/AZRgAAAAAgqWI1KWAORQoAAAAAxRMFIwAAAAAAAAAAgGKOghEAAAAAAAAAAEAxR8EIAAAAAAAAAACgmKNgBAAAAAAAAAAAUMxRMAIAAAAAAAAAACjmKBgBAAAAAAAAAAAUcxSMAAAAAAAA7jNz587V+vXri9R2y5YtCgsLuyvz7tq1S6GhoXfUNzk5WdHR0XclhyRlZGSoV69et93v4MGDunDhwl0Z61YKO/fTp0/XTz/9pB07dmjGjBkF9s3JyVGnTp3uaN6kpCT16dMn3/bNmzff0Xi3cqtrm56eri5duvwhcwMA7h0KRgAAAAAAAPhd7Ha79u/ff0cFI7vdXuD2MmXKaOnSpbc9XkRERL6C0Z2O9Xu1bNlSI0aMuGfzLVmy5A8Z906vLQDgwWJ2dQAAAAAAAADkFx0drfXr1ysxMVEjRoxQq1at9OOPP2r16tUyGo2qWbOmRo0a5WyflZWlvn37KiAgQMePH1ft2rVVpkwZnThxQhaLRVOmTMkzfkpKit577z2lp6erZMmSev/99yVJly5d0siRI3Xq1Cm1adNGgwcP1pkzZzRp0iSZTCbl5uZqwoQJqly5sgYOHCgvLy/5+/vrm2++kdFoVNWqVdWmTRvnPN26dVO7du104sQJ/fbbb3rvvfdUvnx5Z9/mzZvr6aefVmhoqK5cuaLc3Fy99dZbql69uvr06aNVq1YpLS1N77//vrKzs5Wdna2hQ4fKz89Pa9as0bfffiur1aqXXnpJjzzyiDZv3qy4uDiFhoaqWrVqkq6ugLk21rJly7R161bl5ubKz88vzzksLG+pUqU0cOBArVy5UpI0btw454qac+fOaeTIkTpz5ozatGmjgQMHOsfasmWLdu3apdGjR2vSpEk6d+6cMjIy1L17d7Vv315Go1HTpk1TTEyMypQpo7lz58pkMmnWrFmKj49Xdna2goOD9fzzzyspKUnvvPOOKlasqBo1auS7X77++mvFxsZq1KhRCg8P19q1a/Xdd9/J3d1dtWvX1siRI2UwGG56/UuUKKGJEyfq4sWLys7O0hMhPvJvlaZPPvnEeW3NZrMWLFggNzc3lSlTRv/4xz/y5Dh8+LBmzpwpNzc3ubu7a+LEifLw8NCnn36q7du3q3r16jKbzfqf//kfPfnkk0X+fgAA/PEoGAEAAAAAANyHLl++rHnz5umXX37RJ598oiZNmuirr77SokWLZDQaNXnyZO3cudPZ3mQy6dSpU/r4449VtmxZtWnTRgsXLlS9evUUEhKi1NRUeXh4ONsvXrxYTz/9tJ5//nmtWLFCO3fuVPny5ZWQkKAVK1bI4XAoODhYr7/+upKTk9W/f3+1aNFCGzdu1PLly/X3v/9d8fHxCg8PV7Vq1ZSTkyM3N7c8xaJruWrWrKn+/ftr7dq1+uKLLzR8+PA8fWfMmKGAgACFhIQoNjZWYWFhmjt3bp6s7dq1U9u2bZWUlKQxY8Zozpw5+uKLL/Tll18qJydHY8aM0ezZs9WwYUO9+eabzmLRjb766iutW7dORqNRq1atUnZ2tkqUKHHTvNcXgW4UHx+vf/3rXzIYDOrSpYu6du2ar01cXJwyMjL08ccfKzMzUxs2bJAknTlzRt27d5eXl5eGDBmimJgYpaen68qVK5o7d65sNpt69Oih1q1ba/Hixeratas6dOigVatWaf/+/Xnm6NatmxYuXKjw8HClpKRo0aJFWrFihdzd3fX222/r559/VmBg4E2vf7NmzRQQEKBOnTrp/MVz6vVqD73+13f1/PPPO69tRESEQkNDVaNGDU2bNk1btmzJM25YWJgmT54sb29vLV++XMuWLVO3bt30448/6uuvv1ZGRoY6d+6s5557rtBzCgBwDQpGAAAAAAAA96HHHntMkvTwww8rPT1dx48fV1JSkgYNGiTpakHJ19dXlStXdvapXLmysyhUtmxZ+fj4SJI8PDyUkZGRp2B05MgR/e1vf5Mkde/eXdLVzzBq3Lix3NzcJEmlSpVSdna2PD09NX/+fK1evVopKSkqV66cJKlixYqFFmau5+/vL0mqX7++fvjhh3x9jxw54vw8n3r16ikxMVEOh8PZ/9ChQ4qMjHSu8MnMzFRcXJx8fHxksVhksVjyFJhupmXLlho0aJDatm2r9u3b5ykW3SxvYZo2bSp3d3dJUt26dXX69Ol8bWrVqqVz585p/Pjxat26tYKDg+VwOOTp6SkvLy9JUpUqVZSWlqaYmBjt2bPHWaSy2+06e/as4uPj1aNHD0lSs2bNtHbt2kIzxcXFqV69es5czZo107Fjx/IUdgq6/leuXFFcXJxGjRolk8moy2lZ+cauXLmyZs+eLYvFovj4eNWuXdu5z2azKTk5Wd7e3s55P/zwQ508eVINGzaU2WyWh4eHGjVqdNNzCgBwDQpGAAAAAAAA9yGTyeT82uFwyGAwyN/fXzNmzMjTbsuWLc6vjca8H1d9/evrCzDXXhf0+UHXz3ut3axZs9SuXTu1b99e27Zt07p16yTJWVi6lWtz22w257Zb9b3+8WmSNHbsWDVo0MD5et++fXnGK6px48YpISFB27dvV9++fbVkyRJnAaywvDdmsVqthea88bUkubu7a+nSpTpw4IA2btyo1atXa9asWQWe62srlXr27JlvnGu5bryWBbk+x7Vxbxzrxuv/3XffKScnR+Hh4Uq/fEl/De6Yb9wJEyZoyZIlevjhhzVz5swizXvj/DfepwCA+wM/nQEAAAAAAB4APj4+Onr0qNLS0iRdfaRYYmLiHY/n6+ur3bt3S5K+/fZbff3114W2TUlJUfXq1SVJmzZtylMwucZoNCo3N7fA/lFRUZKufr7NtdUn1/Pz81NkZKSzzbVVN9f4+/tr27ZtkqSkpCQtWrRIdevW1dGjR5WVlaUrV66of//+ys3NlcFgUE5OToE50tPTtWjRItWpU0e9e/dW7dq1CzyHN+YtXbq0MjIyZLfbZbPZFBsb62x76NAhWa1W5ebmKj4+XjVr1sw33pEjR7Rx40Y9+uij+vvf/66TJ08WmO/ase7YsUMOh0NWq1UffPCB7Ha7atWqpZiYGElyXrcb2Ww2ORwO1a1bV7Gxsc7zEBUVJV9f3zxtC7r+11/nn378SdfqUteu7bXj9PT0VEZGhnbv3p3nmptMJnl6eiohIUGSFBkZqYYNG6pGjRo6duyY7Ha7Ll26pEOHDhV6/AAA12GFEQAAAAAAwAOgfPnyGjZsmN588025ubnJy8tLVatWVVxc3B2N16dPH7377rv68ccfVbp0aU2dOrXQN/K7deum0NBQVaxYUT179lRYWJh27NiRp42/v7/eeecdeXh46IUXXsizLz4+Xm+88YaysrIUFhaWb/zevXsrNDRUW7duVW5urkaPHp0v6+TcHVKSAAAgAElEQVTJkzVo0CDl5ORo6NCh8vDwUL9+/TRgwADZ7XZ1795dFotFzZs318SJEzVlypR8RZKyZcsqJSVFffv2lcViUY0aNfKsWiosr9lsVtu2bTV06FBVrVpVPj4+stvtstvtqlOnjiZOnKgzZ87ob3/7mypUqJBvvOrVq+vjjz/WN998I6vVqr59+xZ8USQFBgZq79696tevn+x2uzp27Cij0ajevXtr/Pjx+uGHH+Tn51fg6rBGjRqpV69e+vzzz9W3b18NHjxYJpNJDRs21OOPP57vnN54/S9evKhx48Zp9+7datvuGVX3qaz58+crICDAeW2Dg4PVr18/VapUSf369dNHH32k5s2bO8cdO3aspk6dKjc3N5UsWVITJkxQuXLl9MQTT6h3797y8vJS48aNZTbztiQA3G8MjqKsYb1LErL2yd1QStVK+N2rKXEXRaV9r/qlW6m0Kf8vPiiaHSlL9WSFl2VgcR/+ZJKuHFGW7ZK8SwW4OgoAALct9vIOlbc8rCpuPq6OAklp1mSdyPqPmpTt4OooKKKYjI16xL2BKlqquzoK7jOHMzariruP3uw9RnPnzlWlSpVuq//Fixf1+uuv33Tl0x+hR48ed5T3z8bmyNWeSysV6JH/0Xi3y263a926derYsaMMBoP69OmjqVOnqmrVqnchKQDcHTn2TO1PX6cW5UNcHcVlKOUDAAAAAADgvvPaa6+pdevWro6Bu8BoNCoxMVGvvPKK3N3d1bp1a4pFAHAfomAEAAAAAACAP8zy5cvvqN+//vWvu5ykaO40L25u8ODBGjx4sKtjAABugudiAQAAAAAAAAAAFHMUjAAAAAAAAAAAAIo5CkYAAAAAAAAAAADFHAUjAAAAAAAAAACAYo6CEQAAAAAAAAAAQDFHwQgAAAAAAAAAAKCYo2AEAAAAAAAAAACKpZ/bfKz/fntcmZcMro7icmZXBwAAAAAAV9uxebdKOY67OgYkZdnSdC73hJJK8Bf2B0Vi9iF5WH5TGVNFV0fBfeZM9mGVtySpjKmSq6PgDtgdNsVnHdWlUj+4OgoA/KF8UvfL0eVjHWw+UCU2PuTqOC5FwQgAAABAsRfwVHN5unm7OgYkpVnP6WRWKTUu29bVUVBEhzOMesS9vipYqrk6Cu4zRzLMquLurYqWGq6Ogjtgc+SqXNpFBZTn5zGAP7ef341X9ek9Ve/FpjqtDa6O41IUjID7WJYtW+ezL7g6BnBLybnnlG1Ll5vjjKujALdUwuSuyiWK978YApCf2WKWxWJxdQxIshjMMltNXI8HiNli4nsIBeLeeLAZHZLJzM9jAH9+rfYOkSTl2DN1Ot3FYVyMghFwn4tJ3aCH3OyujgHclE1WmeTQb5lJro4C3FS23aj65V9wdQwAAAAAAID7DgUj4AHwaEWeBQ4Ad8Ou86mujgAAAAAAAHBfMro6AAAAAAAAAAAAAFyLghEAAAAAAAAAAEAxR8EIAAAAAAAAAACgmKNgBAAAAAAAAAAAUMxRMAIAAAAAAAAAACjmKBgBD4iq1frLv9FwNW78lho0fFOvDfpYNptdly5lKiBgzG2P9/33e/X64E/uuP/1xo3/Ut99t6fQ/W+N+Fxff73zd81xp3buOqpff02VJLVu/Y6Sky/pxIlk1a33hqZO/da57XacOXNRu/fE5hnTFdavj9Tbf1982/2+/Xb33Q/jwnmuOXkyWYGBY2/a5m5nun68Oxl77Lgv9OWX24rc/vTp8+r0t2nyqvWa6jcYopd6zNSFC+n6978P6rkOU/K196k7WAkJv6lqtf5q6DtUvn7/99/ixf9723ldITX1snz9ht5R3+t/Nt3r+xEAAAAAAOBBQ8EIeIDs/nmqfvllpmIOzdb58+n68sttKl++lHbvnnrHY/7e/pIU9n5P/e1vLX7XGH8Eu92hZcu26tffrhaMtm6dIk/P8oqMjNezzzbTmDGdndtux/bth7Vnd2yeMf9IdrujwO0dOvxF0//Z57bH++CD1XctQ2HOnk3Rsi+23vY8f6S7nen68e7F8TocDnXuPE3/82xTnTzxsY4cnqtmTWur58uzFBTUSEeOJOrcuTRn+917YlX1kYqqU6eKJGnf3nAdjpnj/K9Pn6f/0Lz3g2s/m+7H+xEAAAAAAOB+Y3Z1AAC3z2Qy6qmWDRV7PEmpqZcV+ORYHY6ZoyZNRujFFwN15GiiEv97XosXD1Xt2p5asWKHFizcJJPJqLp1H9HcOf2cY13fv0WL0era9Qkdi03SoejTWr78LdWpU6XA/gaDwTnGWyM+V0CLegoJCdSw4YsUE/Nf5eZY1b9/W/Xq1UaStHHTL/py+TadOPGbwqf10nPPParp09dozZq9ysmx6rHH62rO7H76/vu9+uLLbfrXyr/nOebFi/9Xn376k3JzbRo6tKNeeaW1Dhw8qdGjl8lsNspsNmnBZ4Pl7m5RUNBE1a1XVdWrVdJ33+1WzKHTWrJkqLp2/UBffDFcYWGrlHrpsmbU9tQXX2zT+vXvqEqV8npz6EL9cvCkbDa75s7rLz/fGurVe46Sf7ukrKwcjR79N7Vp46/J762U0WhQrVqemjx5pbN/Qcde2Dm95sKFdLVuM0Ht2zfV6dPn5HBIXy1/Sz/+uF/LvtimC+fTNHXaKzoc818tWLBR7iXc5OtbXbNnvao1a/Zpw4/79dH81wq9xjce066dR3Xg4Em9GPLPPOfY4XDka3sm8UKeDBaLOd/5rly5nN5//xutXx8lg0Fq87S/poT20LDhi7R7d6xCQ/+lN954ToNe/0SZmVeUlXlF/5j6ih5/zKfAe/v8+XQFBU3UL7/MlCS91GOmBr3WXhcupOurFTtUpkwJJSZeUKunfDVhwos6cSJZr7wyS55VPOTj87BznFtlmjDhRY0ctVSHDp1WVuYV9e79tPr2DSr0e+5W40UfOu38umfPVnr11XkymU3KzbHq009fV4MG1bTvP3F6e8Ri5eZa9XiLepo1s68k6efdsVr2xVYlJPym6f/sreDgxwrMsHlztMqUKaFBg56VJBkM0siRL6hXrzYymYzq2vUJ/etfuzR48P9Ikr7+eqd69mxV6DHdKDHxgnr3mSuDwaDLGVn6cP5APdqsToHfewWdj/XrI7Vk6RZ5epbX0aNn1KJFXU0J7VHofAV9/785dIHatPZTly5P6OjRMxo8+BN9++1oORzSwNc+0rGjZ1SxUll9veJtbdx4UIs+36wqVTy0b+9x9e79tI4eO6OYQ6fVpcsTeuON55w/m1Z9u9t5fZ55vV2RzwkAAAAAAEBxQsEIeABlZ+dq/Q9ReuP/vzF8jclkVL16j+idd7pqyZL/1cxZa/XuxBDNmROh/8fencfXdO3/H3+dk0nEEGljCDEkhkiClhRNtVVN9FtV80VRNVdRqlWSqDEVUxFVQ5Vc1Ul7q8NFRzVTVAyXRI0JJTQRIch4ht8f+Tk3kUTCVaF5Px+PPHrO3mv4rLX2STkfa++tW6dhZ2dkwMCFfP/93gLbtbMz4uVVhTff7MS8eWv4/PPtDBkSXGD9du2a5au/du0ezp+/xC/rJ5OenkXjJqNtX35fu5bBv78NJSb2D3q9MI9nn23KuwvWEXdyCUajgfff/4m0tEyCg5sQGOiTp90LF64wd+6/2bNnNhkZ2fToOYdevR7n1REf8Pnnb+Dh4cbKlZuY/c43TJ3yAodiTvPFF2Pw8qrCoZjTTJ/ex5akcXMrx7hxndm56yivv96Bjz/OuR3YunXRXLmSzpYtb7N9x+98/PEWXhvVnrbBDzFw4NMkJaXyxJNvcTj2Xfq99BRlyjjQsWNzpkz54qZjL2hOQ0O75JnzI0fO8tOPE/HwcKP/gPdYu3YPLi5OxMScZv++uVy6dI0+fSLZv28uzs6OdO4yk59+2m9rIzn5SoFrZLFY841p7px+REz/Kl9CrqDxP9O2iS0GBwc7Hn98fL75njH9RYxGIxs3TsXR0Z7GjUczfNizvP7682Rnm5gw4R+MC/mI7v8IpFu3R4mPT6Rnz7m3vKvNzs7I77+f4cD+eVitVvwbvcaQIcHMmv01Q4c+Q58+T/L++z+xbethLBZrkTF9//1e0tOz+P67tzCZzDRr9iYdOjzCAw+Uz9d3cdrbueuo7fXWbYd5661uBAU14csvfyVy/lqWLH6ZEcM/4JNPRlO3blUGDFzI4d/PAnDlSjo/fD+BX3ceZfLkzwtNGP3++1maBXjnOWYwGKha1RWA3r2fYNTI5Qwb9n9YLFb+/e/fmLD7H8We4y+//JXn2jXl9dc7EBP7B2fPJBf42evZs1WB82FnZ+TI72f57NPXsVgs1Kr9MuFTX8iTXM6toM9/YY4dO8dXq8fSsGENuveYY/uMnD6VxJf/epOdu47SufNMTsW/T2pqOm3aTGT48Gdt9XOv1Y4Ll4o9JyIiIiIiIiIipYkSRiL3kVatwjAac+4k2aVLSzp2bM6lS9fylGnevB4ATR6qw8efbOHgwVPExScSHDwZgNTUdB4JqIuHR6UC+wgIyNn5UblyRQ78J77Q+gXZE32C1k/6AeDs7EjDhjX4/UjOl+JBTzcGwM/Xk4RzF7FarTz7bFOefnoS//hHIN27P0bZsk4Atv9ed+jQKfz8a+LoaI+jo73tS/59++Po0ycSgKwsE951qwFQpYprnl08xbEn+gSBjzYA4LFAHx4L9CE9PYuDh07R7R+zcXCwJzn5yk3rFzb2G+f0Rp6eD+Lh4QbAQ01qc/jwGQICvGnWzBsHBzsOHTpFkyZ1cHZ2BODxVg3Zty+Ohg1rABS6Rn8mXso3plsZ/48/7rPFUNh8G40GypcvQ4+ecyhTxpHEpMskX8w7T7t3HWPL5hgWLfoegCtX0wuN42YCAupiNBoAAz4+1Tl2/Dwxh/5g1Mj2OfPyhC8ffrixWDHt2n2MX375D23aTATAbLFw6nRSgQmj4rSXW3UPNyZM/Ixly38hKSkVN7dymExmEs6l2HZBRS0fbivf5il/ADxrPMCllKuFtmsymTGbLYWef/ihOqSmpnH69AXi4v6kSZPauLmVs51/pPlYcudu1q19izp1KtveBwU3pnPnmZz+4wKdO7WgbduH2LTpUL7PHlDofDRt5o3RaMBotMPFpQxpaVm4uOT9PF9X2Oe/INWru9mu90db1rd9Rvwb1QLgwQcqUL9eNRwd7XnwwfJcTk0rtC0RERERERERESmYEkYi95Ft2yIoV67MTctcf9aM2WzBYDBgMBho3rwe334Tkqfct9/uLrC+nd1/H21mtVJo/cLk3k2QUz/n9fVEV+4ySxa/TEzsH6xbG81jrUL5dceMPF9w/7cda74vyg0GA2XKOLBhw9Q8xzMysnFycihWrEX1sWzZejIysvnyX29y5Uo63nWH3bSNwsZ+45zeKPfzga6vG5BnHLm/6L++Lrn7LWiNJk1eddMEQ24FjT93DIXN938OniIqagM7dkynTBkHHnlkbL42DAZstzcryo2bUUwms+11/nn6b+w55y23EJOBIYODGT36+SJjKk57ub05diXd/xFIjx6PsXbtHj5cuckWc0Hs7e1sr60FXSD/n79/TduOuNx+/vkAwcFNAHjhhcf5/PNtxMUn8mKfJ/OU+233rJv+/vD3q8n+fXNZv/4A02d8xbZthwkMbJAv7pvNR+5rvajxFPT5z31dm8z/XfucRGGO67/Xbuwv7+fs1p65JSIiIiIiIiIiYCy6iIjcT7ZujQVgz2/H8fPzxN+/Jvv3x5GSkrMTaebMrzlx4nyx27uV+s0fqcemzYcAuHYtk99/P0NDn5xdAVu35cT1++9nqVH9AS5fTiMiYjV+vp6MHdsJH58anIz7k7S0TJKSUvO026hRbfbtO8m1a5mkp2fx5JNvYTZbqFe3Gpu35LT773//xrp10fliMhoNZGZmFznORwLq8vP6AwAc+E88L/adT9KFVOp65+wIWbVqmy0hkdOmqdhjL8rZs8mcPPknAL/tOYGfn2e+8R84EE9GRs44Nm+JISDXrckKW6OCxgQ5SZgbv1AvrOx1dnbGAuf7QlIqHtXdKFPGgf0H4jl+4hxZWSaMRqNtjpq3qM/aNXsAiItLZPr0rwBISLiYb60rVCjL5dQ0LBYrJpOZAwfibed27TpKVpaJrCwTsbF/UL+eBw18qvPbb8cB+PmnnPiLE1OL5vVY991erFYr2dlmRr0WhdlsITU1nbi4xDwxFae93K8vJF3Gyztnh9uXq38lK8uEvb0dNaq7sW9/HACDBi9i9/+PuyBHjyaQnp6V59iTT/phNluIiFiN2WzBYrESEbGa9xZ+byvTq9fjrFmzh21bD9OuXdNC2y/IZ59t5cjRs3Ts2JyIiN7s3HWswM/euYSUAuejMAXN6aVL1wr8/Lu6unDhQs5upT2/nbCVP3Mm2dbG7t+O5fuMFCX3+oiIiIiIiIiISMG0w0jkb+ZQzB8883/hXLuazqefvs4DD5Rn5owXadcuHCcnB+o38KB27cocOnS6WO0VVr8g7do15cef9hMUPIWszGzeDu9FxYplMZstODra84/u73DyxHlmzXoRV1cXki6k8thjYTg62lO3XjWaPuzFmjW/8fEnW/I8Y+fBB8szPqwbrVtPwGy2MHLkczg62rPk/aGMfHUZ9g722NkZWfnhyHwxtX7Sj5deepePP37tpuN87rlm/PjTflq0GAfAewsHU76cM717z+Onnw/Qo/tjPPSQFxMmfkZwcBP69InkwQf/e/uywsZeHF5eVYiYvpqTJ87zoHtF2rVrxoYN/8kz/tCQLjzzzBTs7e1o2sybp59ubNslVtgaeXlVyTcmgBYt6tOixTi2b5+Og4NdoeO/eMMt+Aqa70qVXJgWsZqngybj71+T1157ntGvRfHtt6EcPXqW4SM+IHzqCwwctJCngyaTmZHFjJl9AZgXuRbPGg8wcuRztj4cHOzo1u1R2j33NnXqVMbfv6YtUeftXZUePedwLiGFwYOCcXevwJtjOtKnTySffLqVRx7xxmKx8thjPkXGtPC9wfyy4SBPPJGTfHzxxdbY2RnZujWW5VG/8NXq/+6aKU57097uZXs9YkQ7hgxeTOUqrox+rT2vDHufNWt+Y+GiIQwftpTsbDPNW9TjkQBvvv56Z4HXRJ8+kXywbBhNGte2HbO3t+O7797i1ZHLqF1nKGXKONC6tT+f5Lq2PT0fxMHRnkcDG+TbaXfjLenatn2IyHkDbO99Gtbg1REf4OTkQHa2mWkRvQv87LVu7ces2d/km4+wsK4FjqWgOS3s8+9S1on+/d9jT/QJano+iMWSs/PNx6c6s9/5huPHz+Pq6pLvM1KU+vWq2dan9+TiP9dJRERERERERKQ0MVjv4n1bTqb/hpOhLNXL+N2tLuUO2pv6LQ1cnsDFruBn30jRtqWs5LFKfTAUc3NfujmDzec/oe3/f6h9UZo2HcN3371F1WKWv1OGj/iAp9s0okuXlne137+DS5euEfhYKLEx795y3X/9awdbtx3m3fkD/4LI/nrRe09y/Ng5evR4rMiy3367mx9+3MfiRS//pTFZLFbCxn/CjOl9/tJ+ijJ37r/p1euJu/5Z/ivcK3N63Y4Ll2hQsSPuZR4s6VBE5B5y9No2KjpUpYpjwc9plLsr1ZRIXPoempRvV9KhSDHFXF1PNScf3ByKt8NeSo/Yqxuo4lSXBxxqlnQochvM1mx2Xf6CQNfeJR2KiMhdkWVJY9+VtbSo2L2kQykx2mEkch/4I+1yscplWc0kpKeSnWYouvAd8q+Pt7H2u2heGhlU7Djlv1LT08i2WG557g4f/IM3xn7IlHd637fzfvpSCn6PexUr/guZaVw1Zf3lYz2fkELrDk1KfE4r1XIlu4KhxOO4E+6VORURERERERERkZtTwkjkHlfZ2Z/koh/BA8DHm/4FUOzyd0KbHn606fHyXe/3b6Ms/GvnN7c8d5V9/Pj3/v8D7o15T8lOIMuSRhWn4v/L7DrN/DBRvPibPeNHs2f++rE6uENV95Kf04eD/Eo8hjvlXpnT68o6FF1GRERERERERKQ0UsJI5B7mbFeGpm4tSjoMkSIlZB4m3XwZ77K6XkVERERERERERO5HxXuQioiIiIiIiIiIiIiIiPxtKWEkIiIiIiIiIiIiIiJSyilhJCIiIiIiIiIiIiIiUsopYSQiIiIiIiIiIiIiIlLKKWEkIiIiIiIiIiIiIiJSyilhJCIiIiIiIiIiIiIiUsopYSQiIiIiIiIiIiIiIlLKKWEkIiIi962DBw8yaNAgBgwYQM+ePXnnnXewWCwAbNiw4ZbaKqz83r176du3L88//zxdunRh0aJFtj7atm1LVFSUrWxWVhZdu3YFICwsjHbt2tG1a1fbz8aNG29nmAUaNGgQFy9evKU6iYmJHDx48I7FUJgDBw6QnJzM1atX6du371/en4iIiIiIiIj875QwEhERkftWeHg4YWFhREVF8emnn3LhwgWio6O5cOEC69atK1YbFoul0PKJiYmMHz+eMWPGsGbNGj755BPi4uL48MMPAShfvjzr1q0rNHETGhrK6tWrbT9PPfXULY3vemKqIMuWLcPNze2W2tu3b98tJ4xuFkNh1q1bR3JyMuXKlWPlypW3XF9ERERERERE7j77kg5ARERE5HalpaWRmZkJgNFoZMaMGQCMGzeOgwcP8sEHH9CuXTsmT56MnZ0d2dnZTJgwgdq1a9O7d29atmzJtWvXSElJsZUfPHiwrf0vv/ySjh070rhxYwCcnZ1tbQFYrVb69evHkiVLCAsLu+X4Z82aBcDVq1c5ffo0Q4YMITAwME9sL7/8MuHh4WRmZpKdnc3o0aNp2LAhvXr1YsGCBTg4ODBt2jQyMjLIyMhg5MiR+Pn5ERsby5w5czCZTPj7+zNkyBDef/99jEYjHh4etG7d2hbHjWXHjBlDnz59bDGEhIQQGRnJiRMnyMjI4Pnnn6dDhw6cPXs239xevHiRDRs2cPz4cUJCQmxJs9jYWObNm4ejoyNOTk5MnDgRJycnBgwYQGBgIOfOnSM1NZX58+fb5ldERERERERE7h4ljEREROS+NXr0aEaMGIGvry+PPvoowcHBuLu706dPH0wmE4MHD2bfvn0MGjSIFi1asH79ej799FPCwsJwcHDA29ubdu3acfDgQVv53OLj42nfvn2eYy4uLrbXFouF9u3b869//YuTJ09So0aNW4rfzs6OrKwspk6dSkJCAqNHjyYwMDBPbHPnzqVly5Z0796do0ePEhERwYoVK2xtrFixguDgYIKCgkhISCAkJISVK1cyY8YMpk2bhqenJ1OmTCE5OZkOHTrg6OiYJ1kE5CsbFxeXJ4bt27eTmZnJggULMJvN9OrViyeffJLExMQC57Zhw4a8+uqrVKtWzdZHREQEU6ZMwdvbm08//ZSPPvqIl19+mbi4ON59913c3d15/fXXiYmJsSXoREREREREROTuUcJIRERE7ltPP/00gYGBREdHs337dnr16sWcOXMwGAy2MpUrV2bRokV88803pKSkUKFCBdu5ohITZrMZs9l80zJGo5FXX32VyMhI3nnnnTznpk+fTmRkpO391KlT8fPzy1PG398fAA8PD5KTk7FarXliO3z4MJ06dQKgfv36nDlzxlYG4NChQ0RHR/PFF18AObuuzGYzSUlJeHp6AjBp0iQAtmzZUuAYCyqbO4ZDhw6xa9cuhgwZAuQkys6dO3fTub2xj8TERLy9vQF4+OGHWbhwIZCzPu7u7gBUqlSJ1NTUAtsQERERERERkb+WEkYiIiJy30pNTaVChQq0atWKVq1a4eXlxbp16/LsCoqMjCQ4OJi2bduyZcsW1q5dazvn6Oh40/a9vb3Zv39/nmcPpaamcubMGXx9fW3HmjdvzieffMLu3bvz1A8NDeXxxx+/aR+5kz+5nxd0s9hyJ8Su9+Pj42N7X5xEV26Flb0eg8FgoGvXrvTu3TvP+TfffLPQub1ZzFar1fbeaMz7SM3c8yEiIiIiIiIid4+x6CIiIiIi957ExER69uzJn3/+CeQkW06cOEH16tUxGo1kZ2cDkJKSYrtV3C+//ILJZMrXVu7yuXXq1InvvvuOHTt2ADm7d6ZMmcK+ffvylR01ahSLFy++5efv7N27F4C4uDiqVq2aLxnk5+dHdHQ0kPOsoVq1auU57+/vb9s5lJCQQFRUFHZ2dlSpUoUjR44AOTubYmJiChxnYWVv7GPbtm1YrVZMJhOzZ8/GYrEUOrcGg4GsrKw8fVSuXJmTJ08CEB0dTcOGDW9pnkRERERERETkr6UdRiIiInJfqly5Mm+++SZvvPEGFosFq9XKQw89xAsvvEBGRgbx8fHMmDGDHj16EB4ejpubG7179yYiIiLfrdlq1qxpKx8SEmI77uHhwdy5c5k3bx5vv/02zs7OdOzYMd9OGwAvLy/8/f3Zs2fPLY9l1KhRJCUlMWrUqHznXnrpJcLDw9m8eTPZ2dmMGzcuz/l+/foxZcoUhg4dSlZWFiNHjgRydh1Nnz4dk8mEv78/vr6+ZGZm8tZbb+Hq6krHjh1tbRRUNrfAwEB2797NwIEDsVgsPPfccxiNxkLnNiAggIkTJxIWFpanjxkzZuDo6IizszMTJky45XkSERERERERkb+OwXoX7/txMv03nAxlqV7Gr+jCcs/Zm/otDVyewMWuUkmHct/alrKSxyr1waDNffI3k5B5mHTzZbzLtizpUETuK3PmzKFRo0a0bdv2luv+4x//YNmyZVSsWPEviEykdDl6bRsVHapSxbFuSYciQKopkbj0PTQp366kQ5Fiirm6nmpOPrg51CjpUOQeE3t1A1Wc6vKAQ82SDkVug9maza7LXxDomv8fS4mI/B1lWdLYd2UtLSp2L+lQSoy+tRYRERG5z0RERFCxYkUqVKhQ0qGIiIiIiIiIyN+Ebg7PkD0AACAASURBVEknIiIiUkLeeOON26qX+1ZvIiIiIiIiIiJ3gnYYiYiIiIiIiIiIiIiIlHJKGImIiIiIiIiIiIiIiJRyShiJiIiIiIiIiIiIiIiUckoYiYiIiIiIiIiIiIiIlHJKGImIiIiIiIiIiIiIiJRyShiJiIiIiIiIiIiIiIiUcvYlHYCIiPw9ZGdlk2WfVdJhiIiIFIvj/v3smXmEaq//HyYfIziUdEQiIiIiIiIlSwkjERG5I44eiiP+6rWSDkNERKRYHjxxAo+v3iNxx2YchzSD8cElHZKIiIiIiEiJUsJIRETuCL+m9fEu27KkwxARESmeffs48LoPNUc/zYVK20o6GhERERERkRKnhJGIiIiIiJQ+Dz9Mk4dzXl7QBlkRERERERGMJR2AiIiIiIiIiIiIiIiIlCwljEREREREREREREREREo5JYxERERERERERERERERKOSWMRERERERERERERERESjkljEREREREREREREREREo5JYxERERERERERERERERKOfuSDkBERERERERE7k179+4lMjKSlJQUHBwcCAoKYujQoRiNRtq2bUvPnj1p0b0mAFlZWbzwwgusXr2asLAw9u/fj7Ozs62tESNG8NRTT92RuDZs2ECbNm3uSFsiIiIikkMJIxERERERERHJJzExkfHjxzNz5kwaN25Meno6EydO5MMPP6R///6UL1+edevW4RP8ItWq5q8fGhrK448/fkdjslgsXLx4kXXr1ilhJCIiInKHKWEkIiIiIiIich+xWq3Mnj2bkydPkp2dTefOnWnfvj2zZs0C4OrVq5w+fZohQ4YQGBjI0aNHmT9/PnZ2dtjb2zNhwgTKlCnDgAEDCAwM5Ny5c6SmptrKXPfll1/SsWNHGjduDICzszOTJ0+2lbFarfTr14+v//kjoaEBtzyOlJQUpk6dypUrV3B2dmbatGkATJs2jYyMDDIyMhg5ciR+fn707t2bli1bcu3aNVJSUjh48CAffPABgwcPztPmmjVr+Prrr3FycqJOnTq8+eabbNy4kR9++IGyZcuSmJjIww8/zODBg9m9ezfvv/8+RqORMmXKEBERQfny5W8a35UrV2xzkJ2dzYQJE6hduzYfffQRmzdvJjs7Gz8/P8aOHUtqamqBYxERERG5VylhJCIiIiIiInIf2bp1K8nJySxZsoTMzEy6d+/OE088gZ2dHVlZWUydOpWEhARGjx5NYGAgM2bMYObMmbi7u7N27VpWrlzJK6+8QlxcHO+++y7u7u68/vrrxMTE2JJDAPHx8bRv3z5P3y4uLrbXFouF9u3bs3LVck6dPI1fncq3NI4VK1bw1FNP0aFDB1atWsX27ds5duwYwcHBBAUFkZCQQEhICCtXrsTBwQFvb2/atWvHwYMHMZlM+ZJFKSkpREVFsWrVKpycnHjjjTf49ddfMRqNxMfHs2rVKgC6detG165dWbVqFWPGjKFhw4Zs27aN5OTkPAmjguKrWrUqgwYNokWLFqxfv55PP/2UsLAwPvvsM9auXYvRaGT16tVkZGSwYsWKAsciIiIicq9SwkhERERERETkPhIbG0uzZs0AcHJywsvLi/j4eAD8/f0B8PDwIDk5GZPJxJEjRxg/fjwAJpOJGjVqAFC5cmXc3d0BqFSpEqmpqXn6MZvNmM3mm8ZiNBrpMfRZlr63gvlz8u4ymj59OpGRkbb3U6dOzbPD5vDhw3Tu3BmAnj17AvD1118THR3NF198AUBaWpqtfO5kVkGOHz9O/fr1cXJyAuDhhx/myJEj1KlTB19fX4xGIwB16tTh9OnTBAUFMWHCBJ555hmCg4OpXbt2nvYKiu/s2bMsWrSIb775hpSUFCpUqABAq1atGDp0KEFBQbRt25YyZcpw6NChQsciIiIici9SwkhERERERETkPmMwGGyvrVar7b3VarUdt1gsGAwGnJycWLp0aZ76WVlZtgRK7nZy8/b2Zv/+/Tz11FO2Y6mpqZw5cwZfX1/bMd+mddn45T52796dp35RzzCyWq1YLJZ8x0NDQ/Hx8cl33NHRMd+xMWPGcPz4cZo2bcqzzz5b6Lzk7uf6vLRr147mzZuzfft2xo4dy7hx42yJuMLii4yMJDg4mLZt27JlyxbWrl0LQFhYGCdPnmTr1q3079+fDz/88KZjEREREbkXGYsuIiIiIiIiIiL3Cj8/P6KjowFIT08nLi6OOnXqALB3714A4uLiqFq1KnZ2dnh6etqOb968ma1btxarn06dOvHdd9+xY8cOIGeHzJQpU9i3b1++soNH9GPx4sV5noFUFF9fX3bu3AnAV199xeeff46/vz9btmwBICEhgaioqHz1jEYj2dnZALzzzjt88803TJw4kXr16nH06FGysrJsc3E9sXXo0CGys7PJzs7mxIkT1KxZk2XLluHs7EzHjh3p2LEjsbGxRcaXkpJi26H1yy+/YDKZuHLlClFRUXh5efHSSy9Rp04dzpw5U6yxiIiIiNxLtMNIRERERERE5D7SqlUrfv31V1555RWysrIYPnw45cqVs50fNWoUSUlJjBo1CoDx48cza9Ys7O3tMRqNhIeHF6sfDw8P5s6dy7x583j77bdtyZXevXvnK1urjif+/v7s2bOn2OPo168fkyZN4scff8TFxYUZM2YAMGXKFIYOHUpWVhYjR47MV69mzZrEx8czY8YMQkJCbMddXV3p378/w4YNw87OjoYNG9K8eXM2bdpEjRo1CAkJISkpiS5dulCpUiU8PDx45ZVXcHZ2xt7ePt+8FBSfm5sb4eHhuLm50bt3byIiIti3bx8pKSn0798fBwcHPD098fHxoUaNGkWORUREROReYrDeuOf8L3Qy/TecDGWpXsav6MJyz9mb+i0NXJ7Axa5SSYdy39qWspLHKvXBoM198jeTkHmYdPNlvMu2LOlQREREbtnRa9uo6FCVKo51SzoUAVJNicSl76FJ+XYlHcp9Z86cOTRq1Ii2bdve1X5jrq6nmpMPbg417mq/xbVp0yZ27NhBWFhYSYdS6sRe3UAVp7o84FCzpEOR22C2ZrPr8hcEuuZPEouI/B1lWdLYd2UtLSp2L+lQSoy+tRYRERERERERERERESnldEs6ERERERERkb+BN954o6RDuCe1bt2a1q1bl3QYIiIiIvc87TASEREREREREREREREp5ZQwEhERERERERERERERKeWUMBIRERERERERERERESnllDASEREREREREREREREp5ZQwEhERERERERERERERKeWUMBIRERERERERERERESnllDASERERERERERERAPb3XMm53ZfIzijpSERE5G6zL+kAREREREREStqubdG42ieUdBgCpJkv82fWcS47lyvpUKSYTmcc5pTDFcrZnSzpUOQe80dGLK4OKZS3iy/pUOQWuJ06jKlVJL898Rp2X9qVdDgiInIXKWEkIiIiIiKlXkP/+rg71inpMAS4YrpA+YxM/Mo1LulQpJgcr6VQxbEelRw8SjoUucc4XbuMu2Md3BxqlHQocgti7WKw7/c6Dw5pRwrfl3Q4IiJyFylhJCIiIiIipV4F1/K4OrqWdBgCGE1ZlEsvi2t5rcf9ory9CxWdKuDqoDWTvHRt3J98//UKFSqD1ZjNrsslHY2IiNxNShiJiIiIiIiIiIgIAK7Vcv5rtpZsHCIicvcZSzoAERERERERERERERERKVlKGImIiIiIiIiIiIiIiJRyShiJiIiIiIiIiIiIiIiUckoYiYiIiIiIiIiIiIiIlHJKGImIiIiIiIiIiIiIiJRyShiJiIiIiIiIiIiIiIiUckoYiYiIiMh9JTIyktWrV9+RtubMmcNPP/10W3W//PJLOnfuTOfOnenZsyc//vgjAPHx8QQEBHDgwAFb2R07dhAREQFAWFgY7dq1o2vXrrafjRs3/u+DARITEzl48CAA7733Hhs2bMBqtTJw4EDeeOMN27Fbdb3O7da/HVevXqVv374AHDhwgOTk5L+8zzVr1rBgwYK/vJ9BgwZx8eLF/6mN21mH3NeHiIiIiIjIjexLOgARERERkfvNpk2b+Oqrr1i6dCnu7u6cP3+eYcOGUa1aNSpUqEDt2rWZP38+y5cvx2Aw5KsfGhrK448/fkdjslgs7Nu3j+TkZBo1asSIESMASElJ4cqVKyxfvvy22r1w4QLr1q2jTZs2tjbvhnLlyrFy5UoA1q1bR7du3XjggQfuWv8FsVgsGI3/+7+5W7Zs2f9UP/ea3Irc14eIiIiIiMiNlDASERERkftSeno6AwYMIDAwkHPnzpGamsr8+fPp27cvERER1KpVi7S0NLp168a///1v5s6dy8mTJ8nOzqZz5860b9/e1pbVaiUkJIQnnniC5557jsjISE6cOEFGRgbPP/88HTp0yNP3Rx99xOjRo3F3dwegatWqLFu2DFdXV06fPk3NmjUpX748P//8M23btr3lscXGxjJnzhxMJhP+/v6MGTOGK1euMG3aNDIyMsjIyGDkyJH4+fnRu3dvWrZsSUpKCvv378doNOLh4UF0dDSNGjVi69atnD9/nkmTJlGhQgUaNWpEcHAws2bN4ujRo1gsFsaNG4ePjw/Lly9n27ZtGAwGAgICGDZsGLNnz+bgwYN88MEHpKam2urPnj0733zOnz8fk8lEdnY2sbGxDBo0iCeeeCLf3G3evJns7Gz8/PwYO3Ys3bt3Z+nSpbi6urJ69WqSk5N54YUX6NevH+PHj2fDhg0cP36c8PBwrl27xvz587Gzs8Pe3p4JEyZQqVIlW/tZWVlMnDiRixcvkpGRQb9+/WjTpk2hsW3fvp25C2bjWdMT17IP5ktKbdmyhXXr1nHp0iVGjRrF5MmT88Xq6+vL2rVrcXNzIz4+Hn9/f4YNG1Zon7169WLBggV8/PHHhcb03nvv4e7ujo+PDyaTiZEjR9piyr0mgwcPLvB63b17N++//z5Go5EyZcoQGhpqe+/h4UHr1q1v+boUEREREZG/NyWMREREROS+ZGdnR1xcHO+++y7u7u68/vrrxMTEEBQUxObNm+nbty87duygVatW7Nixg+TkZJYsWUJmZibdu3fPk8j44IMPqF27Ns899xzbt28nMzOTBQsWYDab6dWrF08++SQVK1a0lY+Pj8fX1zdPPG5ubrbXFouF4cOHM3z48Nv6Yn7GjBlMmzYNT09PpkyZQlxcHGvXriU4OJigoCASEhIICQlh5cqVODg44O3tTbt27VixYgWOjo60bt2a6OhoAF577TVOnDjBlClTmDNnDgBbt27l2rVrLF++nAMHDvDdd99Rv359DAYDS5cuxcHBge7du9O9e3f69OmDyWRi8ODBeeoXNJ9GoxGz2UxISAi///47CxYsyJcw+uyzz1i7di1Go5HVq1eTkZFx07lo2rQpDRs25NVXX6V69eoMGDCAmTNn4u7uztq1a1m5ciWjRo2ylb948SItW7akU6dOpKSkMHDgQNq0aVNobJGRkbwxcyDeNXyZPzkqX//29vacOHGCVatWYW9f8F+fjEYj8fHxREREYLVaadeuHa+88kqR81HY+Xnz5vHuu+9SrVo1Xn755Xw7gnKvSWHX66pVqxgzZgwNGzZk27ZtZGVl0aFDB9v1ISIiIiIiciMljERERETkvlW5cmXbLp9KlSqRmppKUFAQU6dOpW/fvmzcuJFOnToRHR1Ns2bNAHBycsLLy4v4+Hgg51kw586dY8WKFQAcOnSIXbt2MWTIECAn+XPu3Lk8CSOz2YzZbC4ytqeeeopVq1ZRt27dPOemT59OZGSk7f3UqVPx8/OztZ2UlISnpycAkyZNssUVHR3NF198AUBaWpqtfuPGjYs/acDhw4dp0qQJAE2aNLG9dnFxISQkBCcnJ1JSUrh8+XKB9WNjYwudz+uJNDc3N65cuZKvbqtWrRg6dChBQUG0bduWMmXKFDtus9nMkSNHGD9+PAAmk4kaNWrkKVOpUiWOHz/O2LFjsbe3zzOGG2MzmUykpqbyYJWcZN/DDz/M+fPn8/Xr6+tbaLLouoYNG9puV+fs7GxLhBU1HwXFlJaWhoeHB5AzX4WtAxR+vQYFBTFhwgSeeeYZgoODqV279k3jFxERERERUcJIRERERO5bNz5Pxmq14unpSXp6OklJSRw+fJjw8HCio6PzPEvIarXa3qelpWGxWDh48CCNGzfGYDDQtWtXevfuXWi/3t7e7N+/P89ukRMnTlChQoU85fr160efPn0YPHhwnuNFPcOosGRUaGgoPj4++Y47OjoW2lZBrFZrvj6OHTvGt99+a9ul1KdPn5u2Udh85l4Tq9War15YWBgnT55k69at9O/fnw8//DBPWzdLxBkMBpycnFi6dGmhZb7++muysrKYNWsWaWlpPP/887ZzRcVW0DEABweHPDEUFGtB12Jx+rzx/I1linpmUmHXq4+PD82bN2f79u2MHTuWcePG3bQdERERERGR//2JrSIiIiIi95g2bdqwePFiWrRogdFoxM/Pz3aLtvT0dOLi4qhTpw4A7du3Z+LEibz99ttkZmbi7+/Ptm3bsFqtmEwmZs+ejcViydP+Cy+8QGRkJH/88QcAZ8+eZdy4cSQlJeUpV7ZsWfr06cNHH31U7Njt7OyoUqUKR44cAXJ2H8XExODv78+WLVsASEhIICoq/+3TjEYj2dnZRfbh6+vLrl27ADh69CgTJkwgJSUFd3d3HB0dOXr0KH/88QfZ2dkFtnmz+byZK1euEBUVhZeXFy+99BJ16tThzJkzlC9fnkuXLgEQExOTr57BYCArKwuj0Yinpyd79+4FYPPmzWzdujVP2ZSUFNuuox9++KHQJBDk3G7OxcWFpPMXAdi5c2eRYygq1v+Vg4MDDg4OJCYmArBjx458ZXKvSWHX67Jly3B2dqZjx4507NiR2NjYYl8fIiIiIiJSOmmHkYiIiIj87QQFBdGtWzeWLFkC5NzW69dff+WVV14hKyuL4cOHU65cOVv5evXqERwczIIFCxgzZgy7d+9m4MCBWCwWnnvuuXy7PIKCgkhPT+e1114jOzubChUqMHr0aHx9fW23ZruuU6dOrFq16pbiDw0NZfr06ZhMJvz9/fH19bU9z2jo0KFkZWUxcuTIfPX8/f156623cHV1vWn7jz/+ODt37qRv374AhISEULduXaKiohg6dCje3t707t2bd955h3nz5hEfH8+MGTNsO22Kms/ClC9fnpSUFPr374+DgwOenp74+PjQvXt3Jk2aRIMGDXB2ds6XoAsICLAl9caPH8+sWbOwt7fHaDQSHh6ep+yzzz5LWFgYO3fupG3btjRo0IBFixYVGtOrr77K7JA5VKtajZoeXjdNMAFFxnonDB8+nBEjRlCjRg3q1KmDnZ1dnvM1a9a0rUlISEiB16uHhwevvPIKzs7O2NvbEx4eTnx8vO366Nix4x2PW0RERERE7m8Ga1F/I7qDTqb/hpOhLNXL+N2tLuUO2pv6LQ1cnsDFrlJJh3Lf2paykscq9cGgzX3yN5OQeZh082W8y7Ys6VBERERu2dFr26joUJUqjnWLLnwXbNmyBR8fHypXrszcuXOpV69enlvr/d2lmhKJS99Dk/LtSjoUKaaYq+up5uSDm0ONogtLqRJ7dQNVnOrygEPNkg5FboPZms2uy18Q6Fr4bXpFRP5Osixp7LuylhYVu5d0KCVGO4xERERERETuISaTiddeew0XFxfc3NwYMWJESYckIiIiIiKlgBJGIiIiIiIi95A2bdrQpk2bkg5DRERERERKGd0XS0REREREREREREREpJRTwkhERERERERERERERKSUU8JIRERERERERERERESklFPCSEREREREREREREREpJRTwkhERERERERERERERKSUU8JIRERERERERETujIMHSzoCERERuU32JR2AiIj8PcQdO4OpzJGSDkNEROSWnUo/Qzn7DC45mEs6FAGumi6SkHmOMi76c8X94lRaAtccHalof62kQ5F7gNuBA1x+ejyXgrqR8WZ9qviXdEQiIiJSXNphJCIid4ShpAMQERG5TQYM+v/YPcRgMOgPFveZnCXTokkuBiMYwVrScYiIiMgt0Q4jERG5I2rXq4F32QYlHYaIiMgtM1xLoqJDVao41i3pUARINSVil36RBuX154r7henqH1RzqoObQ42SDkXuBdnZpP/ch2b+cDhtQ0lHIyIiIrdACSMREREREREREbkz/P2pWdIxiIiIyG3RLelERERERERERERERERKOSWMRERERERERERERERESjkljEREREREREREREREREo5JYxERERERERERERERERKOSWMRERERERERERERERESjkljEREREREREREREREREo5JYxERERERERERETktoSFhTFgwIA8x44ePUpAQAAHDx78S/vetGkTERERd6y9QYMGcfHixTvW3u2YPHkyO3bsKNEYbsfevXvp27cvzz//PF26dGHRokVYLBYA2rZtS1RUlK1sVlYWXbt2BXKun3bt2tG1a1fbz8aNG+9YXLezpomJibZr98CBAyQnJxer3p2+HgszZ84cfvrpp3zHe/XqRXJyMu+99x4bNmwosG5WVhadOnW6rX7XrFnDggUL8h0vrK//VVFzf7fmu7RRwkhERERERERERERuW0pKCufPn7e9X79+PR4eHiUYUY7rCYviWrZsGW5ubn9RNPeGW52T4khMTGT8+PGMGTOGNWvW8MknnxAXF8eHH34IQPny5Vm3bl2hiZvQ0FBWr15t+3nqqaduqf+bjel21nTfvn22hNG6deuKnTC6V4wYMYI2bdrctf6ur/Oddj/O/d+BfUkHICIiIiIiIiIiIvev5s2b8/PPP/Piiy8CsGvXLvz9/W3nly9fzrZt2zAYDAQEBDBs2DDmz5+PyWQiOzub2NhYBg0axBNPPEH37t1ZunQprq6urF69muTkZIYMGcKPP/7IN998g9FopGbNmowdO7bAWK5du8aQIUOoVasWAQEB+Pv7M3/+fOzs7LC3t2fChAn885//pHbt2nTp0gWAAQMGEBISwuTJk1mwYAEODg5MmzaNjIwMMjIyGDlyJMeOHSM5OZmBAwfy7bff8vnnn/Ppp59y5coVXn75ZT799FNbDGfPnmXy5MnY2dmRnZ3NhAkTqF27Nn379iUoKIj4+HiOHz/O9OnTqV69OkuXLmXnzp14eHhw6dKlfGMqrL0ePXoQHBxMXFwcf/75J1OnTsXFxYVBgwbx6KOPcv78eaxWKxERESxYsID09HROnjzJ8uXLWbNmDV9//TVOTk7UqVOHN998kz59+hAREUGtWrVIS0ujW7durFmzhvXr1+ebe4PBYIvvyy+/pGPHjjRu3BgAZ2dnW7wAVquVfv36sWTJEsLCwm75+po1axYAV69e5fTp0wwZMoTAwEB69+5Ny5YtuXbtGi+//DLh4eFkZmaSnZ3N6NGjadiwIb169Sp0Tf38/IiNjWXOnDmYTCb8/f0ZMmQI77//PkajkfT0dDZs2MDx48cJDw/n8uXLzJs3D0dHR5ycnJg4cSKurq55Yk1KSuLNN9/k7NmztG7dmiFDhpCamlpg39ddvny5wDXbsmUL0dHRtmu9bdu2tp1Fu3bt4vvvv+fs2bOMGjWKxx57zNbenDlzaNSoEQ899BATJ07EYDCQlpZGaGgoXl5eGI1GZs6cSUxMDOXKlWPBggXY2dkRGRnJiRMnyMjI4Pnnn6dDhw5s376dhQsXUrNmTcqUKcMDDzyQZ7yff/45R48eZezYscycOZPZs2dz8uRJsrOz6dy5M+3bt89T/sb5HjNmDAkJCfmu74sXL+aZ+x9++CHf75DcCrqes7OzCQsLIzU1lUaNGrF582Y+/vhjypQpc8vXYGmiHUYiIiIiIiIiIiJy25588knbbamOHj1K7dq1bckCi8WCwWBg6dKlREVFsWnTJi5cuIDRaMRsNhMSEkJYWBiff/55oe1fvnyZzz77jIULF7Jw4UIyMjLYvn17gWUdHBw4ceIEw4cPp0uXLsyYMYPJkyfz7rvv0qZNG1auXElQUBCbN28G4OLFi6SmplK/fn1bGytWrCA4OJj58+czadIkZs6cSUBAAAcOHABydqC4urpy9epV/vOf/xAQEJAnhsTERAYNGsSSJUt44YUXbMkko9FI9erVmThxIs888ww//vgjSUlJ/PzzzyxbtoyJEydy6tSpfGMqrD07Oztq1qzJtGnT6NixIx9//DFGo5FTp07x4osvMmvWLFxcXNi6dSsODg6YzWaWL19OSkoKUVFRLF68mMWLF/Pnn3/y66+/5pmXHTt20KpVK65evVrk3MfHx+Pr65vnmIuLi+2LeYvFQvv27Tl8+DAnT54sdJ0LY2dnh9lsZurUqURERDB//nzbWnt7exMSEsI///lPWrZsycKFCxkzZgwzZ87M00ZBawrYro8PP/yQtLQ0kpOT6dChA126dGHgwIE0bNiQkJAQqlevTkREBCEhISxcuJCAgAA++uijfLGeOHGCt99+mxUrVrBmzRouXrxYaN/XFbZmN5Oens68efOYMWMG7777boFl1q9fT6tWrVi8eDGTJk0iJSUFyElA9uzZk5UrV2I0GomJiWH79u1kZmayYMEClixZwieffMLly5eJjIxkzpw5zJgxg6ysrHx99OjRg/LlyzNr1iy2bt1KcnIyS5YsYdGiRXzwwQekpqbmKX/jfMfFxRV4fTdt2tQ299WqVSvwd8h1hV3PGzdupFy5cixdupQWLVpw6tQpjEalQ4qiHUYiIiIiIiIiIiJy21xdXSlbtixnz55l/fr1BAUF2XZCGI1GXFxcCAkJwcnJiZSUFC5fvgxgSzK4ublx5cqVQts/duwYCQkJDB06FMjZReTr64u7u3uB5d3c3KhevTpms5kjR44wfvx4AEwmEzVq1KBR7uxq2QAAIABJREFUo0acPn2a9PR0Nm3aRFBQUJ76hw4dIjo6mi+++AKAtLQ0atSoQVJSElarlaSkJB577DEOHjzI/v37eeSRR/LUr1y5MosWLeKbb74hJSWFChUq2M5dH3OlSpU4duwYcXFx1KtXD6PRiKOjY56dJ8Vp7/pOrgYNGvD9998DUKVKFdvc1K9fn7i4OACaNGkCwPHjx6lfvz5OTk4APPzwwxw5coSgoCCmTp1K37592bhxI506dSp07nMzm82YzeYC1+I6o9HIq6++SmRkJO+8806ec9OnTycyMtL2furUqfnm4fo4PTw8SE5Oxmq1Ath2NR0+fNj2bJ769etz5swZWxkoeE3NZjNJSUl4enoCMGnSJAC2bNmSL36z2UxiYiLe3t62OVu4cGG+cg899JBtXuvVq8fp06cL7PtGBa1Z7dq185W7rkWLFgB4eXnZrsuCyrz++uucP3+ep556ikcffZSsrCwqV65MrVq1bP2mpqYSExPDrl27GDJkCJCT5Dtz5gypqalUq1bNNubct568UWxsLM2aNQPAyckJLy8v4uPjbWtU2HyfPXu20Osbbv47BAq/ntPT023XfPPmzXF2di40dvkvJYxERERERERERETkfxIcHMwvv/zCrl27GDx4sC1hdOzYMb799ltWrFiBo6Mjffr0sdXJ/a/9r3/hnftWZ9eTEAaDAX9/f+bOnZunz02bNhUYi6Ojo62ek5MTS5cuzVemVatW7Ny5k02bNjFq1Kh850NDQ/Hx8clzrF69evz222+4u7vTuHFjtm/fzsGDB+nXr1+ecpGRkQQHB9O2bVu2bNnC2rVrbeeu77zKPebcX/YX9Dyem7V3vW7uhE3uNq7v8IKcHTnX5Z5nq9WKwWDA09OT9PR0kpKSOHz4MOHh4ezbt6/Auc/N29ub/fv353n2UGpqKmfOnMmTXGrevDmffPIJu3fvzlM/NDSUxx9/vND2c4/zxvFdX+uC5B7j9X5yr2lxEl2FtXd9zorq8/r7gq6n3Apasxvbyh1r7nMFxQE567Jq1Sp27drFP//5T/bv38+LL76Y5xrMPZauXbvSu3dv23GTyZSvXFGKmqOC5vtm1zfc/HdIUf0WNjdSOO3BEhERERERERERkf9JmzZt+O6776hVq1aexERKSgru7u44Ojpy9OhR/vjjD7Kzswttp3z58rbn+MTExABQt25dfv/9d9vtrVasWMGZM2eKjMloNOLp6cnevXsB2Lx5s+1WX0FBQfzyyy8kJyfbdo1c5+/vb9tlkpCQQFRUFAABAQGsXLmSJk2a4OPjw6FDh4Cc26/llpKSQo0aNQD45Zdf8n3xnlutWrU4cuQIZrOZtLQ0/vOf/+Qrc7P2ro8tNjbWNo6kpCTOnj1rO+7l5ZWnvXr16nH06FHbLcb27t1rS+y0adOGxYsX06JFC4xGY7HmvlOnTnz33Xfs2LEDyNlBM2XKFPbt25dvLKNGjWLx4sX5khZFuT7OuLg4qlatmi8R4OfnR3R0tG3M13fQXFfQmtrZ2VGlShWOHDkC5OxsiomJwWg02q5Rg8FAVlYWdnZ2VK5c2XZLvejoaBo2bJgvzkOHDtmezXXixAlq1qxZ6PWUW0FrVq5cOdtn4ezZs3lu77Z//34g53aAVapUKTAx8sMPP3Dq1Clat27NiBEjOHjwYKHz6+/vz7Zt27BarZhMJmbPnm3b2ZOQkADAzp07C6xrNpuxWq151iA9PZ24uDjq1KljK1fYfBd2fV+f+6J+hxR2PdesWZPY2FjbsYyMjELHL/+lHUYiIiIiIiIiIiLyP6lQoQKVK1fOd3u3hx56iKioKIYOHYq3tze9e/fmnXfesd0q6kbdu3dn0qRJNGjQAGdnZywWCxUrVmTUqFG8+uqrODo6UqtWLTw8PDh+/HiRcY0fP55Zs2Zhb2+P0WgkPDwcyLmV2fjx4+nQoUO+Ov369WPKlCkMHTqUrKwsRo4cCeQkjMLDw3njjTdwcHAgIyODpk2b5qvfo0cPwsPDcXNzo3fv3kRERBR4mzPIuSXY008/zUsvvUS1atXw9/fPt5PjZu1df15Teno6ERERAFSvXp3ly5dz5swZKlWqRKtWrfIkC1xdXenfvz/Dhg3Dzs6Ohg0b0rx5cyAnkdatWzeWLFkCUOjc5+bh4cHcuXOZN28eb7/9Ns7OznTs2DHPbpXrvLy88Pf3Z8+ePQXOx82MGjWKpKSkAneEvfTSS4SHh7N582ays7MZN25cnvOFrWloaCjTp0/HZDLh7++Pr68vmZmZvPXWW7i6uhIQEMDEiRN5++23CQ0NZcaMGTg6OuLs7MyECRPy9GGxWPDy8mLixImcPXuWzp07U6lSpUL7zq2gNbNYLERFRTF+/HiqVq2Kp6cnFosFs9mMvb09Y8eO5cyZMwXOB0CdOnWYOXMmDg4OmEwmRowYUejcBgYGsnv3/2vvvqOjqPYAjn93N52E0CHUhF6khyK9CAjoUxCfBOlIL6EJCtJFegcFUYoISPWBdBAU6b33EjqBQHrf3Xl/hKwpu5vdsGED/D7neI5M9t65M3Pn1pk7x+jWrRt6vZ6WLVsalhEcOHAgXl5e5MuXz+hbRuXLl6djx44sWbKEw4cP07t3b+Li4ujbty/u7u7JfmvsfJvK34nnfuzYscTGxqYqQxLfNDKVn6Ojo9m+fTs9evSgfPny5M2bV75hZAGVYsm7ZDZyK/o4zio3CrikXotTZH6nwjZRKks9smiy2zspr60Dwb9QO3t7VPJyn3jDPIy9TLQulGJuNe2dFCGEEMJq1yIP4OmYj7xOxe2dFAGEaZ9wO/oEFT1a2DspwkIXI/bg5VyaHI4F7Z0UkclcithLXufi5HQsbO+kiHTQKfEcDV1LrWypB/1F5tCuXTvmzZtHzpw5DdvCw8Pp3LkzGzZssGPKbGvGjBmUL1+epk2bWh32008/5aeffsLT0zMDUmYbb+I1ywyCgoK4ePEi9evXJzg4mG7durFx40azYeL0UZwO30INz/++olRmPvKGkRBCCCGEEEIIIYQQQog3ynfffYenpydZs2a1d1KEHbi7u7Np0yaWLl2KoigMHjzY3kl6LciEkRBCCCGEEEIIIYQQQrxmVq1alWqbh4fHG/emypAhQ9IVbsSIETZOScZ4E69ZZuDi4sLMmTPtnYzXjqyLJYQQQgghhBBCCCGEEEII8ZaTCSMhhBBCCCGEEEIIIYQQQoi3nEwYCSGEEEIIIYQQQgghhBBCvOVkwkgIIYQQQgghhBBCCCGEEOItJxNGQgghhBBCCCGEEEIIIYQQbzmZMBJCCCGEEEIIIYQQQgghxNtJr7d3CjINB3snQAghhBBCCCGEEEIIkflEhEYTrATbOxlCCJGhrjRdQnbf/Gi7NIZS9k6NfcmEkRBCCCGEEEIIIYQQIhVtnJYLFy7YOxlCCJGhcuvu4rp8A3cCFJx/e7unTN7uoxdCCCGEEEIIIYQQQhiVLbcHtUrUtXcyhBAiQ50u+5DsyyfjW0LhfOwWeyfHrmTCSAghhBBCCCGEEEIIIYQQb6XKv34GQJw+CmLtnBg7U9s7AUIIIYQQQgghhBBCCCGEEMK+ZMJICCGEEEIIIYQQQgghhBDiLadSFEUx94ObUUe5FX3MJjuL1AUDkEWT3SbxVfJoSW6nojaJKzM7ELKCaF2IvZNBpC4YJ7Ubjipnu6ZDpVLzXo6+VoXRo+PP5z+A+eye4SJ1wbhpsqFCZb9EqFQ0yP4FjioX+6VBZIg70ae4FnXQLvu2dflurTxOxajo0cIu+xZCiLfd/diLXI7Ya+9kvJRIXTBq1LhqPO2dlHRLTxvZWmfCt/I07laG7gMgTh9NvBLzStoVr3PfIjOJ1AXjoHLEWe1u76RkGlk0OaiV7XOrwpyL2EFg7PUMSpF9ROqC0agccFF72DsptpPOPvWe5wtQFH0GJSpjKOiJ0oXarZ/3MjQqRxrl6GXvZAjxxjoeup4Q7SN7J8PmdIqWGH34a1nuWaKoa3WKudUw+5s0v2H0KO4aGrWjTRKUVZ3HJvEkuhtz9q2YMIrQBuGkcbV3Mmx+/dJLq8TyOPYa+ZxLWhzmQcwlAJvl5fTKDOdQQeFu9DmKuVW3d1KEjT2IvWy3PG7vvP0s/q5d9y+EEG+zBzEX7d7Geln2rsdsIV6JJTDuJnmdimXYPp7F330l19pV7YgrWTN8P/B69y0ykzfhHrK1cN1Tq8MExd154/LVm5g3FPTcizlPUddqFod5Hn8PrRKHk9r+YzvWel2vYawukjh99Gt5zoV4HQRrH+HwhtVZABocM8U4fEZ5FHctzQkjWZJOCCGEEEIIIYQQQgghhBDiLScTRkIIIYQQQgghhBBCCCGEEG85mTASQgghhBBCCCGEEEIIIYR4y9lkwujq6TsM/nBmsm37N59iSt/ltoheJPHH0v20Kj6UbrXG0/Xd8fRs8B0XjtywOPzjO0G0rzKKVbN20KPeRJ4/CeOn8f/jnz9OmwyzeNzv7Fl7LNX2C0dv8vxJWKrtl07cxr/FDPo3m8YXdb5lwddr0esy54cdzx68Tp/Gk2lXcSQdq41hycTN6HV64mLj6VB1dLrj3W/mfKZH4jVSFAX/5tMZ3X5hmtdNiDalhtOl5jg6Vx9Lx2pjWDFtW7J70VT+j46MpU2p4Wbj7FZrPB2rjWHmwJXodXoiw6Lp03iy1Wk8uPUsswavSnd4IYQQmdPmJfvp6Duajr6j+aLOt+zdcNxuabFFu+zx3Wf0azIVgH5NpvL0YfAr3X9m9cfS/SwctSHZtil9l7Nv4wmTYRLr/vQ6/udFpg/4NV1hgx6FcOnE7XTv2xKxMfHMG76GtuVH8HnlUQx4fxrnD1veX0svY322pO2rpP1AU/04U/0+YyJCo+lcfexLpzuRtfdVUqaOJ6n5X63l4rFbNt/3q7i/TZWnd68/pnGO3lw4etPw2+N/XjTcXxO6/Uzbd0bQufpYw38HtpyxSZqS3ku27Ksmns9X2ddNep9YkpdswVQ/DBL6W6tm7jD8Ni423nCvWXpNzcVvCXP5+n+L/6JjtTF8XnkUXWqOY+svBwx/m9DtZ/wqjKRbrfF0qTmOYa3n8uxxqMX7FUK8vpKOFXWpOQ7/5tO5e/2xxeF3rjrM4nG/J9t29/pjejealOp3abUjX7ZuTtrG8W8xg5Cn4S8V35P7zxn1+Q+0fWcEHX1HM6Hbz4Q9jzQbJq1jWDBindn29styyLCYX5KiV1CpVfZORqbUzO9dek34BIDrZ+8yttOPrDzzreHv5s7d1TN3qd64HO0Gvc9fv58E4IvRH6crHbt/O8KHXeuTI0/yD9LOGLCCUUu6413aC0WvMKHbT5w9eJ3K9Uqlaz8ZJehRCBO7/8yYZT0oV70oMVGxTOq1jN/m7qJNn8bpilPRKzx/GsaeNUep92Flm6RT0SuGaxQSFEF4SBRztg+1KrzcS2+v7//8CtcszkSERjO173JWzthOh2Etzeb/Vj0aWhSnXqdnXJfF7Fl7jKZ+Nfn+z6/Snc4sWV1fKrwQQojM4+DWs2xd/g+ztgwhZz5Pntx/ztBWc8hbKCflqhd9pWl5Fhhqtl2W0e2ktPYvXh1Fr3Du0HWCn4RT1tcnw/bz/Yh16HV6fj05HgcnBy4cvcn4zouZvW0I+X1yZ9h+jUnavkraD5w1aKXRftzrSNErJvulSV05GWDoQ9ty32vm7MrQ+9tceeqR3Y3CJfKxaPRG5u4YikqVuiwbOMOPms3K2zRNKe+ll+mrJpW0vEzvGEV6JL1PLMlLL8tcP6zdoPdx93Rl129HaN6hFtlzp05HWtc0rfjNSawTTeXrfRtPsHvNUWZvHUKOPFkJehTCyLYLcHF1ovGn1QHwn9bWkL713+/h5283MWx+R2tOkRDiNZU4VgQJ5cW8YWuY9rv/K02Drdvec7YNeanwiqIwqv1CWnasw/hfe4ECa+btZmL3n5myYYDJcBndvkjLK5kwWjt/Nwe3nUMbp6V0VW/6T/mM8OBIZg5aRWx0HDHRcfQY24rCJfIx6MOZFCyWl8p1S/JB57qvInmvtRIVCxMeEoU2TkvfplPxbViGqPAY/Kf7sXDUBgIuPyQmOo5m7d6l1vsVWDljOxGhUXh55zLEsWDEOsr6+lCnZSUmfPET4cFRlK3mw6Ft51j419cAXDp+i91rjvAwIIje37YhS1ZX/tlyhtuXH/L1wi7J4ouKiCUuJh4AlVrF6KXdgYSbZN6wNdy8cB+9Ts+AaW0pUbEwv07fztFd50GlolLdknT75iOO7LrArtWHyZbbg3vXAyld1Ztu33xk03O3ecl+WnSobRi4cHFzZviCTmgc1Ia0z/3yN66cCiBLVlcmr+uPXqdnUq+lBD8NJzY6Dr+Bzaj7YWV+GLme6MhY7lx9RI68nlw8fosVU7fSYVhLw/5+GLmeQiXz8UGnOgAMeH8aA6b5AfDjmI1oHNRoHDQMndsBJ2eHZPfCnWuPKevrw+Gd53n6IJgpfZbjns2Nsr4+NGztm+paN/+8VrI0pbfRLt4c7p6uDJ3bgY7VxtB+aAuz+V+vVyyKU61RU/7d4ty7GUhEaDT9mkxh2bGxfFF7AvU/rsrda4958iCYr3/oRL4iudi74TjbVhxErVZTsFge+k/9zBBX0vB9Gk+m/kdVuHc9kFuXHjDq5y/w8jYe3ljHWAghhH2tnb+bXhPakDOfJwB5CuZgzrYhZMvpgaIozP9qLQFXHqKN09GyYx2a+tVk0eiNaLU6tHFarp6+Q/uhLajVvIJVdULos0im9f+FiNBoXN2cGPlTN+YPX2uyXZa0nWQsvsC7z5jYYynZ83hQwCdPsmPcuvwAZw9eJzw4kgkre+Plnctom9bU/kOCIlKlVafVM33ACuJi4omP09L72zaUrFSYPo0nU6dlJQKuPiLw3nOafFaDq6cCCLj8kEnr+uPu6fpqLmw6mKv7Y6Ji6dd0Gr4Ny3Dr4gOKlMpHlqyu3Ln6GEcnDSN+7Gr0PAGEBUcwpuMi7l0PpHbLinT75iMeBQQxpe9yNA5qtHE6hsxtT+ES+ejZ4Dt8G5YhNCiC80duolaryFc4J7VbVrT58UaGRXNg6xlWnZ2Ig1NCV/udGsX4sEtdtiw/QNsBTfFvMZ1qjcvy5H5wwiDCT91wcHIw2p43dV8Y619D6j5bhVol6NdkCnO2DzX0AxUUk/04Y3HUal6BG+fvp+qvODhqDGGszaNXT9/h+xHr0MbrKOPrQ99JnwKW31eHtp9j95qjhD6PoFFrX8PxDFvQiV+mbuXZ4xAiw2Jo3aMhTf1qEvI0HI/sbjg4atix8jBblv2DVqujdc+GNG1bM937LlWpCDcu3Gdcpx8Zs7yHzfMTmC9P790MpGDxPLh7uvHX7ydp2NrX6viNXYuIkKhUYzWlq3ibvJfOHLxmsq/aoFVVi8cAkpaXYSFRhvDW1BmJdFo9U/ouT5UXutUaz8w/BuOZ050/lu7n+ZMwPunVmH5NpjBo1ufJ7o3LJ29nSN8jrXEIRQG/gc1YNmkLg2a2s3n8xsrlhd9sMNSJDVpVNZmv1y3Yw4BpbQ0Tarm8stF30n9ZNHqjYcIoqUp1SrF/c8JT8qbKrUTG8uLR3Rf5ddo2nFwccPNwZdSSL3Bw0Bi9tsbKKdfs0lcUwl4q1y3FojEbAYzOAZSu4s3R3RdY8u0mChTNg7Obk9WT9Ud2XUhVRphre5tqZ6fsa3hkz2II16PeRCav78+6+XuM1jvGyp5sudwN4U/vv4prFmf+07VewgYVfDagCU39apo8hm2/HDCUwyN+7Gp0HDqRqb7Vo4AgJnZfgqu7M9XfK8e+jSesekj7lXzDaOPCfczeMpgFe4bjXdqL2Og4Vs/eSYNWVfluTV+Gze/I3C9/w8FJQ8Dlh3wx6iOZLLLQqb+vkK9wThycHHB0dMC7dH78p/txdPcF4mLimby+PzM2DWLD93+iUqnwG9iM2i0r8Wnf91LF9c+W02TJ6sqsLYOp2qAM924EGp64jIqIYcqGAXy9sDP/W/wXFWuXoGTFwgyY5peqk9H7208Y3mYuX7WZx4Yf9hpeQT6y8zxRETHM2T6UnhM+Yffaoyh6BbVaxawtg5m380sObTvLs8BQNBoVd68H0n/yZ0xe158dvx5CUSwbxLbUvWuPKVmpSLJtbh4uOLs6AQnLNrTq2ZDv//wKtVrFlVMBBD8Nw7dRWWZtGcx3a/rx0/hNADg4adDr9MzZPpRP+71HuWpFkxVMAPU/rsKhbWcBCH4aRnhwFMXLF2Tul6sZ/n0nJq3tR70PK7Nm7i6T90KvCZ/g5Z2L4d93Mmwzdq3DnkcmS5MQAFlzZCF7bg8C7z9PM/9bIi42nqO7LlC6sney7WqNmkLF8zBycVdatK/Fuhd5cuPCfUzdMICpGwcQEx3H0d0XjcarVqvx8s7F0HkdaPSJL/s2nrAqvBBCCPu6e/0xpSonr2Oy586KSq3i8I7zPA8MY8amQUz93Z9fpm0lPCQKtUaFTqvDf7ofg2a243+L/wKsqxN+m72TOh9UYs62IVRv8g7Hdl8w2S5L2k4yFd/qObv4T9d6jF/Ri/w+ydu7eQvnZNaWwTRqU419G0+YbNOa2r+xtK6etYNqjcoydeMA+k76L3O//M1wDnzK5mfEoi64ujkRGxXHkDntKVGpMKf+vmzjq2c7adXdao2aezcC8RvYjElr+7FtxSHqfFCZMcu6c/PCfUKfRRg9TwB3rjxm5OKu/LDva7atOIiiKAQ9CqHDly2YsWkQrXs1YsP3fwIY+khD53Xg/c/f5YPOdTNksgjg/s0nFCqeF2cXx2TbS/v6cOfKQ8Mxf9a/KWOX98DNw4VDO8+bbM+bui+M9a8hdZ8tkWdOd0M/0H+an8l+nKk4jPVXkrI2j84ZupphCzqxYM9woiJiuHstYckaS+8rxxd9pakbBvBB57qG44mJjCUyLJoZmwYxa8tg4mITHmI8/c9VKtUpSeizCNYt2M3srYOZuXkQe9cfNyzTlZ599xzfGg9PtwybLALz5SmAXqen6zf/4ZepW4mP1Vodv7FrYWysBtK+l4z1Va0ZAzBWXlpbZyS6femB0bxgTtIxjixZXTOs75FWP0yv19PMrybXztwh4Mojm8ZvqlxOWie26tHQZL6+dyOQ4uULJdtWuqo3d64aT+eBrWcoVcUbMF1uJTKWF8OeR/D1oi7M/GMweQpk5+DWMyavbVrllBDi1dq74TilX9z/puqVhaM2MP7X3oxe2p24GOvrMGNlhKm2t7l2dsq+hjGm6p20yp671x5TKkWZrFKpDJNjxo4haTlsahw6kal68rc5O/mwS12m/e5PZFg0arV1U0AZ+oZR4tMXNZqUY/B/ZtHg46o0aFUVZ1cnLp8M4OzB62z66S8AoiNigYTGj7GGq/jX7jVHOPX3FRRFIXvurIxc3NXwt8SnSC6fDODkX1cM35bS6fQE3ntmNt6AK494p0YxAKrUL42L278Dx5XrJiwnl7tAdiJCo8zGU+8/Vaj+XjnOHLjOsd0X6FHvWyas7M3VM3cN6XunRjHDvlzdnRnf9SccnR0JCQo3rONYslJhVGoVGrUKlyzOxEbH4eLmbPF5SotOpze7jm8ur2wUKp4XgNwFchAeEkXxCoW4fekBYzv9iMZBQ1hwhOH35WqYX2KljK8P928GEhMVy8Ft56j/cRV0Wj03zt1jYvefAYiP01GgaMJSFZbeC+audVppEm8flUoFipJm/jenf7NpqF90Uut+WJnaLSsSERqd7DelqyYs9VKsfCH2rDvGrYsPeHQ3iKEfzwYgMjyGUpWLkCtfNqP7KPViEipbrqzcvHDfZHghhBCZj06rR2eijrl25g6V6pQEwNnFkSKlvLj3Yn3zxAcQsuX2SNbetLROuHrmDi061Qagdc+E5VXNfa8msZ1kKr6Ayw/5pHcjACrUKsHOVUcMYRPbxnkK5ODmhfuo1CqTbVpjjKX1j2X/0LxDwrbi5QvyMOCp4YGpouUKApA1pzs+ZfMDCZMAkWHRKaN+5XasOsyRnecN/34WGEr1xuUsqvtz5fPEM2fCU5junq4UTXFsxs7T8T8vUra6D07OCZMybu4uxEbHkcsrG0smbmbbLwcJeRZO1mz/Ph36qpZCNNW+SljmKaGjnqdAdsPbIsXfKcTdq4/RanUm2/PG7gtj/Wuwrs9mSso4zPVXkrI0j+q0eoIehRjiSLpUlTX3VcnKhZO95QRQqGQ+nj0OZWL3JdRuUYH3270LJDzd27JTHW5feoh3mQI4ODng4OTA5PX9bbbvjGKuPE2UO3926n5YmY2L9lK0XIFkf5s9ZDUuSb4z9tXCzoYBPFPXwtRYDVh/L1k7BpBSeuoMMJ0XLJWRfQ9L+mEqtYruY1qxaPQGxq3omexv5q5pWvGbOy5Lxg508TqUFKtRKArJlnad99XahG8m6RVKVCxEv0n/BUyXW2A6Lz57HMqiMRtwdHQg4MpDCpfMZ/TaWlpOCSEyVuJY0bPAUEpVKsKX8zsAxusVbbyOiJAo8hbKAUCFWsV5cv95qjgDLj9K9s3EyLBoarVIeFghl1e2VGVEviLGx1Gvnrljsp2dsq9hSsp6x5KyR6fVo9ebH3tOeQxJeebyMDkODabryYArj/hvvyYAvPt+BU7ste4hM5tMGLl5uBAWnLyCDn4abnj1fNCszwm48ogjO8/Tv9lUFuwejkqVsPZqiYqFDWHiYuNxdM60n1XKNJp8VtPk+suJ50+lgg+71KFNn+RvEt2/+cRkvIqiJHvFOun/axw0yX5nTnhIFB7Z3KjZ9B1qNn2HIqW92PXbUbLlckevSx721sUHbP/1EPN3D8PJ2ZFeDf/9mFnK2U8bv2CEd5n8XDhykzofVEqW9oe3n+JTNn+yY05MwNblB4iLiWfs8h5ERcTweaVvDH92dEr+JCEkzKLhoS1hAAALyElEQVRvW3EQRycHlhweTY2m5Tmx9zIHtpyh5/jWqFTg5OLIzD8GJwtnzb1g6lr/9b+TRtMk3l4hQRGEPY8kT8EcZvN/0goqZR4GmLfzS8O6tKYkdiQSOysqFZSp6sO3q3on+93BrWeNhldr/i1/Esom4+GFEEJkPj5l8nPhyA3eff/f5YFuX35I1sTlHZKuEKMoCZUECW+c/Lv534afpXXCvo0nUrU1zUlsJ5mKb+/64/AiupTLtSYu7ZOYJnNtWmMURTGa1pSrHakM5yZJuzzZeTK7m1fi/XbvJuubTOm7HLCs7k96zVP+W1FMnyeNJnk7XVFg4egNNPi4Kg1b+3J4xzl2rf53gu9V9TELl8jHvRuBREXE4ObuYth+9VSAYSA/aV7S6/WoVObb88buC2P9a7CuzwZw5p9rzBj4KwBjlvUwGoep/krKh4XM5dGk7cnF/3xj8j615r4y1s9xdnHk+z3DuXD0Jn9vOsXWXw4y7Xd/rp+7S4kKhTh78LrJgfSX3XdGSbM8fcFvYDN6NZhEx2Etkm1P63s3psqhlGM1iay+l4zcw9aWl9bWGWA6LyQd49BpTQ/gZWTfw1w/LOmkVJX6pVn//Z+c+vtqsvBpXVNz8Zs6rsXjfjear1OWEUVKe3H55G0q1Cph+M3VUwEULfvvRGX/yf81mj5j5VbSZZ+M5cVJPZeyYM9w8hTMwcJvEibJjF3bKev7Gy2nYnXmPyovhLCtxLGiLcsPcP7wdcN32IzVK9p4XbKwKSejE3mX8eKHvV8b/r1z1WHDA2HGyghzLGlnm2s/pax3TLWRkvIpm5/da4+m2n5i32V8G5ZJ8xjMjUP/eyBJ/v9FPakkqS/Ts5yqTZakK1g0D7HRcZz6+wqQsPzAlmX/8G6zCkSERrNyxna8S3vR1r8phUt68TAgiNJVfTi8I+FJtMd3glg1c4ctkiJeKFPVhyO7LqAoCtp4HfO/WpvmUyyFiuXl6qkAAM4evE50VKzZ36vUKuLjkr/aHfQohC9qT+Dpg2Ag4YYPuPwQL+9clKpchJN/Jcxo3rxwn+96LiUkKJxcXtlwcnbkxvn7PLj1BG2c9a8hpkeLDrXZvfYIx/9MeLU8KiKGaf1+4fzh6ybDhD4LJ3/RhDXs9244YbRAU6tVxL1YDsBvYDNWnBxvGGiv/1EV9m8+RfDTMHzK5EetUVOgaB7OHkzY58FtZ5M9oWmJ9Fxr8faJiohhhv8KWvVogFqjtjj/p8zDljp3KCGeq6cD8C6TH5+yBbhx7h7hIQkPF6yevZOHt59aHN/LhhdCCPHqtO7ViIWjNvLgVkI5/SggiPGdFxP0KITSVbw5e+AakPANmzvXHlMkxZN0aTFVJ5Su7M3JfQltzS3LD/D7j/uStcsiw6J5fDf1G/em4itUIh9XTgYAcHLfJbNpMtWmNbV/Y2ktXcWbMy/OzdXTdwxvur+ubFF3GztPpoQERZDfJ+Gpzv2bTxOfYiACEtrp8RnY13D3dKV284rM/fI3w/Jgl0/eZtuvh2jZMeE7pkGPQngUEATAlVN38C6d36r2vKn+tTUS+3GV6pZkxcnxrDg5nuLlCxr9rS36K0nbkxoHNbkLZOPGuXsATO+/gisv+qApWdpXTDyea2fu8vemU1SoVYK+333KveuBPH0QTC6vbKg1aoqWK8D1c3eJiYolNiYe/xYzTPY9Ld23Tqez+dLpSZkrT5NyzeLMp/3eY+383RbHbepaWDJWY+m9ZM0YQNLyMlF66wxjeQEgi6cboc8Tns6+evpOqnCJeSkj+x7WjEP0HN+apd9tTjW5nt74LT2uxHydsoxo3bMRC75ea8h/zwJDWThqA5/0aWw2TWmVW8by4sVjt4iP05LLKxuRYdGc2HcJbbzW6LW1RTklhLCdlh1qc+96oGGewFi94uCowdXDxdA2PrHPujdgtPE6o2WEsboEyJB2tiVlT8XaJdHr9KycsR29To+iV1g5Yzv/W/yXyWOAf8vhtMahTdWTBYvn5erpACDhUybWssmjViq1inG/9GTW4FXMGrwKlVrFJz0bUblewmvdIc8i6N90Kg5ODhQomoeSFQuT3zsX0/qvYMhHs4iL0dJzXCtbJEW8UP29cpz6+wr+zaej1yk0aVsjzUZGvY8qs2fdMQZ/OJMyvj7kKZDd7BqHleqUZFKvZYz8savhSZhcXtnoP+UzRrVfiKLXo9crlK9ZnE96NkTjqOH43kv0aTwZAP/pfhQtW4CVM7cz5KNZ+JQpQJs+jZn/9TraD3nfdifDhHyFczJhVR8WfrOeGf4rcXFzonmH2rTp857JNY4bf1qdiV/8zIm9l2jY2pfiFQqxZOLmZL8pWCwv924EMmfoavyn+yX7W7nqRZnYfQnNP69l2DZ49ufMHbYGB0c1arWarxd1seo40nOtxdujT+PJqFQq9Do9TdvWxG9QM8B8/o+OND9ZbInblx8yrPVcoiNjGfVzN7LmyEKPca34qs08HJ0dKFQ8L/kK5+T2pYcWxWcqvBBCiMyn/kdViImMZWTbBcTHafHInoVe335CqcpFUBSF43svMfTj2cTHaun2zUdkyepqVfym6oS2A5sxpc8y9m44jpuHC6OXfIFKrTa0y3wblmXP2qOpvstgMj7/JkzsvoQ9645RqkoRs8tJlK9Z3GibduLqPkb3byytOp3C9AErOLTtLPHxOgZMa5uu859ZvGzdDxg9T6YmF1r1aMD0ASvInjsrbfo0ZtbgVRzafi7Zb8r4+jCx+xI8c2ahefvaL3N4JvlP9+PnbzfRqfoY1Bo1OfNlY8yy7uQtlIOI0Gjye+di5YztPAx4imdOD2o0fQcHR43F7Xl3T1ej/ev9m09ZnEZj/ThzXra/ktLAGe2YPWQ1Wq2OMlW9TabB1H2Vsq+YeDyDZ7Zj95qjbF6yH228Dr9BzTi9/yqV6iSMS3jmdKf9kBYMbDkTvU5P656NcHAyPiRi6b7L+vrQp/Fk5u0cliHL1JkrT+++WJotUYv2tfh90V6r4jd2LQr45E5zrCbpvWROzWblLR4DSFpeJl6XGk3fSVedkd8nN8sm/ZEsLwC06l6fKb2XU7xCIVzcnFINvCW9NzKq72GuH5ZSkVJelKnqw5l/rhqJKX3xW3JcpvJ1k89qEB+n5cuP5xAfr8XJ2ZG2/k2pl+QD7MaYKreSSpkXy1bz4f12tfBvPp3sebPy+ZDmLP1uM5XqlEp1n4PtyykhRPqp1CoGTGvLpJ7LWHxgJH7+TY3WKz3GtGJk2wXkLZSTPAVzmHzLyBgHR43JMsLYmGxb/2YZ0s5Oq+zROKiZvL4/8778jbblR+Dk4kilOqUYubiryWOo1byioRweNr8Tk3svNTkObaqe/Kx/E77ruZRdq49QrnrRZG9SW0KlpPE4zIGQFcQpmfM1Tk9NXqpmffMnmnYEzcJJY11HOj2eBYZy5WQAtVtUJCQoggHNp/HL8XEZvl9raZVYKmRpTj7nkhaHuRdznitRf6NRyZKHCgrezlUp5lbd3kkRNnYoZCUxSri9k0GPehOZvL6/4SN+r4QCjXL0enX7E0IIYXA0dC2R+tRrjotXK16JpZL7B+R1KpZh+/jz+Q/pWtYiM3uVfYuI0Gj6NZnCsmNjrUyleB3F62NolnOgVWH2Pl8Eqkyw1qQwS0GPj0s1irpWszjM8/h7HAtbj5M648d2RIJYXSSNc/SRcy5EBtn1bB4OavkURmZ049w9tFodpat4c2j7Of7ZcprhCzoB4KTKQp1sHcyGl9FzYeCe1ZUdKw+xetZOFEWhz8RP7Z0kIYQQQgghhBBCCCGEEEJYwNnNidm9l6Nx1KDRqBgyx/wEUUoyYSQMnF2dmLBSPigvhHg5P+4fae8kCCGEEEJkOu6ervJ2kRBCCCGEyFCFiudl/u5h6Q6f5gJ2mXvBgcydOpExFEWPysprr1KpUDC97vzbRFF0b9xSIiKBtfeFEEIIYQtS+2QOCW3kjPUmXmvpWwghrKVPR7kBSLnxqqmQsQ8hMpCMQb2eLLlq/wdwt8uckclR0QAAAABJRU5ErkJggg==;" vertex="1" parent="WIyWlLk6GJQsqaUBKTNV-1">
          <mxGeometry x="-760" y="10" width="1676" height="922" as="geometry" />
        </mxCell>
        <mxCell id="aZhv_oGnKCUiRgPCYMfo-17" value="&lt;font style=&quot;font-size: 16px;&quot; color=&quot;#ffcccc&quot;&gt;Pre-testing&lt;/font&gt;" style="text;strokeColor=none;align=center;fillColor=none;html=1;verticalAlign=middle;whiteSpace=wrap;rounded=0;rotation=-90;" vertex="1" parent="WIyWlLk6GJQsqaUBKTNV-1">
          <mxGeometry x="-820" y="100" width="150" height="30" as="geometry" />
        </mxCell>
        <mxCell id="aZhv_oGnKCUiRgPCYMfo-20" value="" style="shape=link;html=1;rounded=0;strokeColor=#FFCCE6;width=175;strokeWidth=2;dashed=1;" edge="1" parent="WIyWlLk6GJQsqaUBKTNV-1">
          <mxGeometry width="100" relative="1" as="geometry">
            <mxPoint x="-740" y="124.67000000000002" as="sourcePoint" />
            <mxPoint x="-530" y="124" as="targetPoint" />
          </mxGeometry>
        </mxCell>
      </root>
    </mxGraphModel>
  </diagram>
</mxfile>
